<?xml version="1.0" encoding="UTF-8"?>
<svg width="6px" height="6px" viewBox="0 0 6 6" version="1.1" xmlns="http://www.w3.org/2000/svg" xmlns:xlink="http://www.w3.org/1999/xlink">
    <title>Bullet</title>
    <g id="Page-1" stroke="none" stroke-width="1" fill="none" fill-rule="evenodd">
        <path d="M2.73681641,5.82128906 C3.1163737,5.82128906 3.46191406,5.74967448 3.7734375,5.60644531 C4.08496094,5.46321615 4.35351562,5.26269531 4.57910156,5.00488281 C4.8046875,4.74707031 4.98014323,4.4391276 5.10546875,4.08105469 C5.23079427,3.72298177 5.29345703,3.32552083 5.29345703,2.88867188 C5.29345703,2.53776042 5.24869792,2.21549479 5.15917969,1.921875 C5.06966146,1.62825521 4.93896484,1.3758138 4.76708984,1.16455078 C4.59521484,0.95328776 4.38216146,0.788574219 4.12792969,0.670410156 C3.87369792,0.552246094 3.58544922,0.493164062 3.26318359,0.493164062 C2.89794922,0.493164062 2.55957031,0.564778646 2.24804688,0.708007812 C1.93652344,0.851236979 1.66617839,1.05354818 1.43701172,1.31494141 C1.20784505,1.57633464 1.02701823,1.88606771 0.89453125,2.24414062 C0.762044271,2.60221354 0.695800781,2.99609375 0.695800781,3.42578125 C0.695800781,3.76953125 0.738769531,4.08821615 0.824707031,4.38183594 C0.910644531,4.67545573 1.03776042,4.9296875 1.20605469,5.14453125 C1.37434896,5.359375 1.58561198,5.52587891 1.83984375,5.64404297 C2.09407552,5.76220703 2.39306641,5.82128906 2.73681641,5.82128906 Z" id="Bullet" fill="#ADADAD" fill-rule="nonzero"></path>
    </g>
</svg>