<?xml version="1.0" encoding="UTF-8"?>
<svg width="179px" height="222px" viewBox="0 0 179 222" version="1.1" xmlns="http://www.w3.org/2000/svg" xmlns:xlink="http://www.w3.org/1999/xlink">
    <title>uxlift-logo</title>
    <g id="Page-1" stroke="none" stroke-width="1" fill="none" fill-rule="evenodd">
        <g id="Logo" transform="translate(-39.000000, -17.000000)" fill="#2A62FE" fill-rule="nonzero">
            <g id="uxlift-logo" transform="translate(39.000000, 17.000000)">
                <path d="M99.0064042,110.832957 L175.057638,186.559067 C180.314121,191.793078 180.314121,200.256584 175.057638,205.434913 L162.419713,218.018811 C157.16323,223.252822 148.663386,223.252822 143.462824,218.018811 L89.5,164.398044 L35.5930959,218.074492 C30.3366136,223.308503 21.8367698,223.308503 16.6362074,218.074492 L3.94236176,205.490594 C-1.31412059,200.256584 -1.31412059,191.793078 3.94236176,186.614748 L79.9935958,110.888638 C85.2500781,105.598947 93.7499219,105.598947 99.0064042,110.832957 Z M79.9935958,3.9255079 L3.94236176,79.6516178 C-1.31412059,84.8856283 -1.31412059,93.3491347 3.94236176,98.5274643 L16.5802874,111.111362 C21.8367698,116.345372 30.3366136,116.345372 35.5371759,111.111362 L89.44408,57.4349135 L143.350984,111.111362 C148.607466,116.345372 157.10731,116.345372 162.307873,111.111362 L174.945798,98.5274643 C180.202281,93.2934537 180.202281,84.8299473 174.945798,79.6516178 L98.8945642,3.9255079 C93.7499219,-1.30850263 85.2500781,-1.30850263 79.9935958,3.9255079 Z" id="Shape"></path>
            </g>
        </g>
    </g>
</svg>