<?xml version="1.0" encoding="UTF-8"?>
<svg width="24px" height="30px" viewBox="0 0 24 30" version="1.1" xmlns="http://www.w3.org/2000/svg" xmlns:xlink="http://www.w3.org/1999/xlink">
    <title>webring-icon</title>
    <g id="webring-icon" stroke="none" stroke-width="1" fill="none" fill-rule="evenodd">
        <path d="M13.2746017,14.9774266 L23.4714151,25.2106847 C24.176195,25.9179835 24.176195,27.0617005 23.4714151,27.7614747 L21.7769447,29.4620015 C21.0721649,30.1693002 19.932521,30.1693002 19.2352389,29.4620015 L12,22.2159519 L4.77225866,29.4695259 C4.06747891,30.1768247 2.92783505,30.1768247 2.23055294,29.4695259 L0.528584817,27.7689992 C-0.176194939,27.0617005 -0.176194939,25.9179835 0.528584817,25.2182092 L10.7253983,14.9849511 C11.4301781,14.270128 12.5698219,14.270128 13.2746017,14.9774266 Z M10.7253983,0.53047404 L0.528584817,10.7637321 C-0.176194939,11.4710308 -0.176194939,12.6147479 0.528584817,13.3145222 L2.22305529,15.0150489 C2.92783505,15.7223475 4.06747891,15.7223475 4.76476101,15.0150489 L11.9925023,7.76147479 L19.2202436,15.0150489 C19.9250233,15.7223475 21.0646672,15.7223475 21.7619494,15.0150489 L23.4564198,13.3145222 C24.1611997,12.6072235 24.1611997,11.4635064 23.4564198,10.7637321 L13.2596064,0.53047404 C12.5698219,-0.17682468 11.4301781,-0.17682468 10.7253983,0.53047404 Z" id="Shape" fill="#000000" fill-rule="nonzero"></path>
    </g>
</svg>