<?xml version="1.0" encoding="UTF-8"?>
<svg width="216px" height="361px" viewBox="0 0 216 361" version="1.1" xmlns="http://www.w3.org/2000/svg" xmlns:xlink="http://www.w3.org/1999/xlink">
    <!-- Generator: Sketch 52.6 (67491) - http://www.bohemiancoding.com/sketch -->
    <title>Group</title>
    <desc>Created with Sketch.</desc>
    <g id="Page-1" stroke="none" stroke-width="1" fill="none" fill-rule="evenodd">
        <g id="Group">
            <path d="M171.003937,28.5762712 L153.062992,56.2372881 C158.850394,59.6949153 162.612205,66.0338983 162.612205,73.2372881 C162.612205,73.5254237 162.612205,73.8135593 162.612205,74.1016949 L162.612205,74.3898305 C162.612205,74.6779661 162.612205,74.9661017 162.612205,75.2542373 C162.612205,75.5423729 162.612205,75.8305085 162.612205,76.1186441 L162.612205,76.4067797 C162.612205,76.6949153 162.612205,76.9830508 162.322835,77.2711864 L162.033465,77.8474576 L162.033465,78.4237288 L162.033465,79 L161.744094,79.5762712 C161.744094,79.8644068 161.454724,80.1525424 161.454724,80.440678 L161.165354,81.0169492 C161.165354,81.3050847 160.875984,81.5932203 160.875984,81.8813559 C160.875984,82.1694915 160.586614,82.4576271 160.297244,82.7457627 C160.007874,83.0338983 160.007874,83.3220339 159.718504,83.6101695 C159.429134,83.8983051 159.429134,84.1864407 159.139764,84.4745763 L158.561024,85.0508475 C158.271654,85.3389831 158.271654,85.6271186 157.982283,85.6271186 C157.692913,86.2033898 157.114173,86.4915254 156.824803,87.0677966 L156.246063,87.6440678 L155.956693,87.9322034 L155.377953,88.5084746 C154.799213,88.7966102 154.220472,89.3728814 153.641732,89.6610169 C153.352362,89.9491525 153.062992,89.9491525 152.773622,90.2372881 C152.484252,90.5254237 152.194882,90.5254237 151.905512,90.5254237 C151.616142,90.5254237 151.326772,90.8135593 151.037402,90.8135593 C150.748031,90.8135593 150.458661,91.1016949 150.169291,91.1016949 C149.879921,91.1016949 149.590551,91.3898305 149.301181,91.3898305 C149.011811,91.3898305 148.722441,91.6779661 148.433071,91.6779661 C148.433071,92.2542373 148.143701,92.2542373 147.854331,92.2542373 L147.564961,92.2542373 C147.275591,92.2542373 146.98622,92.2542373 146.69685,92.5423729 C146.40748,92.5423729 146.11811,92.5423729 145.82874,92.8305085 L145.53937,92.8305085 C145.25,92.8305085 144.96063,92.8305085 144.67126,92.8305085 C144.09252,92.8305085 143.224409,92.8305085 142.645669,92.8305085 C132.807087,92.8305085 124.704724,85.9152542 122.968504,76.4067797 L122.679134,76.4067797 C121.521654,76.9830508 120.364173,77.2711864 119.206693,77.559322 C118.627953,77.8474576 117.759843,78.1355932 117.181102,78.1355932 C116.891732,78.1355932 116.602362,78.4237288 116.023622,78.4237288 C115.734252,78.4237288 115.155512,78.7118644 114.866142,78.7118644 L114.287402,79 L113.998031,79 C113.419291,79 113.129921,79.2881356 112.551181,79.2881356 C111.972441,79.5762712 111.104331,79.5762712 110.525591,79.8644068 C109.94685,79.8644068 109.36811,80.1525424 108.5,80.1525424 L107.92126,80.1525424 C107.34252,80.1525424 106.76378,79.8644068 105.895669,79.8644068 L105.316929,79.8644068 C105.027559,79.8644068 104.448819,79.5762712 104.159449,79.5762712 C103.870079,79.5762712 103.291339,79.2881356 103.001969,79.2881356 C102.423228,79.2881356 101.844488,79 101.265748,78.7118644 C100.976378,78.7118644 100.397638,78.4237288 100.108268,78.4237288 L99.8188976,78.4237288 L99.5295276,78.4237288 C99.2401575,78.4237288 98.9507874,78.1355932 98.6614173,78.1355932 L98.3720472,78.1355932 C98.0826772,78.1355932 97.503937,77.8474576 97.2145669,77.8474576 C96.9251969,77.8474576 96.6358268,77.559322 96.3464567,77.559322 C96.0570866,77.559322 95.7677165,77.2711864 95.1889764,77.2711864 L94.6102362,76.9830508 C94.3208661,76.9830508 94.0314961,76.6949153 93.4527559,76.6949153 L92.8740157,76.4067797 L92.5846457,76.4067797 C92.2952756,76.4067797 92.0059055,76.1186441 91.7165354,76.1186441 C91.4271654,75.8305085 90.8484252,75.8305085 90.5590551,75.5423729 L90.269685,75.5423729 C89.980315,75.5423729 89.6909449,75.2542373 89.4015748,75.2542373 C89.1122047,74.9661017 88.5334646,74.9661017 88.2440945,74.6779661 L87.6653543,74.3898305 C87.0866142,74.1016949 86.507874,73.8135593 86.2185039,73.5254237 L85.6397638,73.2372881 C85.0610236,72.9491525 84.7716535,72.6610169 84.1929134,72.3728814 L83.9035433,72.0847458 C83.6141732,71.7966102 83.0354331,71.5084746 82.746063,71.5084746 C82.4566929,71.220339 81.8779528,71.220339 81.5885827,70.9322034 C81.0098425,70.6440678 80.7204724,70.3559322 80.1417323,70.0677966 L79.8523622,69.2033898 L79.273622,68.9152542 L78.6948819,68.3389831 L78.1161417,68.0508475 C77.8267717,67.7627119 77.5374016,67.7627119 77.2480315,67.4745763 L76.9586614,67.4745763 L76.6692913,67.4745763 L76.0905512,66.8983051 C75.511811,66.6101695 75.2224409,66.3220339 74.6437008,65.7457627 C74.3543307,65.4576271 74.0649606,65.4576271 73.7755906,65.1694915 L73.4862205,64.8813559 L72.6181102,64.0169492 L72.0393701,63.440678 C71.1712598,62.8644068 70.3031496,62 69.4350394,61.4237288 C68.8562992,60.8474576 68.5669291,60.559322 67.988189,59.9830508 C67.4094488,59.4067797 66.5413386,58.5423729 65.9625984,57.9661017 L65.3838583,57.6779661 L64.8051181,57.1016949 L64.515748,56.8135593 L64.226378,56.5254237 L63.9370079,56.2372881 C63.6476378,55.9491525 63.3582677,55.6610169 63.3582677,55.3728814 C63.0688976,55.0847458 62.7795276,54.7966102 62.4901575,54.5084746 L62.4901575,54.220339 C61.0433071,52.4915254 59.5964567,50.4745763 58.1496063,48.7457627 C55.2559055,44.7118644 52.6515748,40.6779661 50.3366142,36.3559322 C49.4685039,34.9152542 48.6003937,33.1864407 48.0216535,31.4576271 C47.7322835,31.1694915 47.7322835,30.8813559 47.4429134,30.3050847 L47.4429134,30.0169492 L45.996063,29.7288136 L45.7066929,29.1525424 C45.4173228,28.8644068 45.4173228,28.5762712 45.1279528,28.2881356 L45.1279528,28 C44.8385827,28.5762712 44.5492126,28.8644068 44.2598425,29.440678 C43.9704724,29.7288136 43.9704724,30.0169492 43.6811024,30.3050847 C43.1023622,31.7457627 42.234252,33.1864407 41.6555118,34.6271186 C41.3661417,34.9152542 41.3661417,35.2033898 41.3661417,35.4915254 C41.3661417,35.779661 41.0767717,36.0677966 41.0767717,36.3559322 L41.0767717,36.6440678 L41.0767717,36.9322034 C40.7874016,37.7966102 40.4980315,38.3728814 40.2086614,39.2372881 C39.9192913,39.8135593 39.6299213,40.3898305 39.6299213,41.2542373 C39.3405512,41.8305085 39.3405512,42.4067797 39.0511811,42.6949153 C38.4724409,44.1355932 38.1830709,45.8644068 37.6043307,47.3050847 L37.0255906,49.0338983 C36.7362205,50.4745763 36.4468504,51.6271186 36.1574803,53.0677966 L36.1574803,53.6440678 C36.1574803,53.9322034 35.8681102,54.5084746 35.8681102,54.7966102 C35.8681102,55.3728814 35.5787402,56.2372881 35.5787402,56.8135593 L35.5787402,57.3898305 C35.2893701,58.8305085 35,60.2711864 35,61.7118644 C35,62 35,62.2881356 35,62.5762712 L35,62.8644068 L35,63.1525424 L35,63.7288136 L35,64.3050847 L35,64.5932203 L35,64.8813559 L35,65.1694915 L35,65.4576271 C35,65.7457627 35,66.3220339 35,66.6101695 L35,67.1864407 L35,67.7627119 L35,68.3389831 C35,68.6271186 35,69.2033898 35,69.4915254 C35,70.0677966 35,70.6440678 35,70.9322034 C35,71.5084746 35,72.3728814 35,72.9491525 C35,73.5254237 35,74.1016949 35,74.6779661 C35,75.2542373 35,75.8305085 35,76.4067797 C35,77.8474576 35,79 35.2893701,80.440678 C35.2893701,81.0169492 35.2893701,81.3050847 35.2893701,81.8813559 C35.2893701,82.1694915 35.2893701,82.7457627 35.2893701,83.0338983 C35.2893701,83.6101695 35.2893701,84.1864407 35.5787402,84.7627119 C35.5787402,85.3389831 35.8681102,85.9152542 35.8681102,86.4915254 L35.8681102,86.779661 C35.8681102,87.3559322 36.1574803,87.9322034 36.1574803,88.5084746 C36.1574803,89.0847458 36.4468504,89.6610169 36.4468504,90.5254237 C36.4468504,91.1016949 36.7362205,91.6779661 36.7362205,92.5423729 C36.7362205,92.8305085 36.7362205,93.1186441 37.0255906,93.6949153 L37.3149606,93.6949153 C51.7834646,98.0169492 65.3838583,103.491525 78.4055118,110.40678 C78.984252,110.694915 79.273622,110.983051 79.8523622,111.271186 C90.269685,116.745763 99.8188976,123.084746 109.07874,130 C118.627953,122.79661 129.045276,116.169492 139.751969,110.40678 C140.041339,110.118644 140.620079,109.830508 140.909449,109.830508 C153.062992,103.491525 165.795276,98.3050847 179.395669,94.2711864 L179.685039,94.2711864 C179.685039,93.6949153 179.974409,93.1186441 179.974409,92.8305085 C179.974409,92.5423729 180.26378,91.9661017 180.26378,91.6779661 C181.13189,87.0677966 182,82.4576271 182,77.559322 L182,76.9830508 L182,76.4067797 C182,75.8305085 182,75.5423729 182,74.9661017 C182,74.1016949 182,73.2372881 182,72.0847458 L182,71.5084746 C182,70.9322034 182,70.6440678 182,70.0677966 L182,69.4915254 L182,68.9152542 C182,68.6271186 182,68.3389831 182,68.0508475 C182,67.7627119 182,67.4745763 182,67.1864407 C182,66.8983051 182,66.6101695 182,66.0338983 L182,65.4576271 L182,65.1694915 L182,64.8813559 C182,64.5932203 182,64.3050847 182,64.0169492 C182,63.7288136 182,63.440678 182,63.1525424 L182,62.5762712 L182,62 C182,61.7118644 182,61.4237288 182,61.1355932 C182,60.559322 182,60.2711864 181.71063,59.6949153 L181.71063,59.4067797 L181.71063,59.1186441 C181.71063,58.5423729 181.42126,57.9661017 181.42126,57.3898305 C181.42126,57.1016949 181.42126,56.8135593 181.42126,56.5254237 C181.42126,56.2372881 181.42126,55.9491525 181.13189,55.6610169 C181.13189,55.3728814 181.13189,55.0847458 180.84252,54.7966102 L180.84252,54.5084746 L180.84252,54.220339 C180.84252,53.9322034 180.55315,53.3559322 180.55315,53.0677966 C180.55315,52.779661 180.26378,52.2033898 180.26378,51.9152542 C180.26378,51.6271186 179.974409,51.0508475 179.974409,50.7627119 C179.974409,50.4745763 179.974409,50.1864407 179.685039,49.8983051 L179.685039,49.3220339 L179.685039,48.7457627 C179.685039,48.4576271 179.395669,48.1694915 179.395669,47.8813559 L179.395669,47.5932203 C179.395669,47.3050847 179.106299,47.0169492 179.106299,46.7288136 C179.106299,46.440678 178.816929,45.8644068 178.816929,45.5762712 L178.527559,45 C178.527559,44.7118644 178.238189,44.4237288 178.238189,44.1355932 C178.238189,43.8474576 177.948819,43.559322 177.948819,43.2711864 L177.659449,42.6949153 C177.659449,42.4067797 177.370079,42.1186441 177.370079,41.5423729 L175.923228,40.3898305 L175.633858,40.1016949 L175.633858,39.8135593 L175.633858,39.5254237 C175.633858,39.2372881 175.344488,38.9491525 175.344488,38.6610169 C175.344488,38.3728814 175.055118,38.0847458 175.055118,37.7966102 C174.765748,36.9322034 174.476378,36.0677966 174.187008,35.4915254 C173.897638,34.6271186 173.608268,34.0508475 173.029528,33.1864407 L172.740157,32.8983051 L172.450787,32.3220339 L172.161417,31.4576271 C171.872047,31.1694915 171.872047,30.8813559 171.582677,30.5932203 L171.293307,30.0169492 L171.003937,29.7288136 L171.003937,28.5762712" id="Path" fill="#FFDBB5"></path>
            <path d="M114,93.6306306 C114,93.6306306 114,93.9189189 114,93.6306306 C114,93.9189189 114,94.2072072 114,94.2072072 C113.422222,99.972973 112.555556,105.45045 110.822222,110.63964 C109.955556,113.522523 108.8,116.405405 107.644444,119 C106.2,115.828829 105.044444,112.657658 103.888889,109.198198 C102.444444,104.585586 101.577778,99.6846847 101,94.4954955 C101,94.2072072 101,93.9189189 101,93.6306306 C101,90.1711712 103.888889,87 107.644444,87 C110.244444,87 112.555556,88.7297297 113.711111,90.7477477 C114,91.9009009 114,92.7657658 114,93.6306306 Z" id="Path" fill="#30302F"></path>
            <path d="M162,73.5 C162,73.7867647 162,74.0735294 162,74.3602941 C162,74.3602941 162,74.6470588 162,74.6470588 C162,74.6470588 162,74.6470588 162,74.6470588 C162,74.6470588 162,74.6470588 162,74.6470588 C162,74.9338235 162,75.2205882 162,75.5073529 C162,75.7941176 162,76.0808824 162,76.3676471 C162,76.3676471 162,76.6544118 162,76.6544118 C162,76.9411765 162,77.2279412 161.710145,77.5147059 C161.710145,77.8014706 161.710145,78.0882353 161.42029,78.0882353 C161.42029,78.0882353 161.42029,78.375 161.42029,78.6617647 C161.42029,78.9485294 161.42029,78.9485294 161.42029,79.2352941 C161.42029,79.5220588 161.42029,79.8088235 161.130435,79.8088235 C161.130435,79.8088235 161.130435,79.8088235 161.130435,79.8088235 C161.130435,80.0955882 160.84058,80.3823529 160.84058,80.6691176 C160.84058,80.9558824 160.550725,80.9558824 160.550725,81.2426471 C160.550725,81.5294118 160.26087,81.8161765 160.26087,82.1029412 C160.26087,82.3897059 159.971014,82.6764706 159.681159,82.9632353 C159.391304,83.25 159.391304,83.5367647 159.101449,83.8235294 C158.811594,84.1102941 158.811594,84.3970588 158.521739,84.6838235 C158.521739,84.9705882 158.231884,84.9705882 157.942029,85.2573529 C157.652174,85.5441176 157.652174,85.8308824 157.362319,85.8308824 C157.072464,86.4044118 156.492754,86.6911765 156.202899,87.2647059 C155.913043,87.5514706 155.623188,87.8382353 155.623188,87.8382353 C155.623188,87.8382353 155.333333,88.125 155.333333,88.125 C155.043478,88.4117647 155.043478,88.4117647 154.753623,88.6985294 C154.173913,88.9852941 153.594203,89.5588235 153.014493,89.8455882 C152.724638,90.1323529 152.434783,90.1323529 152.144928,90.4191176 C151.855072,90.7058824 151.565217,90.7058824 151.275362,90.7058824 C150.985507,90.7058824 150.695652,90.9926471 150.405797,90.9926471 C150.115942,90.9926471 149.826087,91.2794118 149.536232,91.2794118 C149.246377,91.2794118 148.956522,91.5661765 148.666667,91.5661765 C148.376812,91.5661765 148.086957,91.8529412 147.797101,91.8529412 C147.797101,92.4264706 147.507246,92.4264706 147.217391,92.4264706 C147.217391,92.4264706 146.927536,92.4264706 146.927536,92.4264706 C146.637681,92.4264706 146.347826,92.4264706 146.057971,92.7132353 C146.057971,92.7132353 146.057971,92.7132353 146.057971,92.7132353 C145.768116,92.7132353 145.478261,92.7132353 145.188406,93 L144.898551,93 C144.608696,93 144.318841,93 144.028986,93 C143.449275,93 142.57971,93 142,93 C132.144928,93 124.028986,86.1176471 122.289855,76.6544118 C122.289855,76.6544118 122.289855,76.6544118 122.289855,76.6544118 C122.289855,76.6544118 122.289855,76.6544118 122.289855,76.6544118 C122.289855,76.6544118 122.289855,76.6544118 122.289855,76.6544118 C122,75.5073529 122,74.6470588 122,73.5 C122,67.4779412 124.898551,61.7426471 129.246377,58.3014706 C132.434783,55.7205882 136.202899,54.2867647 140.550725,54 C141.130435,54 141.42029,54 142,54 C143.449275,54 145.188406,54.2867647 146.637681,54.5735294 C148.666667,55.1470588 150.405797,55.7205882 152.144928,56.8676471 C152.144928,56.8676471 152.144928,56.8676471 152.434783,56.8676471 C152.434783,56.8676471 152.434783,56.8676471 152.434783,56.8676471 C158.231884,60.0220588 162,66.3308824 162,73.5 Z" id="Path" fill="#FFFFFF"></path>
            <circle id="Oval" fill="#30302F" cx="142.5" cy="73.5" r="8.5"></circle>
            <path d="M92,73.7867647 C92,74.9338235 92,75.7941176 91.7101449,76.9411765 C91.7101449,76.9411765 91.7101449,76.9411765 91.7101449,76.9411765 C91.7101449,76.9411765 91.7101449,76.9411765 91.7101449,76.9411765 C91.7101449,77.5147059 91.4202899,78.0882353 91.4202899,78.6617647 C91.4202899,78.9485294 91.1304348,79.2352941 91.1304348,79.5220588 C91.1304348,79.8088235 90.8405797,80.3823529 90.5507246,80.6691176 C90.5507246,80.9558824 90.2608696,80.9558824 90.2608696,81.2426471 C90.2608696,81.5294118 89.9710145,81.5294118 89.9710145,81.8161765 C89.9710145,82.1029412 89.6811594,82.3897059 89.6811594,82.6764706 C89.6811594,82.9632353 89.3913043,82.9632353 89.3913043,83.25 C89.3913043,83.5367647 89.1014493,83.5367647 89.1014493,83.8235294 C89.1014493,84.1102941 88.8115942,84.1102941 88.8115942,84.3970588 C88.8115942,84.6838235 88.5217391,84.6838235 88.5217391,84.9705882 C88.2318841,85.2573529 88.2318841,85.5441176 87.942029,85.8308824 C87.6521739,86.1176471 87.3623188,86.4044118 87.3623188,86.6911765 C86.7826087,86.9779412 86.7826087,86.9779412 86.4927536,87.2647059 C86.4927536,87.2647059 86.2028986,87.5514706 86.2028986,87.5514706 C86.2028986,87.8382353 85.9130435,87.8382353 85.6231884,87.8382353 C85.6231884,87.8382353 85.3333333,88.125 85.0434783,88.125 C84.4637681,88.6985294 83.5942029,89.2720588 83.0144928,89.8455882 C82.7246377,90.1323529 82.4347826,90.1323529 82.1449275,90.4191176 C81.8550725,90.4191176 81.8550725,90.7058824 81.5652174,90.7058824 C81.5652174,90.7058824 81.2753623,90.7058824 81.2753623,90.7058824 C81.2753623,90.7058824 80.9855072,90.7058824 80.9855072,90.7058824 C80.6956522,90.7058824 80.6956522,90.9926471 80.4057971,90.9926471 C80.4057971,90.9926471 80.115942,90.9926471 80.115942,91.2794118 C80.115942,91.2794118 79.826087,91.2794118 79.826087,91.5661765 C79.826087,91.5661765 79.5362319,91.5661765 79.5362319,91.8529412 C79.2463768,91.8529412 79.2463768,92.1397059 78.9565217,92.1397059 C78.6666667,92.1397059 78.3768116,92.4264706 78.0869565,92.4264706 C77.7971014,92.7132353 77.2173913,92.7132353 76.6376812,92.7132353 C76.3478261,92.7132353 76.3478261,92.7132353 76.057971,92.7132353 C75.7681159,92.7132353 75.4782609,92.7132353 75.4782609,92.7132353 C75.1884058,92.7132353 74.6086957,92.7132353 74.3188406,93 C74.0289855,93 74.0289855,93 73.7391304,93 C73.4492754,93 73.4492754,93 73.1594203,93 C73.1594203,93 72.8695652,93 72.8695652,93 C72.5797101,93 72.2898551,93 72.2898551,93 C71.7101449,93 70.8405797,93 70.2608696,93 C69.9710145,93 69.6811594,93 69.3913043,93 C69.1014493,93 69.1014493,93 68.8115942,93 C68.5217391,93 68.5217391,93 68.2318841,93 C68.2318841,93 68.2318841,93 67.942029,93 C67.6521739,93 67.3623188,93 67.0724638,92.7132353 C66.7826087,92.7132353 66.4927536,92.7132353 66.2028986,92.4264706 C65.6231884,92.4264706 65.3333333,92.1397059 64.7536232,91.8529412 C64.4637681,91.8529412 64.173913,91.5661765 64.173913,91.5661765 C63.884058,91.5661765 63.5942029,91.2794118 63.3043478,91.2794118 C63.0144928,91.2794118 62.7246377,90.9926471 62.7246377,90.9926471 C62.7246377,90.9926471 62.7246377,90.9926471 62.7246377,90.9926471 C62.4347826,90.9926471 62.4347826,90.7058824 62.1449275,90.7058824 C61.8550725,90.7058824 61.8550725,90.4191176 61.5652174,90.4191176 C61.2753623,90.1323529 60.6956522,89.8455882 60.4057971,89.5588235 C60.4057971,89.5588235 60.115942,89.2720588 60.115942,89.2720588 C60.115942,89.2720588 60.115942,89.2720588 60.115942,89.2720588 C59.826087,88.9852941 59.2463768,88.6985294 58.9565217,88.4117647 C58.6666667,88.125 58.6666667,88.125 58.3768116,87.8382353 C58.3768116,87.8382353 58.0869565,87.5514706 58.0869565,87.5514706 C58.0869565,87.5514706 57.7971014,87.2647059 57.7971014,87.2647059 C57.5072464,86.9779412 57.2173913,86.6911765 56.9275362,86.4044118 C56.9275362,86.4044118 56.6376812,86.1176471 56.6376812,86.1176471 C56.3478261,85.8308824 56.057971,85.2573529 55.7681159,84.9705882 C55.7681159,84.6838235 55.4782609,84.6838235 55.4782609,84.3970588 C54.8985507,83.8235294 54.6086957,82.9632353 54.3188406,82.1029412 C54.3188406,81.8161765 54.0289855,81.5294118 54.0289855,81.2426471 C54.0289855,80.9558824 53.7391304,80.6691176 53.7391304,80.3823529 C53.7391304,80.0955882 53.7391304,80.0955882 53.4492754,79.8088235 C53.4492754,79.5220588 53.4492754,79.5220588 53.1594203,79.2352941 C53.1594203,78.9485294 53.1594203,78.9485294 52.8695652,78.6617647 C52.8695652,78.375 52.8695652,78.0882353 52.5797101,78.0882353 C52.5797101,78.0882353 52.5797101,78.0882353 52.5797101,78.0882353 C52.5797101,78.0882353 52.5797101,77.8014706 52.5797101,77.8014706 C52.5797101,77.8014706 52.5797101,77.8014706 52.5797101,77.8014706 C52.5797101,77.8014706 52.5797101,77.8014706 52.5797101,77.8014706 C52.5797101,77.5147059 52.5797101,77.5147059 52.5797101,77.2279412 C52.5797101,76.9411765 52.5797101,76.6544118 52.2898551,76.3676471 C52.2898551,75.7941176 52.2898551,75.2205882 52,74.6470588 C52,74.6470588 52,74.3602941 52,74.3602941 C52,74.0735294 52,73.7867647 52,73.5 C52,73.2132353 52,72.9264706 52,72.6397059 C52,72.3529412 52,72.3529412 52,72.0661765 C52,71.4926471 52,71.2058824 52,70.9191176 C52,70.6323529 52,70.3455882 52,70.0588235 C52,69.1985294 52.2898551,68.625 52.5797101,67.7647059 C52.5797101,67.4779412 52.8695652,67.1911765 52.8695652,66.9044118 C52.8695652,66.6176471 53.1594203,66.3308824 53.1594203,65.7573529 C53.1594203,65.4705882 53.4492754,65.1838235 53.4492754,64.8970588 C53.4492754,64.6102941 53.7391304,64.3235294 53.7391304,64.0367647 C54.0289855,63.75 54.3188406,63.1764706 54.3188406,62.8897059 C54.3188406,62.8897059 54.6086957,62.6029412 54.6086957,62.6029412 C54.6086957,62.3161765 54.8985507,62.0294118 55.1884058,62.0294118 C55.4782609,61.7426471 55.4782609,61.4558824 55.7681159,61.4558824 C56.057971,61.1691176 56.057971,60.8823529 56.3478261,60.8823529 C56.3478261,60.8823529 56.3478261,60.8823529 56.3478261,60.8823529 C56.3478261,60.8823529 56.6376812,60.5955882 56.6376812,60.5955882 C56.6376812,60.5955882 56.6376812,60.5955882 56.6376812,60.5955882 C56.9275362,60.3088235 57.2173913,60.0220588 57.5072464,59.7352941 C57.7971014,59.4485294 58.0869565,59.1617647 58.3768116,58.875 C58.6666667,58.5882353 58.9565217,58.3014706 59.2463768,58.0147059 C59.5362319,57.7279412 59.826087,57.4411765 60.4057971,57.1544118 C60.6956522,56.8676471 60.9855072,56.8676471 61.2753623,56.5808824 C61.2753623,56.5808824 61.2753623,56.5808824 61.2753623,56.5808824 C61.2753623,56.5808824 61.2753623,56.5808824 61.2753623,56.5808824 C61.2753623,56.5808824 61.2753623,56.5808824 61.2753623,56.5808824 C64.173913,54.8602941 67.6521739,54 71.1304348,54 C76.057971,54 80.6956522,55.7205882 84.173913,58.875 C89.3913043,62.3161765 92,67.7647059 92,73.7867647 Z" id="Path" fill="#FFFFFF"></path>
            <circle id="Oval" fill="#30302F" cx="72.5" cy="73.5" r="8.5"></circle>
            <path d="M198,0.576512456 C198,0.576512456 198,0.576512456 198,0.576512456 L197.710863,0.576512456 L196.84345,0.576512456 L196.554313,0.576512456 C188.169329,2.01779359 180.36262,4.32384342 172.555911,7.20640569 C172.555911,7.20640569 172.266773,7.20640569 172.266773,7.49466192 C171.688498,7.78291815 171.110224,7.78291815 170.821086,8.07117438 C170.242812,8.3594306 169.664537,8.64768683 168.797125,8.93594306 C168.507987,8.93594306 168.21885,9.22419929 168.21885,9.22419929 C165.616613,10.3772242 163.014377,11.5302491 160.701278,12.683274 C160.412141,12.683274 160.412141,12.9715302 160.123003,12.9715302 C158.966454,13.5480427 157.520767,14.4128114 156.364217,14.9893238 C151.448882,17.5836299 146.822684,20.7544484 142.196486,23.9252669 C134.100639,22.4839858 126.004792,21.9074733 117.908946,21.3309609 C114.728435,21.3309609 111.258786,21.0427046 108.078275,21.0427046 C108.078275,21.0427046 107.789137,21.0427046 107.789137,21.0427046 C107.789137,21.0427046 107.789137,21.0427046 107.5,21.0427046 C105.186901,21.0427046 102.873802,21.0427046 100.271565,21.0427046 C99.9824281,21.0427046 99.4041534,21.0427046 99.115016,21.0427046 C90.4408946,21.3309609 81.7667732,22.1957295 73.3817891,23.6370107 C73.0926518,23.6370107 73.0926518,23.3487544 72.8035144,23.3487544 C68.4664537,20.1779359 63.8402556,17.2953737 59.2140575,14.7010676 C56.3226837,12.9715302 53.1421725,11.5302491 50.2507987,10.088968 C49.3833866,9.51245552 48.2268371,9.22419929 47.3594249,8.93594306 C47.0702875,8.93594306 46.7811502,8.93594306 46.4920128,8.64768683 C42.4440895,6.91814947 38.1070288,5.47686833 33.7699681,4.03558719 C33.7699681,4.03558719 33.7699681,4.03558719 33.7699681,4.03558719 C28.5654952,2.59430605 23.3610224,1.15302491 18.1565495,0.288256228 C18.1565495,0.288256228 18.1565495,0.288256228 18.1565495,0.288256228 C18.1565495,0.288256228 17.8674121,0.288256228 17.8674121,0.288256228 C17.8674121,0.288256228 17.8674121,0.288256228 17.8674121,0.288256228 C17.8674121,0.288256228 17.8674121,0.288256228 17.5782748,0.288256228 C17.5782748,0.288256228 17.5782748,0.288256228 17.5782748,0.288256228 C17.5782748,0.288256228 17.2891374,0.288256228 17.2891374,0.288256228 C17.2891374,0.288256228 17.2891374,0.288256228 17.2891374,0.288256228 C17.2891374,0.288256228 17.2891374,0.288256228 17.2891374,0.288256228 C17.2891374,0.288256228 17.2891374,0.288256228 17.5782748,0.288256228 C17.5782748,0.288256228 17.5782748,0.288256228 17.2891374,0.288256228 C17.2891374,0.288256228 17.2891374,0.288256228 17.2891374,0.288256228 C17.2891374,0.288256228 17,0.288256228 17,0.288256228 C17,0.288256228 17,0.288256228 17,0.288256228 C17,0.288256228 17,0.288256228 17,0.288256228 C17.8674121,0.576512456 18.4456869,0.864768683 19.313099,1.15302491 C19.8913738,1.44128114 20.4696486,1.72953737 21.0479233,2.30604982 C28.2763578,7.20640569 34.6373802,13.2597865 39.841853,19.8896797 C41.8658147,22.772242 43.8897764,25.366548 45.6246006,28.5373665 C45.6246006,28.5373665 45.6246006,28.5373665 45.6246006,28.5373665 C45.6246006,28.5373665 45.6246006,28.5373665 45.6246006,28.5373665 C45.6246006,28.5373665 45.6246006,28.5373665 45.6246006,28.5373665 C45.6246006,28.5373665 45.6246006,28.5373665 45.6246006,28.5373665 C45.6246006,28.5373665 45.6246006,28.5373665 45.6246006,28.8256228 C45.6246006,28.8256228 45.6246006,28.8256228 45.6246006,29.113879 C45.913738,29.4021352 45.913738,29.6903915 46.2028754,29.9786477 C46.2028754,30.2669039 46.4920128,30.2669039 46.4920128,30.5551601 C46.4920128,30.5551601 46.4920128,30.5551601 46.7811502,30.5551601 C46.7811502,30.5551601 46.7811502,30.5551601 46.7811502,30.5551601 C46.7811502,30.5551601 46.7811502,30.5551601 46.4920128,30.5551601 C46.4920128,30.8434164 46.7811502,30.8434164 46.7811502,31.1316726 C46.7811502,31.4199288 47.0702875,31.4199288 47.0702875,31.7081851 C47.3594249,31.9964413 47.3594249,32.2846975 47.6485623,32.86121 C48.5159744,34.5907473 49.0942492,36.0320285 49.9616613,37.7615658 C52.2747604,42.0854093 54.8769968,46.1209964 57.7683706,50.1565836 C59.2140575,52.1743772 60.6597444,53.9039146 62.1054313,55.633452 C62.1054313,55.633452 62.1054313,55.633452 62.1054313,55.633452 C62.1054313,55.633452 62.1054313,55.633452 62.1054313,55.9217082 C62.1054313,55.9217082 62.1054313,55.9217082 62.1054313,55.9217082 C62.3945687,56.2099644 62.6837061,56.4982206 62.9728435,56.7864769 C63.2619808,57.0747331 63.5511182,57.3629893 63.5511182,57.6512456 C63.5511182,57.6512456 63.5511182,57.6512456 63.8402556,57.9395018 L64.129393,58.227758 C64.129393,58.227758 64.4185304,58.5160142 64.4185304,58.5160142 C64.7076677,58.8042705 64.7076677,58.8042705 64.9968051,59.0925267 C65.2859425,59.3807829 65.2859425,59.3807829 65.5750799,59.6690391 C66.1533546,60.2455516 67.0207668,61.1103203 67.5990415,61.6868327 C68.1773163,62.2633452 68.4664537,62.5516014 69.0447284,63.1281139 C69.9121406,63.7046263 70.7795527,64.569395 71.6469649,65.1459075 C71.9361022,65.4341637 71.9361022,65.4341637 72.2252396,65.7224199 C72.514377,66.0106762 72.8035144,66.0106762 72.8035144,66.2989324 C72.8035144,66.2989324 73.0926518,66.5871886 73.0926518,66.5871886 C73.3817891,66.8754448 73.6709265,66.8754448 73.9600639,67.1637011 C74.5383387,67.4519573 74.827476,68.0284698 75.4057508,68.316726 C75.6948882,68.6049822 75.9840256,68.6049822 75.9840256,68.8932384 C75.9840256,68.8932384 75.9840256,68.8932384 76.2731629,68.8932384 C76.2731629,68.8932384 76.2731629,68.8932384 76.2731629,68.8932384 C76.2731629,68.8932384 76.2731629,68.8932384 76.2731629,68.8932384 C76.2731629,68.8932384 76.2731629,68.8932384 76.2731629,68.8932384 C76.2731629,68.8932384 76.2731629,68.8932384 76.2731629,68.8932384 C76.2731629,68.8932384 76.2731629,68.8932384 76.5623003,68.8932384 C76.8514377,69.1814947 77.1405751,69.1814947 77.4297125,69.4697509 C77.7188498,69.4697509 77.7188498,69.7580071 78.0079872,69.7580071 C78.2971246,70.0462633 78.586262,70.0462633 78.586262,70.3345196 C78.8753994,70.3345196 78.8753994,70.6227758 79.1645367,70.6227758 C79.4536741,70.6227758 79.4536741,70.911032 79.7428115,70.911032 C80.3210863,71.1992883 80.6102236,71.4875445 81.1884984,71.7758007 C81.4776358,72.0640569 82.0559105,72.3523132 82.3450479,72.3523132 C82.3450479,72.3523132 82.3450479,72.3523132 82.3450479,72.3523132 C82.6341853,72.6405694 83.2124601,72.9288256 83.5015974,72.9288256 C83.5015974,72.9288256 83.7907348,73.2170819 83.7907348,73.2170819 C84.3690096,73.5053381 84.658147,73.7935943 85.2364217,74.0818505 C85.5255591,74.0818505 85.5255591,74.3701068 85.8146965,74.3701068 C86.3929712,74.658363 86.971246,74.9466192 87.2603834,75.2348754 C87.5495208,75.2348754 87.8386581,75.5231317 87.8386581,75.5231317 C88.1277955,75.8113879 88.7060703,75.8113879 88.9952077,76.0996441 C89.284345,76.0996441 89.5734824,76.3879004 89.8626198,76.3879004 C89.8626198,76.3879004 89.8626198,76.3879004 89.8626198,76.3879004 C89.8626198,76.3879004 89.8626198,76.3879004 90.1517572,76.3879004 C90.4408946,76.6761566 91.0191693,76.6761566 91.3083067,76.9644128 C91.5974441,76.9644128 91.8865815,77.252669 92.1757188,77.252669 C92.1757188,77.252669 92.4648562,77.252669 92.4648562,77.252669 C92.4648562,77.252669 92.4648562,77.252669 92.4648562,77.252669 C92.7539936,77.252669 92.7539936,77.5409253 93.043131,77.5409253 C93.3322684,77.5409253 93.6214058,77.8291815 94.1996805,77.8291815 C94.4888179,77.8291815 94.4888179,77.8291815 94.7779553,78.1174377 C95.0670927,78.1174377 95.35623,78.405694 95.9345048,78.405694 C96.2236422,78.405694 96.5127796,78.6939502 96.8019169,78.6939502 C97.0910543,78.6939502 97.6693291,78.9822064 97.9584665,78.9822064 C97.9584665,78.9822064 97.9584665,78.9822064 97.9584665,78.9822064 C97.9584665,78.9822064 97.9584665,78.9822064 97.9584665,78.9822064 C97.9584665,78.9822064 97.9584665,78.9822064 97.9584665,78.9822064 C97.9584665,78.9822064 97.9584665,78.9822064 98.2476038,78.9822064 C98.5367412,78.9822064 98.8258786,79.2704626 99.115016,79.2704626 C99.115016,79.2704626 99.115016,79.2704626 99.115016,79.2704626 C99.115016,79.2704626 99.4041534,79.2704626 99.4041534,79.2704626 C99.4041534,79.2704626 99.6932907,79.2704626 99.6932907,79.2704626 C99.9824281,79.2704626 100.560703,79.5587189 100.84984,79.5587189 C101.428115,79.8469751 102.00639,79.8469751 102.584665,80.1352313 C102.873802,80.1352313 103.162939,80.4234875 103.741214,80.4234875 C103.741214,80.4234875 103.741214,80.4234875 103.741214,80.4234875 C104.030351,80.4234875 104.608626,80.7117438 104.897764,80.7117438 C105.186901,80.7117438 105.186901,80.7117438 105.476038,80.7117438 C106.054313,81 106.632588,81 107.5,81 C107.789137,81 108.078275,81 108.078275,81 C108.078275,81 108.078275,81 108.078275,81 C108.078275,81 108.078275,81 108.078275,81 C108.078275,81 108.078275,81 108.078275,81 C108.078275,81 108.078275,81 108.367412,81 C108.367412,81 108.367412,81 108.367412,81 C108.367412,81 108.367412,81 108.367412,81 C108.367412,81 108.367412,81 108.367412,81 C108.945687,81 109.813099,80.7117438 110.391374,80.7117438 C110.969649,80.4234875 111.837061,80.4234875 112.415335,80.1352313 C112.99361,80.1352313 113.282748,79.8469751 113.861022,79.8469751 C113.861022,79.8469751 114.15016,79.8469751 114.15016,79.8469751 C114.439297,79.8469751 114.728435,79.8469751 114.728435,79.5587189 C115.017572,79.5587189 115.595847,79.2704626 115.884984,79.2704626 C116.174121,79.2704626 116.463259,78.9822064 117.041534,78.9822064 C117.619808,78.6939502 118.48722,78.405694 119.065495,78.405694 C119.065495,78.405694 119.065495,78.405694 119.065495,78.405694 C120.222045,78.1174377 121.378594,77.5409253 122.535144,77.252669 C122.824281,77.252669 123.113419,76.9644128 123.691693,76.6761566 C123.691693,76.6761566 123.691693,76.6761566 123.691693,76.6761566 C123.691693,76.6761566 123.980831,76.6761566 123.980831,76.3879004 C124.848243,76.0996441 125.715655,75.5231317 126.872204,75.2348754 C127.450479,74.9466192 128.028754,74.658363 128.607029,74.3701068 C129.185304,74.0818505 129.763578,73.7935943 130.341853,73.5053381 C130.63099,73.2170819 130.920128,73.2170819 131.498403,72.9288256 C131.78754,72.6405694 132.076677,72.6405694 132.365815,72.3523132 C132.654952,72.3523132 132.654952,72.0640569 132.944089,72.0640569 C133.233227,71.7758007 133.811502,71.4875445 134.100639,71.1992883 C134.100639,71.1992883 134.100639,71.1992883 134.100639,71.1992883 C134.389776,70.911032 134.678914,70.911032 134.968051,70.6227758 C135.546326,70.3345196 135.835463,70.0462633 136.413738,69.7580071 C137.570288,69.1814947 138.726837,68.316726 139.594249,67.7402135 C139.883387,67.4519573 140.461661,67.1637011 140.750799,66.8754448 C140.750799,66.8754448 140.750799,66.8754448 140.750799,66.8754448 C141.329073,66.2989324 141.907348,66.0106762 142.485623,65.4341637 C142.485623,65.4341637 142.485623,65.4341637 142.485623,65.4341637 C142.485623,65.4341637 142.77476,65.4341637 142.77476,65.1459075 C143.063898,64.8576512 143.353035,64.569395 143.642173,64.2811388 C143.642173,64.2811388 143.642173,64.2811388 143.642173,64.2811388 C144.220447,63.7046263 144.798722,63.1281139 145.376997,62.8398577 C145.666134,62.5516014 145.955272,62.2633452 146.244409,61.975089 C146.244409,61.975089 146.244409,61.975089 146.533546,61.6868327 C146.822684,61.3985765 147.400958,61.1103203 147.690096,60.5338078 C147.979233,60.2455516 148.268371,59.9572954 148.557508,59.6690391 C148.846645,59.3807829 149.42492,59.0925267 149.714058,58.5160142 C150.003195,58.227758 150.292332,57.9395018 150.58147,57.6512456 C150.58147,57.6512456 150.58147,57.6512456 150.58147,57.6512456 C150.870607,57.3629893 150.870607,57.3629893 151.159744,57.0747331 C151.159744,57.0747331 151.448882,56.7864769 151.448882,56.4982206 C151.738019,56.2099644 152.027157,55.9217082 152.027157,55.9217082 C152.316294,55.633452 152.316294,55.633452 152.605431,55.3451957 C152.605431,55.3451957 152.605431,55.0569395 152.894569,55.0569395 C154.629393,53.0391459 156.364217,51.0213523 157.809904,49.0035587 C160.990415,44.6797153 163.881789,40.0676157 166.194888,34.8790036 C166.484026,34.3024911 166.773163,33.7259786 167.0623,33.1494662 C167.351438,32.86121 167.351438,32.5729537 167.640575,32.2846975 C167.929712,31.7081851 168.21885,31.4199288 168.21885,31.1316726 C168.507987,30.8434164 168.797125,30.2669039 168.797125,29.9786477 C169.086262,29.4021352 169.375399,29.113879 169.664537,28.5373665 C169.664537,28.5373665 169.664537,28.5373665 169.664537,28.2491103 C171.399361,25.0782918 173.423323,22.1957295 175.447284,19.6014235 C175.447284,19.3131673 175.736422,19.3131673 175.736422,19.024911 C175.736422,19.024911 175.736422,19.024911 175.736422,19.024911 C175.736422,19.024911 175.736422,18.7366548 176.025559,18.7366548 C176.314696,18.4483986 176.603834,18.1601423 176.892971,17.8718861 C176.892971,17.8718861 176.892971,17.8718861 177.182109,17.5836299 C177.182109,17.5836299 177.182109,17.5836299 177.182109,17.5836299 C177.182109,17.5836299 177.182109,17.5836299 177.182109,17.5836299 C177.182109,17.2953737 177.471246,17.2953737 177.471246,17.0071174 C177.760383,16.7188612 178.049521,16.1423488 178.627796,15.8540925 C178.627796,15.8540925 178.916933,15.5658363 178.916933,15.5658363 C178.916933,15.5658363 178.916933,15.5658363 178.916933,15.5658363 C179.495208,14.9893238 179.784345,14.7010676 180.36262,14.1245552 C180.36262,14.1245552 180.651757,13.8362989 180.651757,13.8362989 C180.940895,13.5480427 181.230032,13.2597865 181.519169,12.9715302 C181.519169,12.9715302 181.808307,12.683274 181.808307,12.683274 C182.097444,12.3950178 182.097444,12.3950178 182.386581,12.1067616 L182.964856,11.5302491 C182.964856,11.5302491 182.964856,11.5302491 182.964856,11.5302491 C183.253994,11.2419929 183.543131,10.9537367 183.832268,10.6654804 C183.832268,10.6654804 184.121406,10.3772242 184.121406,10.3772242 C184.121406,10.3772242 184.410543,10.088968 184.410543,10.088968 C184.699681,9.80071174 184.699681,9.80071174 184.988818,9.51245552 C185.277955,9.22419929 185.277955,9.22419929 185.567093,8.93594306 C186.145367,8.3594306 186.723642,7.78291815 187.591054,7.20640569 C188.169329,6.91814947 188.458466,6.34163701 189.036741,6.05338078 C189.036741,6.05338078 189.325879,5.76512456 189.615016,5.76512456 C189.615016,5.76512456 189.904153,5.47686833 190.193291,5.47686833 C190.482428,5.1886121 190.771565,5.1886121 191.060703,4.90035587 C191.34984,4.61209964 191.638978,4.32384342 192.217252,4.03558719 C192.795527,3.74733096 193.373802,3.17081851 193.952077,2.88256228 C194.241214,2.59430605 194.530351,2.59430605 194.819489,2.30604982 C194.819489,2.30604982 195.108626,2.01779359 195.108626,2.01779359 C195.397764,1.72953737 195.976038,1.44128114 196.265176,1.15302491 L196.554313,0.864768683 C196.84345,0.576512456 197.421725,0.288256228 197.710863,0 L198,0.576512456 Z" id="Path" fill="#F79520"></path>
            <path d="M180,294.577586 C179.13,296.021552 177.97,297.465517 177.1,298.909483 C171.59,306.418103 165.79,313.637931 159.12,320.568966 C154.48,325.478448 149.55,330.099138 144.62,334.719828 C144.33,335.008621 144.04,335.297414 143.75,335.586207 C141.14,337.607759 138.82,339.918103 136.21,341.939655 C129.25,347.426724 122.29,352.336207 114.75,356.956897 C113.88,357.534483 113.3,357.823276 112.43,358.400862 C110.98,359.267241 109.53,360.133621 108.08,361 C107.21,360.711207 106.63,360.133621 105.76,359.844828 C105.18,359.556034 104.31,358.978448 103.73,358.689655 C95.32,353.780172 87.2,348.293103 79.66,342.228448 C77.05,340.206897 74.44,338.185345 72.12,335.875 C71.83,335.586207 71.54,335.297414 71.25,335.008621 C66.03,330.387931 61.1,325.767241 56.46,320.857759 C48.63,312.482759 41.38,303.530172 35,294 C35.29,294.288793 35.29,294.577586 35.58,294.577586 C35.87,294.866379 36.16,295.155172 36.45,295.443966 C37.03,296.021552 37.32,296.310345 37.9,296.887931 C38.19,297.176724 38.77,297.75431 39.06,298.043103 C39.64,298.62069 40.22,299.198276 40.51,299.487069 C40.8,299.775862 41.09,300.064655 41.38,300.064655 C41.96,300.642241 42.25,300.931034 42.83,301.508621 C43.12,301.797414 43.41,302.086207 43.7,302.375 C43.99,302.663793 44.28,302.663793 44.28,302.952586 C44.86,303.530172 45.44,304.107759 46.31,304.685345 C46.6,304.685345 46.6,304.974138 46.89,305.262931 C47.47,305.840517 48.05,306.12931 48.63,306.706897 C48.63,306.706897 48.92,306.706897 48.92,306.99569 C49.21,307.284483 49.79,307.573276 50.08,307.862069 C50.37,308.150862 50.95,308.439655 51.24,308.728448 C51.82,309.017241 52.11,309.594828 52.69,309.883621 C52.69,309.883621 52.69,309.883621 52.69,309.883621 C52.98,310.172414 53.56,310.461207 53.85,310.75 C53.85,310.75 53.85,310.75 53.85,310.75 C53.85,310.75 54.14,310.75 54.14,311.038793 C54.43,311.327586 54.72,311.616379 55.01,311.616379 C55.01,311.616379 55.01,311.616379 55.01,311.616379 C55.3,311.905172 55.88,312.193966 56.17,312.482759 C56.75,312.771552 57.04,313.060345 57.62,313.349138 C57.91,313.637931 58.2,313.637931 58.2,313.926724 C58.2,313.926724 58.49,314.215517 58.49,314.215517 C58.78,314.50431 59.07,314.50431 59.36,314.793103 C59.36,314.793103 59.65,314.793103 59.65,315.081897 C59.65,315.081897 59.94,315.081897 59.94,315.37069 C59.94,315.37069 60.23,315.37069 60.23,315.659483 C60.23,315.659483 60.52,315.948276 60.52,315.948276 C60.81,316.237069 61.39,316.525862 61.68,316.814655 C61.97,317.103448 62.26,317.103448 62.55,317.392241 C62.55,317.392241 62.84,317.392241 62.84,317.681034 C63.13,317.681034 63.42,317.969828 63.42,317.969828 C63.42,317.969828 63.42,317.969828 63.71,317.969828 C63.71,317.969828 63.71,317.969828 64,317.969828 C64,317.969828 64,317.969828 64,317.969828 C64,317.969828 64,317.969828 64,317.969828 C64.29,318.258621 64.87,318.547414 65.16,318.836207 C66.03,319.413793 66.9,319.702586 67.48,320.280172 C67.48,320.280172 67.77,320.568966 67.77,320.568966 C68.06,320.857759 68.35,320.857759 68.93,321.146552 C69.22,321.435345 69.51,321.435345 69.8,321.724138 C69.8,321.724138 69.8,321.724138 69.8,321.724138 C70.38,322.012931 71.25,322.301724 71.83,322.87931 L72.41,323.168103 C72.41,323.168103 72.41,323.168103 72.41,323.168103 C72.99,323.456897 73.57,323.74569 74.15,324.034483 C74.15,324.034483 74.15,324.034483 74.44,324.034483 C74.73,324.034483 75.02,324.323276 75.31,324.323276 C75.6,324.612069 75.89,324.612069 76.47,324.900862 C76.47,324.900862 76.76,324.900862 76.76,325.189655 C77.34,325.478448 77.92,325.767241 78.5,326.056034 C79.95,326.633621 81.69,327.211207 83.14,328.077586 C83.43,328.077586 83.72,328.366379 84.3,328.366379 C84.59,328.655172 85.17,328.655172 85.46,328.943966 C85.75,329.232759 86.33,329.232759 86.62,329.521552 C86.91,329.521552 87.2,329.810345 87.49,329.810345 C88.94,330.387931 90.39,330.676724 91.55,331.25431 C92.42,331.543103 93,331.831897 93.87,331.831897 C94.74,332.12069 95.32,332.409483 96.19,332.409483 L96.77,332.409483 C97.06,332.409483 97.06,332.409483 97.35,332.698276 C98.51,332.987069 99.96,333.275862 101.41,333.564655 C101.7,333.564655 102.28,333.853448 102.57,333.853448 C102.86,333.853448 102.86,333.853448 103.15,333.853448 C103.44,333.853448 103.73,333.853448 104.02,334.142241 C104.31,334.142241 104.31,334.142241 104.6,334.142241 C104.6,334.142241 104.6,334.142241 104.6,334.142241 C104.6,334.142241 104.89,334.142241 104.89,334.142241 C105.76,334.431034 106.34,334.431034 107.21,334.431034 C107.5,334.431034 108.08,334.142241 108.37,334.142241 C108.66,334.142241 108.95,334.142241 109.53,333.853448 C109.53,333.853448 109.82,333.853448 109.82,333.853448 C110.11,333.853448 110.11,333.853448 110.4,333.853448 C110.4,333.853448 110.69,333.853448 110.69,333.853448 C110.98,333.853448 111.27,333.853448 111.56,333.564655 C113.3,333.275862 115.04,332.698276 116.78,332.409483 C117.36,332.409483 117.65,332.12069 118.23,332.12069 C118.81,332.12069 119.1,331.831897 119.68,331.831897 C119.97,331.831897 120.26,331.831897 120.26,331.543103 C120.84,331.25431 121.42,331.25431 122,330.965517 C122.87,330.676724 123.74,330.387931 124.61,330.099138 C125.19,329.810345 125.48,329.810345 126.06,329.521552 C126.35,329.521552 126.64,329.232759 127.22,329.232759 C127.51,329.232759 127.51,329.232759 127.8,328.943966 C127.8,328.943966 128.09,328.943966 128.09,328.943966 C128.38,328.943966 128.67,328.655172 128.96,328.655172 C130.12,328.366379 131.28,327.788793 132.44,327.5 C133.31,327.211207 134.18,326.922414 135.05,326.344828 C135.63,326.056034 136.21,325.767241 136.79,325.767241 C137.37,325.478448 137.66,325.189655 138.24,325.189655 C138.53,325.189655 138.82,324.900862 139.11,324.900862 C139.4,324.900862 139.4,324.612069 139.69,324.612069 C139.98,324.612069 140.27,324.323276 140.56,324.323276 C140.56,324.323276 140.85,324.323276 140.85,324.323276 C140.85,324.323276 140.85,324.323276 140.85,324.323276 C140.85,324.323276 140.85,324.323276 141.14,324.323276 C141.43,324.034483 142.01,324.034483 142.3,323.74569 C142.3,323.74569 142.59,323.74569 142.59,323.74569 C142.59,323.74569 142.88,323.74569 142.88,323.456897 C143.17,323.456897 143.46,323.168103 143.46,323.168103 C143.46,323.168103 143.46,323.168103 143.46,323.168103 C143.75,323.168103 143.75,323.168103 144.04,322.87931 C144.33,322.590517 144.91,322.590517 145.2,322.301724 C145.49,322.301724 145.49,322.012931 145.78,322.012931 C146.36,321.724138 146.65,321.435345 147.23,321.146552 C147.23,321.146552 147.23,321.146552 147.52,321.146552 C147.81,321.146552 148.1,320.857759 148.39,320.857759 C148.97,320.568966 149.26,320.280172 149.84,319.991379 C149.84,319.991379 149.84,319.991379 149.84,319.991379 C150.42,319.702586 151,319.413793 151.58,319.125 C151.58,319.125 151.58,319.125 151.58,319.125 C152.16,318.836207 153.03,318.258621 153.61,317.969828 C153.61,317.969828 153.61,317.969828 153.61,317.969828 C154.19,317.681034 154.77,317.103448 155.64,316.814655 C155.64,316.814655 155.64,316.814655 155.64,316.814655 C156.22,316.525862 156.8,315.948276 157.38,315.659483 C157.38,315.659483 157.38,315.659483 157.67,315.659483 C158.83,314.793103 160.28,313.926724 161.44,313.060345 C161.44,313.060345 161.44,313.060345 161.44,313.060345 C162.02,312.482759 162.6,312.193966 163.18,311.616379 C163.18,311.616379 163.18,311.616379 163.18,311.616379 C163.76,311.038793 164.34,310.75 164.92,310.172414 C165.5,309.594828 166.08,309.306034 166.66,308.728448 C166.95,308.439655 167.24,308.150862 167.53,308.150862 C169.27,306.99569 170.72,305.551724 172.17,304.107759 C173.33,302.952586 174.49,302.086207 175.65,300.931034 C176.23,300.353448 176.52,300.064655 177.1,299.487069 C177.39,299.198276 177.97,298.62069 178.26,298.331897 C178.26,298.331897 178.26,298.331897 178.55,298.043103 C178.55,298.043103 178.55,298.043103 178.55,298.043103 C178.84,297.75431 179.13,297.465517 179.42,297.176724 C179.71,294.866379 179.71,294.577586 180,294.577586 Z" id="Path" fill="#F79520"></path>
            <path d="M97,155.825743 C63.5119048,184.736634 38.6845238,223.766337 27.1369048,268 C26.2708333,266.843564 25.1160714,265.39802 24.25,263.952475 C21.6517857,259.90495 19.0535714,255.857426 16.7440476,251.520792 C6.63988095,233.306931 0.866071429,212.491089 0,190.229703 C0,188.784158 0,187.049505 0,185.60396 C0,162.764356 5.48511905,141.081188 15.5892857,122 C39.8392857,126.625743 62.3571429,135.29901 83.1428571,147.152475 C84.297619,147.730693 85.452381,148.59802 86.6071429,149.176238 C88.9166667,150.621782 91.514881,152.067327 93.8244048,153.80198 C94.9791667,154.380198 96.1339286,154.958416 97,155.825743 Z" id="Path" fill="#F79520"></path>
            <path d="M182.78481,28.5443787 L182.205696,29.4142012 C183.363924,31.443787 184.522152,33.7633136 185.390823,36.0828402 C186.549051,38.6923077 187.996835,41.591716 188.865506,44.4911243 C188.865506,44.4911243 188.865506,44.4911243 188.865506,44.4911243 C191.471519,51.4497041 193.787975,58.408284 195.235759,65.9467456 C196.10443,70.0059172 196.683544,74.0650888 196.973101,78.4142012 C197.262658,82.4733728 197.552215,86.5325444 197.552215,90.591716 C197.552215,91.1715976 197.552215,91.4615385 197.552215,92.0414201 C197.552215,93.4911243 197.552215,94.9408284 197.552215,96.1005917 C197.552215,96.1005917 197.552215,96.3905325 197.552215,96.3905325 C197.552215,99.2899408 197.262658,101.899408 196.973101,104.798817 C196.973101,105.088757 196.973101,105.378698 196.973101,105.668639 C196.973101,106.248521 196.973101,106.538462 196.683544,107.118343 C194.946203,107.408284 192.919304,107.988166 191.181962,108.278107 C167.148734,113.786982 144.852848,123.35503 124.583861,136.112426 C124.583861,136.112426 124.583861,136.112426 124.583861,136.112426 C122.267405,137.56213 120.240506,139.011834 118.213608,140.461538 C114.738924,142.781065 110.974684,145.390533 107.789557,148 C104.314873,145.390533 100.84019,142.781065 97.0759494,140.461538 C94.7594937,139.011834 92.7325949,137.56213 90.4161392,136.112426 C70.1471519,123.35503 47.8512658,114.076923 23.818038,108.278107 C22.0806962,107.698225 20.0537975,107.408284 18.3164557,107.118343 C18.3164557,106.828402 18.3164557,106.828402 18.3164557,106.538462 C18.3164557,106.248521 18.3164557,105.95858 18.3164557,105.668639 C18.3164557,105.378698 18.3164557,105.088757 18.3164557,104.798817 C18.0268987,102.189349 17.7373418,99.2899408 17.7373418,96.6804734 C17.7373418,96.6804734 17.7373418,96.3905325 17.7373418,96.3905325 C17.7373418,94.9408284 17.7373418,93.7810651 17.7373418,92.3313609 C17.7373418,91.7514793 17.7373418,91.1715976 17.7373418,90.8816568 C17.7373418,87.6923077 18.0268987,84.5029586 18.0268987,81.6035503 C18.0268987,80.7337278 18.0268987,79.8639053 18.3164557,78.9940828 C18.6060127,77.5443787 18.6060127,75.8047337 18.8955696,74.3550296 C18.8955696,74.0650888 18.8955696,73.7751479 18.8955696,73.7751479 C18.8955696,73.7751479 18.8955696,73.7751479 18.8955696,73.7751479 C19.1851266,71.4556213 19.4746835,69.4260355 20.0537975,67.1065089 C20.3433544,65.0769231 20.9224684,63.0473373 21.2120253,61.3076923 C21.7911392,58.9881657 22.3702532,56.9585799 22.9493671,54.6390533 C24.6867089,48.5502959 27.0031646,42.4615385 29.8987342,36.9526627 C30.4778481,35.7928994 31.056962,34.6331361 31.6360759,33.4733728 C31.6360759,33.4733728 31.6360759,33.4733728 31.6360759,33.4733728 C32.2151899,32.3136095 32.7943038,31.443787 33.3734177,30.5739645 C26.4240506,21.5857988 20.6329114,11.7278107 16,1.28994083 C16.8686709,1.57988166 17.4477848,1.86982249 18.3164557,2.15976331 C18.8955696,2.44970414 19.4746835,2.73964497 20.0537975,3.31952663 C27.2927215,8.24852071 33.6629747,14.3372781 38.875,21.0059172 C40.9018987,23.9053254 42.9287975,26.5147929 44.6661392,29.704142 C44.6661392,29.704142 44.6661392,29.704142 44.6661392,29.704142 C44.6661392,29.704142 44.6661392,29.704142 44.6661392,29.704142 C44.6661392,29.704142 44.6661392,29.704142 44.6661392,29.704142 C44.6661392,29.704142 44.6661392,29.704142 44.6661392,29.704142 C44.6661392,29.704142 44.6661392,29.704142 44.6661392,29.9940828 C44.3765823,30.5739645 44.0870253,30.8639053 43.7974684,31.443787 C43.5079114,31.7337278 43.5079114,32.0236686 43.2183544,32.3136095 C42.6392405,33.7633136 41.7705696,35.2130178 41.1914557,36.6627219 C40.9018987,36.9526627 40.9018987,37.2426036 40.9018987,37.5325444 C40.9018987,37.8224852 40.6123418,38.112426 40.6123418,38.4023669 C40.6123418,38.4023669 40.6123418,38.6923077 40.6123418,38.6923077 C40.6123418,38.6923077 40.6123418,38.6923077 40.6123418,38.6923077 C40.6123418,38.6923077 40.6123418,38.9822485 40.6123418,38.9822485 C40.3227848,39.852071 40.0332278,40.4319527 39.7436709,41.3017751 C39.4541139,41.8816568 39.164557,42.4615385 39.164557,43.3313609 C38.875,43.9112426 38.875,44.4911243 38.585443,44.7810651 C38.0063291,46.2307692 37.7167722,47.9704142 37.1376582,49.4201183 C37.1376582,49.7100592 37.1376582,50 36.8481013,50 C36.5585443,51.4497041 36.2689873,52.6094675 35.9794304,54.0591716 C35.9794304,54.0591716 35.9794304,54.3491124 35.9794304,54.6390533 C35.9794304,54.9289941 35.6898734,55.5088757 35.6898734,55.7988166 C35.6898734,55.7988166 35.6898734,55.7988166 35.6898734,55.7988166 C35.6898734,56.3786982 35.4003165,57.2485207 35.4003165,57.8284024 C35.4003165,58.1183432 35.4003165,58.408284 35.4003165,58.408284 C35.1107595,59.8579882 34.8212025,61.3076923 34.8212025,62.7573964 C34.8212025,63.0473373 34.8212025,63.3372781 34.8212025,63.6272189 C34.8212025,63.6272189 34.8212025,63.9171598 34.8212025,63.9171598 C34.8212025,63.9171598 34.8212025,64.2071006 34.8212025,64.2071006 C34.8212025,64.4970414 34.8212025,64.7869822 34.8212025,64.7869822 C34.8212025,65.0769231 34.8212025,65.3668639 34.8212025,65.3668639 C34.8212025,65.3668639 34.8212025,65.6568047 34.8212025,65.6568047 C34.8212025,65.6568047 34.8212025,65.9467456 34.8212025,65.9467456 C34.8212025,65.9467456 34.8212025,66.2366864 34.8212025,66.2366864 C34.8212025,66.2366864 34.8212025,66.5266272 34.8212025,66.5266272 C34.8212025,66.816568 34.8212025,67.3964497 34.8212025,67.6863905 C34.8212025,67.9763314 34.8212025,67.9763314 34.8212025,68.2662722 C34.8212025,68.556213 34.8212025,68.8461538 34.8212025,68.8461538 C34.8212025,69.1360947 34.8212025,69.4260355 34.8212025,69.4260355 C34.8212025,69.7159763 34.8212025,70.295858 34.8212025,70.5857988 C34.8212025,71.1656805 34.8212025,71.7455621 34.8212025,72.035503 C34.8212025,72.6153846 34.8212025,73.4852071 34.8212025,74.0650888 C34.8212025,74.6449704 34.8212025,75.2248521 34.8212025,75.8047337 C34.8212025,76.3846154 34.8212025,76.964497 34.8212025,77.5443787 C34.8212025,78.9940828 34.8212025,80.1538462 35.1107595,81.6035503 C35.1107595,82.183432 35.1107595,82.4733728 35.1107595,83.0532544 C35.1107595,83.3431953 35.1107595,83.9230769 35.1107595,84.2130178 C35.1107595,84.7928994 35.1107595,85.3727811 35.4003165,85.9526627 C35.4003165,86.5325444 35.6898734,87.112426 35.6898734,87.6923077 C35.6898734,87.6923077 35.6898734,87.6923077 35.6898734,87.9822485 C35.6898734,88.5621302 35.9794304,89.1420118 35.9794304,89.7218935 C35.9794304,90.3017751 36.2689873,90.8816568 36.2689873,91.7514793 C36.2689873,92.3313609 36.5585443,92.9112426 36.5585443,93.7810651 C36.5585443,94.0710059 36.5585443,94.3609467 36.8481013,94.9408284 C36.8481013,94.9408284 36.8481013,94.9408284 37.1376582,94.9408284 C51.6155063,99.2899408 65.2246835,104.798817 78.2547468,111.757396 C78.8338608,112.047337 79.1234177,112.337278 79.7025316,112.627219 C90.1265823,118.136095 99.971519,124.514793 108.947785,131.473373 C118.503165,124.224852 128.927215,117.556213 139.640823,111.757396 C139.93038,111.467456 140.509494,111.177515 140.799051,111.177515 C152.960443,104.798817 165.700949,99.5798817 179.310127,95.5207101 C179.310127,95.5207101 179.599684,95.5207101 179.599684,95.5207101 C179.599684,94.9408284 179.889241,94.3609467 179.889241,94.0710059 C179.889241,93.7810651 180.178797,93.2011834 180.178797,92.9112426 C181.047468,88.2721893 181.916139,83.6331361 181.916139,78.704142 C181.916139,78.4142012 181.916139,78.1242604 181.916139,78.1242604 C181.916139,77.8343195 181.916139,77.5443787 181.916139,77.5443787 C181.916139,76.964497 181.916139,76.6745562 181.916139,76.0946746 C181.916139,75.2248521 181.916139,74.3550296 181.916139,73.1952663 C181.916139,72.9053254 181.916139,72.9053254 181.916139,72.6153846 C181.916139,72.035503 181.916139,71.7455621 181.916139,71.1656805 C181.916139,70.8757396 181.916139,70.5857988 181.916139,70.5857988 C181.916139,70.295858 181.916139,70.295858 181.916139,70.0059172 C181.916139,69.7159763 181.916139,69.4260355 181.916139,69.1360947 C181.916139,68.8461538 181.916139,68.556213 181.916139,68.2662722 C181.916139,67.9763314 181.916139,67.6863905 181.916139,67.1065089 C181.916139,66.816568 181.916139,66.816568 181.916139,66.5266272 C181.916139,66.5266272 181.916139,66.2366864 181.916139,66.2366864 C181.916139,66.2366864 181.916139,65.9467456 181.916139,65.9467456 C181.916139,65.6568047 181.916139,65.3668639 181.916139,65.0769231 C181.916139,64.7869822 181.916139,64.4970414 181.916139,64.2071006 C181.916139,63.9171598 181.916139,63.9171598 181.916139,63.6272189 C181.916139,63.3372781 181.916139,63.3372781 181.916139,63.0473373 C181.916139,63.0473373 181.916139,63.0473373 181.916139,63.0473373 C181.916139,62.7573964 181.916139,62.4674556 181.916139,62.1775148 C181.916139,61.5976331 181.916139,61.3076923 181.626582,60.7278107 C181.626582,60.7278107 181.626582,60.4378698 181.626582,60.4378698 C181.626582,60.4378698 181.626582,60.147929 181.626582,60.147929 C181.626582,59.5680473 181.337025,58.9881657 181.337025,58.408284 C181.337025,58.1183432 181.337025,57.8284024 181.337025,57.5384615 C181.337025,57.2485207 181.337025,56.9585799 181.047468,56.6686391 C181.047468,56.3786982 181.047468,56.0887574 180.757911,55.7988166 C180.757911,55.7988166 180.757911,55.5088757 180.757911,55.5088757 C180.757911,55.5088757 180.757911,55.2189349 180.757911,55.2189349 C180.757911,54.9289941 180.468354,54.3491124 180.468354,54.0591716 C180.468354,53.7692308 180.178797,53.1893491 180.178797,52.8994083 C180.178797,52.6094675 179.889241,52.0295858 179.889241,51.739645 C179.889241,51.739645 179.889241,51.739645 179.889241,51.739645 C179.889241,51.4497041 179.889241,51.1597633 179.599684,50.8698225 C179.599684,50.5798817 179.599684,50.5798817 179.599684,50.2899408 C179.599684,50 179.599684,50 179.599684,49.7100592 C179.599684,49.4201183 179.310127,49.1301775 179.310127,48.8402367 C179.310127,48.8402367 179.310127,48.5502959 179.310127,48.5502959 C179.310127,48.5502959 179.310127,48.5502959 179.310127,48.5502959 C179.310127,48.5502959 179.310127,48.5502959 179.310127,48.5502959 C179.310127,48.260355 179.02057,47.9704142 179.02057,47.6804734 C179.02057,47.3905325 178.731013,46.8106509 178.731013,46.5207101 C178.731013,46.2307692 178.731013,45.9408284 178.441456,45.9408284 C178.441456,45.6508876 178.151899,45.3609467 178.151899,45.0710059 C178.151899,44.7810651 177.862342,44.4911243 177.862342,44.2011834 C177.862342,43.9112426 177.862342,43.9112426 177.572785,43.6213018 C177.572785,43.3313609 177.283228,43.0414201 177.283228,42.4615385 L175.835443,40.7218935 C175.835443,40.7218935 175.835443,40.4319527 175.545886,40.4319527 C175.545886,40.4319527 175.545886,40.1420118 175.545886,40.1420118 C175.545886,40.1420118 175.545886,39.852071 175.545886,39.852071 C175.545886,39.852071 175.545886,39.852071 175.545886,39.852071 C175.545886,39.852071 175.545886,39.852071 175.545886,39.852071 C175.545886,39.852071 175.545886,39.852071 175.545886,39.852071 C175.545886,39.5621302 175.256329,39.2721893 175.256329,38.9822485 C175.256329,38.6923077 174.966772,38.4023669 174.966772,38.112426 C174.677215,37.2426036 174.387658,36.3727811 174.098101,35.7928994 C173.808544,34.9230769 173.518987,34.3431953 172.939873,33.4733728 C172.939873,33.4733728 172.939873,33.183432 172.650316,33.183432 C172.650316,32.8934911 172.360759,32.8934911 172.360759,32.6035503 C172.360759,32.3136095 172.071203,32.0236686 172.071203,31.7337278 C171.781646,31.443787 171.781646,31.1538462 171.492089,30.8639053 C171.492089,30.5739645 171.202532,30.5739645 171.202532,30.2840237 C171.202532,30.2840237 171.202532,29.9940828 170.912975,29.9940828 C170.912975,29.704142 170.623418,29.704142 170.623418,29.4142012 C172.360759,26.5147929 174.387658,23.6153846 176.414557,20.7159763 C176.414557,20.4260355 176.704114,20.4260355 176.704114,20.1360947 C176.704114,20.1360947 176.704114,20.1360947 176.704114,20.1360947 C176.704114,20.1360947 176.704114,19.8461538 176.993671,19.8461538 C177.283228,19.556213 177.572785,18.9763314 177.862342,18.6863905 C177.862342,18.6863905 177.862342,18.6863905 177.862342,18.6863905 C177.862342,18.6863905 177.862342,18.6863905 177.862342,18.6863905 C177.862342,18.3964497 178.151899,18.3964497 178.151899,18.1065089 C178.441456,17.816568 178.731013,17.2366864 179.310127,16.9467456 C179.310127,16.9467456 179.599684,16.6568047 179.599684,16.6568047 C179.599684,16.6568047 179.599684,16.6568047 179.599684,16.6568047 C180.178797,16.0769231 180.468354,15.7869822 181.047468,15.2071006 C181.047468,15.2071006 181.337025,14.9171598 181.337025,14.9171598 C181.626582,14.6272189 181.916139,14.3372781 182.205696,14.0473373 C182.205696,14.0473373 182.495253,13.7573964 182.495253,13.7573964 C182.495253,13.4674556 182.78481,13.4674556 182.78481,13.1775148 L183.363924,12.5976331 C183.363924,12.5976331 183.363924,12.5976331 183.363924,12.5976331 C183.653481,12.3076923 183.943038,12.0177515 184.232595,11.7278107 C184.232595,11.7278107 184.522152,11.4378698 184.522152,11.4378698 C184.522152,11.4378698 184.811709,11.147929 184.811709,11.147929 C185.101266,10.8579882 185.101266,10.8579882 185.390823,10.5680473 C185.68038,10.2781065 185.68038,10.2781065 185.969937,9.98816568 C186.549051,9.40828402 187.128165,8.82840237 187.996835,8.24852071 C188.575949,7.95857988 188.865506,7.37869822 189.44462,7.0887574 C189.44462,7.0887574 189.734177,6.79881657 190.023734,6.79881657 C190.023734,6.79881657 190.313291,6.50887574 190.602848,6.50887574 C190.892405,6.21893491 191.181962,6.21893491 191.471519,5.92899408 C191.761076,5.63905325 192.050633,5.34911243 192.629747,5.0591716 C193.208861,4.76923077 193.787975,4.18934911 194.367089,3.89940828 C194.656646,3.60946746 194.946203,3.60946746 195.235759,3.31952663 C195.235759,3.31952663 195.525316,3.0295858 195.525316,3.0295858 C195.814873,2.73964497 196.393987,2.44970414 196.683544,2.15976331 L196.973101,1.86982249 C197.262658,1.57988166 197.841772,1.28994083 198.131329,1 C198.420886,1 198.420886,1 198.710443,1 C198.710443,1 199,1 199,1 C199,1 199,1 199,1.28994083 C198.131329,3.0295858 197.552215,4.76923077 196.683544,6.50887574 C193.208861,13.7573964 189.155063,20.4260355 184.811709,26.8047337 C184.232595,26.8047337 183.653481,27.964497 182.78481,28.5443787 Z" id="Path" fill="#F79520"></path>
            <path d="M118.175627,155 C114.713262,157.309859 110.962366,159.908451 107.5,162.507042 C104.037634,159.908451 100.575269,157.309859 96.8243728,155 C63.3548387,183.873239 38.5412186,222.852113 27,267.028169 C28.1541219,268.471831 29.3082437,269.915493 30.4623656,271.359155 C44.311828,288.394366 62.2007168,301.964789 82.3978495,310.915493 C90.4767025,314.380282 98.844086,316.978873 107.5,319 C116.444444,316.978873 125.388889,314.091549 133.756272,310.338028 C153.664875,301.387324 170.976703,288.105634 184.537634,271.359155 C185.691756,269.915493 186.845878,268.471831 188,267.028169 C185.114695,255.478873 181.075269,244.507042 176.458781,233.823944 C163.18638,203.21831 142.989247,176.366197 118.175627,155" id="Path" fill="#FFDBB5"></path>
            <path d="M216,184.893069 C216,187.784158 216,190.964356 215.709199,193.855446 C214.255193,214.671287 208.439169,234.041584 198.551929,251.388119 C196.225519,255.435644 193.89911,259.194059 191.281899,262.952475 C190.409496,264.39802 189.537092,265.554455 188.373887,267 C185.465875,255.435644 181.394659,244.449505 176.74184,233.752475 C163.364985,203.39604 143.008902,176.508911 118,154.825743 C118.872404,154.247525 120.035608,153.669307 120.908012,152.80198 C123.525223,151.067327 125.851632,149.621782 128.468843,148.176238 C136.320475,143.550495 144.462908,139.50297 152.896142,135.744554 C152.896142,135.744554 152.896142,135.744554 152.896142,135.744554 C155.804154,134.29901 159.002967,133.142574 161.910979,131.986139 C162.783383,131.69703 163.364985,131.407921 164.237389,131.118812 C164.237389,131.118812 164.237389,131.118812 164.237389,131.118812 C165.109792,130.829703 166.272997,130.540594 167.145401,129.962376 C168.017804,129.673267 169.181009,129.384158 170.053412,128.805941 C171.216617,128.516832 172.379822,127.938614 173.543027,127.649505 C175.287834,127.071287 177.032641,126.493069 178.486647,126.20396 C182.267062,125.047525 186.338279,123.891089 190.118694,123.023762 C190.991098,122.734653 192.154303,122.445545 193.026706,122.445545 C193.608309,122.445545 193.89911,122.156436 194.480712,122.156436 C195.353116,121.867327 195.934718,121.867327 196.807122,121.578218 C197.970326,121.289109 198.84273,121.289109 200.005935,121 C210.183976,140.370297 216,162.053465 216,184.893069 Z" id="Path" fill="#F79520"></path>
        </g>
    </g>
</svg>