<?xml version="1.0" encoding="UTF-8"?>
<svg width="1022px" height="1022px" viewBox="0 0 1022 1022" version="1.1" xmlns="http://www.w3.org/2000/svg" xmlns:xlink="http://www.w3.org/1999/xlink">
    <!-- Generator: Sketch 58 (84663) - https://sketch.com -->
    <title>Group</title>
    <desc>Created with Sketch.</desc>
    <g id="Page-1" stroke="none" stroke-width="1" fill="none" fill-rule="evenodd">
        <g id="Group" fill="#000000" fill-rule="nonzero">
            <path d="M510.6,0 C228.6,0 0,228.6 0,510.6 C0,792.6 228.6,1021.2 510.6,1021.2 C792.6,1021.2 1021.2,792.6 1021.2,510.6 C1021.2,228.6 792.6,0 510.6,0 Z M502.9,101.4 C539.5,101.4 569.1,131 569.1,167.3 C569.1,203.9 539.5,233.5 502.9,233.5 C466.6,233.5 436.999747,203.9 436.999747,167.3 C436.9,131 466.5,101.4 502.9,101.4 L502.9,101.4 Z M789,314.7 L592.6,339.5 L592.7,536.1 L687.9,853.8 C692.9,873.9 680.9,893.9 661,898.9 C641.2,903.9 620.9,892.9 615.9,872.9 L518.4,583.7 L488.4,583.7 L398.7,878.9 C391.2,898.2 369.7,907 350.5,899.5 C331.4,892.1 319.8,870.4 327.3,851.1 L409.7,539.3 L409.7,339.5 L228.7,314.9 C210.1,313.4 197.5,297.1 199,278.5 C200.4,259.8 217.3,245.9 235.8,247.4 L455.7,266.3 L552.1,266.3 L786.2,247 C804.8,246.3 820.6,260.7 821.2,279.5 C822,298 807.6,313.9 789,314.7 L789,314.7 Z" id="Shape"></path>
        </g>
    </g>
</svg>