<?xml version="1.0" encoding="UTF-8"?>
<svg width="396px" height="377px" viewBox="0 0 396 377" version="1.1" xmlns="http://www.w3.org/2000/svg" xmlns:xlink="http://www.w3.org/1999/xlink">
    <title>builderx-logo</title>
    <g id="Page-1" stroke="none" stroke-width="1" fill="none" fill-rule="evenodd">
        <g id="builderx-logo">
            <path d="M382.054,238.893 L336.256,238.893 L292.463,175.043 L250.007,238.893 L205.212,238.893 L270.399,147.965 L210.561,66.063 L256.693,66.063 L292.797,119.216 L330.573,66.063 L374.7,66.063 L315.864,145.959 L382.054,238.893 Z M160.252,215.994 C154.12,224.352 146.379,231.037 137.018,236.052 C127.658,241.066 116.626,243.574 103.923,243.574 C98.125,243.574 92.275,243.182 86.373,242.403 C80.465,241.62 74.839,240.116 69.491,237.891 C64.142,235.665 59.295,232.766 54.949,229.199 C50.603,225.636 46.978,220.956 44.084,215.158 L43.416,215.158 L43.416,238.893 L7.312,238.893 L7.312,0.206 L45.421,0.206 L45.421,88.46 L46.09,88.46 C48.764,84.23 51.992,80.437 55.785,77.094 C59.572,73.751 63.75,70.91 68.321,68.57 C72.886,66.23 77.681,64.449 82.695,63.221 C87.71,61.999 92.667,61.383 97.571,61.383 C111.163,61.383 123.03,63.78 133.174,68.57 C143.313,73.365 151.727,79.936 158.413,88.293 C165.099,96.651 170.114,106.403 173.457,117.544 C176.8,128.691 178.471,140.611 178.471,153.314 C178.471,164.904 176.967,176.161 173.958,187.078 C170.949,198 166.379,207.637 160.252,215.994 Z M137.353,129.913 C135.347,122.559 132.338,116.04 128.327,110.357 C124.315,104.674 119.301,100.109 113.283,96.651 C107.266,93.198 100.356,91.469 92.557,91.469 C76.511,91.469 64.419,97.042 56.286,108.184 C48.148,119.331 44.084,134.149 44.084,152.645 C44.084,161.337 45.139,169.417 47.26,176.882 C49.375,184.351 52.551,190.755 56.787,196.104 C61.018,201.452 66.09,205.688 71.998,208.807 C77.9,211.93 84.753,213.487 92.557,213.487 C101.249,213.487 108.603,211.706 114.621,208.138 C120.638,204.576 125.595,199.948 129.497,194.265 C133.393,188.582 136.183,182.121 137.854,174.876 C139.526,167.636 140.361,160.224 140.361,152.645 C140.361,144.847 139.358,137.268 137.353,129.913 Z" id="Shape" fill="#000000"></path>
            <polygon id="Path" fill="#23B9D1" points="0.027 335.029 395.973 335.029 395.973 376.955 0.027 376.955"></polygon>
        </g>
    </g>
</svg>