<?xml version="1.0" encoding="UTF-8"?>
<svg width="150px" height="150px" viewBox="0 0 150 150" version="1.1" xmlns="http://www.w3.org/2000/svg" xmlns:xlink="http://www.w3.org/1999/xlink">
    <!-- Generator: Sketch 48.2 (47327) - http://www.bohemiancoding.com/sketch -->
    <title>Page 1</title>
    <desc>Created with Sketch.</desc>
    <defs>
        <polygon id="path-1" points="0 0.0001 149.9997 0.0001 149.9997 150 0 150"></polygon>
    </defs>
    <g id="Artboard" stroke="none" stroke-width="1" fill="none" fill-rule="evenodd">
        <g id="Page-1">
            <g id="Group-3">
                <mask id="mask-2" fill="white">
                    <use xlink:href="#path-1"></use>
                </mask>
                <g id="Clip-2"></g>
                <path d="M74.9997,0.0001 C33.5477,0.0001 -0.0003,33.5471 -0.0003,75.0001 C-0.0003,116.4531 33.5477,150.0001 74.9997,150.0001 C116.4527,150.0001 149.9997,116.4531 149.9997,75.0001 C149.9997,33.5471 116.4527,0.0001 74.9997,0.0001" id="Fill-1" fill="#FF8953" mask="url(#mask-2)"></path>
            </g>
            <path d="M74.9236,80.2574 C72.8776,81.0464 70.6646,81.4954 68.3436,81.4954 C58.2066,81.4954 49.9606,73.2494 49.9606,63.1134 C49.9606,52.9774 58.2066,44.7304 68.3436,44.7304 C70.6646,44.7304 72.8776,45.1804 74.9236,45.9684 L74.9236,35.0364 C72.8086,34.5404 70.6086,34.2704 68.3436,34.2704 C52.4396,34.2704 39.4996,47.2094 39.4996,63.1134 C39.4996,79.0174 52.4396,91.9564 68.3436,91.9564 C70.6086,91.9564 72.8086,91.6854 74.9236,91.1904 L74.9236,80.2574 Z" id="Fill-4" fill="#FFFFFF"></path>
            <path d="M81.657,58.0436 C79.339,58.0436 77.086,58.3266 74.924,58.8456 L74.924,69.7986 C77.011,68.9726 79.279,68.5036 81.657,68.5036 C91.794,68.5036 100.04,76.7506 100.04,86.8866 C100.04,97.0226 91.794,105.2696 81.657,105.2696 C79.279,105.2696 77.011,104.8006 74.924,103.9746 L74.924,114.9276 C77.086,115.4476 79.339,115.7296 81.657,115.7296 C97.561,115.7296 110.5,102.7906 110.5,86.8866 C110.5,70.9826 97.561,58.0436 81.657,58.0436" id="Fill-6" fill="#FFFFFF"></path>
        </g>
    </g>
</svg>