<?xml version="1.0" encoding="UTF-8"?>
<svg width="219px" height="146px" viewBox="0 0 219 146" version="1.1" xmlns="http://www.w3.org/2000/svg" xmlns:xlink="http://www.w3.org/1999/xlink">
    <!-- Generator: Sketch 64 (93537) - https://sketch.com -->
    <title>cloudfour</title>
    <desc>Created with Sketch.</desc>
    <g id="Page-1" stroke="none" stroke-width="1" fill="none" fill-rule="evenodd">
        <g id="cloudfour" fill="#466BD9" fill-rule="nonzero">
            <path d="M61.6304348,101.415017 C53.5406075,96.7170967 47.3662076,89.3226974 44.1913043,80.53009 C44.7914856,77.0727442 46.450277,73.8863871 48.9391304,71.4100345 C53.3217391,66.394004 104.36087,10.9440666 126,1.45920888 C120.326672,0.513978797 114.586431,0.0260030011 108.834783,0 C44.9217391,0 38.8043478,45.6002774 38.8043478,45.6002774 C38.8043478,45.6002774 0,57.4563496 0,92.8421649 C0,143.458473 62.4521739,145.920888 62.4521739,145.920888 C69.0350862,146.142402 75.6254407,145.898592 82.173913,145.191283 C85.7412234,144.408144 88.742954,142.016227 90.3,138.716044 C94.0434783,129.595989 99.4304348,115.0951 104.726087,99.8646076 C84,100.867814 63.9130435,101.87102 61.6304348,101.415017 Z" id="Path"></path>
            <path d="M218.994637,81.8228126 C218.994637,36.9497747 174.928925,32.1060455 174.928925,32.1060455 C170.215148,23.8491728 163.467225,16.9288349 155.323806,12 C151.384459,25.9828408 141.215449,63.2704161 140.665773,70.307532 L156.056707,70.307532 C156.056707,70.307532 158.530251,70.307532 157.888962,73.3234389 C156.423158,80.1777726 152.575425,96.9023468 144.330281,97.4506935 L133.519982,98.0904313 C130.496762,110.428232 127.290318,123.314379 125,132.636273 C132.937182,138.464569 142.638419,141.40016 152.483812,140.952865 C163.815053,141.488894 174.882716,137.435073 183.174069,129.711757 C220.277215,123.497162 218.994637,81.8228126 218.994637,81.8228126 Z" id="Path"></path>
            <path d="M126.449715,26 C110.004161,40.3492116 94.7998226,56.0721685 81,73 L113.880455,71.7198444 C120.620493,52.7003891 126.449715,35.7840467 129,28.3774319 C128.827526,27.0736524 127.757589,26.0762341 126.449715,26 Z" id="Path"></path>
        </g>
    </g>
</svg>