<?xml version="1.0" encoding="UTF-8"?>
<svg width="57px" height="29px" viewBox="0 0 57 29" version="1.1" xmlns="http://www.w3.org/2000/svg" xmlns:xlink="http://www.w3.org/1999/xlink">
    <title>Coursera</title>
    <g id="Page-1" stroke="none" stroke-width="1" fill="none" fill-rule="evenodd">
        <g id="Coursera" fill="#2A73CC" fill-rule="nonzero">
            <path d="M56.9845784,14.0391949 C56.97494,13.8164725 56.9595184,13.5995101 56.9421692,13.3787076 C56.9421692,13.3787076 56.9421692,13.3767876 56.9421692,13.3748676 C56.9421692,13.3748676 56.9421692,13.3729476 56.9421692,13.3710275 C56.7301228,10.9767611 55.9359126,8.7360964 54.5884542,6.71239407 C53.9870135,5.80998411 53.2988266,4.99013506 52.5296765,4.25476695 C51.4058306,3.17763506 50.1046369,2.28674523 48.6376614,1.58209746 C46.4304512,0.531845869 43.9919177,0.00192002119 41.3895301,0.00192002119 C41.1350745,0.00192002119 40.8690526,0.00576006356 40.6011031,0.0153601695 C38.7736487,0.0979210805 37.0059529,0.443524894 35.3442803,1.05217161 C33.6691138,1.65505826 32.209849,2.45186706 31.0166062,3.40803761 C30.7737167,3.60003972 30.5096225,3.83620233 30.2262514,4.09540519 L30.0219158,4.29508739 L29.7424001,4.59077066 L29.7443278,4.59077066 L29.7462555,4.59077066 L29.6151723,4.71941208 L29.5515584,4.78853284 L29.2180672,5.13797669 C28.9713223,5.41445975 28.7361436,5.6909428 28.5163864,5.96166578 L28.5144587,5.95782574 L28.506748,5.95014566 C28.0498844,6.50311176 27.6277193,7.07527807 27.3173605,7.58984375 C27.1072418,7.92008739 26.9009785,8.25993114 26.7043536,8.59977489 L23.9805213,14.0852754 L23.9843767,14.0891155 L23.8417273,14.3675185 L23.541007,14.9742452 C22.9434217,16.1780985 22.3034271,17.3781118 21.5882525,18.3688427 C19.9940492,20.1103019 18.1916548,20.9627913 15.8745661,20.9627913 C15.7126397,20.9627913 15.546858,20.9551112 15.3772209,20.9455111 C13.9815701,20.8898305 12.7844718,20.5615069 11.7223122,19.93558 C11.6085782,19.8683792 11.4986996,19.7992585 11.3926764,19.7282177 C10.5252139,19.1541314 9.8601593,18.4168432 9.36281412,17.4971531 C8.80185503,16.4545816 8.55318244,15.3889698 8.58788094,14.2599974 C8.58980864,14.229277 8.59173633,14.2023967 8.59173633,14.1774364 C8.66691642,12.3802966 9.35510335,10.9825212 10.7411157,9.77482786 C11.0784622,9.48490466 11.4312303,9.23914195 11.7994199,9.02025953 C11.8514677,8.98953919 11.9035154,8.96073888 11.9555632,8.93385858 C12.984952,8.37513242 14.1569903,8.09672934 15.5005933,8.09672934 L15.918903,8.10824947 C18.0528608,8.18889036 19.6991119,8.85321769 21.0118718,10.149232 L25.1294272,2.78595074 C24.1443754,2.1293035 23.0320956,1.56481727 21.806082,1.1059322 C21.7598173,1.08865201 21.7116249,1.0694518 21.6634326,1.05409163 C21.5169278,1.00225106 21.3723507,0.948490466 21.2219905,0.900489936 C19.9188691,0.466565148 18.5521337,0.199682203 17.1449167,0.0787208686 L17.1449167,0.0787208686 C17.1102182,0.0729608051 17.0716643,0.0691207627 17.0369658,0.0652807203 C16.821064,0.051840572 16.6013069,0.0249602754 16.3854051,0.0153601695 C16.1502264,0.00576006356 15.91312,0.00192002119 15.6817966,0 L15.5487857,0 C12.959892,0.00960010593 10.5541293,0.537605932 8.35462991,1.58401748 C5.89103637,2.76675053 3.8939449,4.48900953 2.41347554,6.70855403 C0.936861572,8.92809852 0.131085281,11.3914857 0.0154236124,14.0353549 C0.00578514001,14.2619174 0,14.4865599 0,14.7073623 C-0.0019256379,18.4053231 1.35131588,21.657839 4.04237737,24.3881091 C6.85102822,27.2527807 10.5040093,28.7964778 14.8895142,28.9788798 C15.1709576,28.9903999 15.4485456,28.99808 15.7261336,28.99808 C18.2070764,28.99808 20.5029605,28.5583951 22.5617382,27.6790254 C23.0764326,27.460143 23.5757055,27.2028602 24.0865445,26.916777 C24.3641325,26.7574153 24.626299,26.5884534 24.8865377,26.4079714 L25.0793072,26.27933 L25.4031599,26.0585275 C25.7925541,25.7801245 26.1568884,25.4786811 26.5115842,25.1580376 L26.6349566,25.0409163 C26.8431476,24.8431541 27.0513386,24.6434719 27.2479635,24.4380297 L27.9862705,23.6066605 L28.2677138,23.2552966 L28.3987971,23.0632945 L28.5298803,22.8751324 C29.6267384,21.0395922 33.1968286,14.3598385 33.1968286,14.3598385 L33.1968286,14.3463983 L33.408875,13.9393538 L33.5862229,13.6206303 C34.1124835,12.6663798 34.4922393,11.9886123 34.9953676,11.2762844 L35.0088614,11.2551642 C36.1828274,9.55978549 38.2011235,8.35209216 40.5798985,8.14856992 C44.570226,7.80680614 48.0670638,10.418035 48.3889888,13.9815943 C48.7089861,17.5451536 45.7326258,20.7112685 41.7422982,21.0549523 C40.9114619,21.1259931 40.1037579,21.0703125 39.3423186,20.9032707 L39.3230417,20.9109507 C36.3948738,20.304224 34.5307932,18.1768406 33.6112829,17.2264301 L29.7713155,24.2594677 C29.7713155,24.2594677 30.9645584,25.4575609 31.7819009,26.0566075 C32.601171,26.6537341 33.6594753,27.2412606 34.5038055,27.6060646 C36.5529447,28.4777542 38.7813595,29 41.2430254,29 C41.5283241,29 41.4704933,29 41.7673583,28.9884799 C46.1490078,28.8060779 50.0545168,27.1337394 52.8708784,24.2690678 C55.5388076,21.5483978 56.9865061,18.4418035 57,14.7649629 L57,14.6555217 C56.9980723,14.4519995 56.9922892,14.2465572 56.9845784,14.0391949 Z" id="Path"></path>
        </g>
    </g>
</svg>