<?xml version="1.0" encoding="UTF-8"?>
<svg width="61px" height="61px" viewBox="0 0 61 61" version="1.1" xmlns="http://www.w3.org/2000/svg" xmlns:xlink="http://www.w3.org/1999/xlink">
    <title>Coursera</title>
    <g id="Coursera" stroke="none" stroke-width="1" fill="none" fill-rule="evenodd">
        <g transform="translate(0.000000, 15.000000)" fill="#2A73CC" fill-rule="nonzero" id="Path">
            <path d="M60.9834962,15.0074153 C60.9731814,14.7693326 60.9566776,14.5374073 60.9381109,14.3013771 C60.9381109,14.3013771 60.9381109,14.2993247 60.9381109,14.2972722 C60.9381109,14.2972722 60.9381109,14.2952198 60.9381109,14.2931674 C60.711184,11.7337791 59.8612399,9.33858581 58.4192229,7.1753178 C57.7755759,6.21067267 57.0390951,5.33428231 56.2159696,4.54819915 C55.0132573,3.39678231 53.6207517,2.4444518 52.0508306,1.69120763 C49.6887285,0.568524894 47.0790698,0.00205243644 44.2940586,0.00205243644 C44.0217464,0.00205243644 43.7370563,0.00615730932 43.4503033,0.0164194915 C41.4946065,0.104674258 39.6028619,0.474112818 37.8245806,1.12473517 C36.0318586,1.76920021 34.4701893,2.62096133 33.1932101,3.64307468 C32.9332757,3.84831833 32.6506487,4.10076801 32.3473919,4.37784693 L32.1287169,4.59130032 L31.8295861,4.90737553 L31.8316491,4.90737553 L31.833712,4.90737553 L31.69343,5.04488877 L31.6253519,5.11877648 L31.2684579,5.49231992 C31.0043976,5.78787076 30.7527151,6.08342161 30.5175364,6.37281515 L30.5154734,6.36871028 L30.5072215,6.36050053 C30.0182973,6.95160222 29.5665066,7.56322828 29.2343682,8.11328125 C29.0095044,8.46630032 28.7887664,8.82958157 28.5783434,9.19286282 L25.6633649,15.0566737 L25.6674909,15.0607786 L25.514831,15.3583819 L25.1930075,16.0069518 C24.5534864,17.2938294 23.8685799,18.5766022 23.1032176,19.6356594 C21.3971403,21.4972193 19.4682622,22.4085011 16.9885707,22.4085011 C16.8152811,22.4085011 16.6378656,22.4002913 16.4563241,22.3900291 C14.9627329,22.3305085 13.6816277,21.9795418 12.5449306,21.3104476 C12.4232153,21.2386123 12.3056259,21.1647246 12.1921625,21.0887844 C11.2638254,20.4751059 10.5521003,19.6869703 10.0198537,18.7038533 C9.41952907,17.5893803 9.15340577,16.4502781 9.19053926,15.2434454 C9.19260223,15.2106065 9.1946652,15.1818724 9.1946652,15.1551907 C9.27512108,13.2341102 10.0116018,11.7399364 11.4948782,10.4489539 C11.8558982,10.139036 12.2334219,9.87632415 12.6274494,9.6423464 C12.6831496,9.60950742 12.7388499,9.57872087 12.7945501,9.54998676 C13.8961767,8.95272775 15.1504633,8.65512447 16.5883543,8.65512447 L17.036019,8.66743909 C19.3197282,8.75364142 21.0815057,9.46378443 22.4863892,10.849179 L26.8928958,2.97808528 C25.8387175,2.27615201 24.6483831,1.6727357 23.3363333,1.18220339 C23.286822,1.16373146 23.2352477,1.1432071 23.1836735,1.12678761 C23.0268876,1.07137182 22.8721648,1.0139036 22.711253,0.962592691 C21.3166844,0.498742055 19.8540378,0.21345339 18.3480688,0.0841498941 L18.3480688,0.0841498941 C18.3109353,0.0779925847 18.2696759,0.0738877119 18.2325424,0.069782839 C18.0014896,0.0554157839 17.7663109,0.0266816737 17.5352581,0.0164194915 C17.2835756,0.00615730932 17.0298301,0.00205243644 16.7822736,0 L16.6399286,0 C13.8693581,0.0102621822 11.29477,0.574682203 8.94091973,1.69326006 C6.30444243,2.95756091 4.16720419,4.7985964 2.58284224,7.17121292 C1.00260624,9.54382945 0.140284248,12.1771054 0.0165059711,15.0033104 C0.00619111474,15.2454979 0,15.4856329 0,15.7216631 C-0.00206077038,19.6746557 1.44614507,23.1514831 4.32605298,26.0700477 C7.33180213,29.1322828 11.2411327,30.7824417 15.9343924,30.9774232 C16.2355862,30.9897378 16.532654,30.9979476 16.8297219,30.9979476 C19.4847659,30.9979476 21.9417647,30.5279396 24.1450181,29.5879237 C24.6958314,29.353946 25.230141,29.0789195 25.7768284,28.7731065 C26.0738962,28.6027542 26.3544603,28.4221398 26.6329614,28.2292108 L26.8392586,28.0916976 L27.1858377,27.8556674 C27.6025579,27.5580641 27.9924595,27.2358316 28.3720462,26.8930747 L28.5040764,26.7678761 C28.7268773,26.5564751 28.9496782,26.3430217 29.1601013,26.123411 L29.9502193,25.234706 L30.2514131,24.8591102 L30.3916951,24.6538665 L30.5319772,24.4527278 C31.7058078,22.4905985 35.5264306,15.3501721 35.5264306,15.3501721 L35.5264306,15.3358051 L35.7533575,14.9006886 L35.9431508,14.5599841 C36.506342,13.5399232 36.9127473,12.8154131 37.4511828,12.0539592 L37.4656236,12.0313824 C38.7219731,10.219081 40.8819041,8.92809852 43.4276106,8.71054025 C47.6979612,8.34520657 51.4401911,11.1365201 51.7847073,14.9458422 C52.1271605,18.7551642 48.9419329,22.1396319 44.6715823,22.507018 C43.7824417,22.5829582 42.9180567,22.5234375 42.1031831,22.3448755 L42.0825534,22.3530853 C38.9489,21.7045154 36.9540068,19.4304158 35.9699695,18.4144597 L31.8605307,25.9325344 C31.8605307,25.9325344 33.1375099,27.2132548 34.0122097,27.8536149 C34.8889725,28.4919227 36.0215437,29.1199682 36.9251252,29.5099311 C39.1180636,30.4417373 41.5028584,31 44.1372728,31 C44.4425925,31 44.3807034,31 44.6984009,30.9876854 C49.3875347,30.7927039 53.5671145,29.0050318 56.5811155,25.9427966 C59.4362678,23.0344942 60.9855592,19.713652 61,15.7832362 L61,15.6662474 C60.997937,15.4486891 60.9917481,15.2290784 60.9834962,15.0074153 Z"></path>
        </g>
    </g>
</svg>