<svg width="404" height="642" xmlns="http://www.w3.org/2000/svg" xmlns:xlink="http://www.w3.org/1999/xlink">
  <defs>
    <linearGradient x1="50%" y1="1.45288584%" x2="50%" y2="95.8314645%" id="a">
      <stop stop-color="#FAFCFF" offset="0%"/>
      <stop stop-color="#EDEFF2" offset="100%"/>
    </linearGradient>
    <path id="b" d="M0 0h404v642H0z"/>
    <filter x="-1%" y="-.6%" width="102%" height="101.2%" filterUnits="objectBoundingBox" id="c">
      <feMorphology radius="2" in="SourceAlpha" result="shadowSpreadInner1"/>
      <feGaussianBlur stdDeviation="2.5" in="shadowSpreadInner1" result="shadowBlurInner1"/>
      <feOffset dy="1" in="shadowBlurInner1" result="shadowOffsetInner1"/>
      <feComposite in="shadowOffsetInner1" in2="SourceAlpha" operator="arithmetic" k2="-1" k3="1" result="shadowInnerInner1"/>
      <feColorMatrix values="0 0 0 0 1 0 0 0 0 1 0 0 0 0 1 0 0 0 0.25 0" in="shadowInnerInner1"/>
    </filter>
    <linearGradient x1="50%" y1="0%" x2="50%" y2="98.3378508%" id="d">
      <stop stop-color="#6D5442" offset="0%"/>
      <stop stop-color="#8D4114" offset="44.5790816%"/>
      <stop stop-color="#D6815F" offset="89.068479%"/>
      <stop stop-color="#D1764D" offset="100%"/>
    </linearGradient>
  </defs>
  <g fill="none" fill-rule="evenodd">
    <use fill="url(#a)" xlink:href="#b"/>
    <use fill="#000" filter="url(#c)" xlink:href="#b"/>
    <path d="M52.432 70.896h-2.096v4.208l1.632.304V76h-4.544v-.528l1.36-.368V66.32l-1.36-.432v-.512h6.56l1.408-.064v2.832h-.576l-.88-2.048h-3.6v4.064h2.096l.448-1.312h.512v3.264h-.576l-.384-1.216zM56.4 76v-.544l1.008-.352v-5.376l-1.072-.208v-.48l2.176-.768h.08l.096 2h.032l.512-.688c.768-1.04 1.168-1.344 1.696-1.344.512 0 .784.32.784.8 0 .416-.24.768-.512 1.104l-1.232-.416c-.352.288-.736.608-1.216 1.216v4.224l1.408.272V76H56.4zm8.192.24c-.848 0-1.92-.592-1.92-1.872 0-1.28.928-1.856 2.576-2.288l1.648-.432v-.832c-.032-1.232-.672-1.872-1.52-1.872-.48 0-.88.208-1.008.288l-.064 1.584s-.4.048-.64.048c-.512 0-.768-.256-.768-.688 0-.736 1.408-1.904 3.056-1.904 1.616 0 2.32.736 2.32 2.32v4.32c0 .32.08.432.528.432h.8v.448s-.928.4-1.52.4c-.816 0-1.152-.56-1.152-1.248h-.048c-.896.848-1.28 1.296-2.288 1.296zm.848-1.088c.768 0 1.264-.576 1.456-.864v-2.112l-1.536.512c-.752.256-1.232.56-1.232 1.232 0 .816.624 1.232 1.312 1.232zm5.008.848v-.544l1.008-.336v-5.392l-1.072-.256v-.432l1.968-.768h.08l.352 1.456h.016c.272-.32 1.28-1.456 2.624-1.456 1.488 0 2.176.64 2.176 2.688v4.176l1.04.336V76h-3.312v-.544l.912-.32v-4.048c-.064-1.12-.4-1.744-1.472-1.744-1.04 0-1.952.88-1.952.912v4.88l1.056.32V76h-3.424zm10.064-.896V65.44l-1.056-.416v-.432l2.416-.528v11.072l1.056.32V76h-3.424v-.544l1.008-.352zm5.84 1.168c-.48.016-.976-.256-1.648-1.12l-2.752-3.6v-.032l.576-.176 2.24-2.048-.976-.32v-.496h3.232v.448l-1.072.272-2.592 2.192 3.824 4.528s-.24.336-.832.352zm10.512.128c-4.064 0-5.536-2.8-5.536-5.344 0-3.392 2.592-5.952 6.064-5.952 1.504 0 2.512.4 3.344.864l.096 2.672h-.592l-.88-2.144c-.48-.32-1.168-.608-2.112-.608-2.32 0-4.16 1.84-4.16 4.608 0 3.296 1.888 5.104 4.288 5.104.992 0 1.776-.416 2.192-.72l1.2-2.256h.592l-.416 2.688c-1.296.672-2.528 1.088-4.08 1.088zm10.432-.4v-.544l.912-.32v-4.048c-.064-1.12-.4-1.744-1.472-1.744-1.04 0-1.952.88-1.952.912v4.88l1.056.32V76h-3.424v-.544l1.008-.352v-9.776l-1.072-.416v-.432l2.432-.416v5.664c.272-.336 1.28-1.456 2.608-1.456 1.488 0 2.176.64 2.176 2.688v4.176l1.04.336V76h-3.312zm4.224 0v-.544l1.072-.352v-5.472l-.944-.336v-.56l2.272-.464v6.848l1.2.336V76h-3.6zm1.632-9.984c-.528 0-.992-.448-.992-.976s.464-.976.992-.976c.512 0 .976.448.976.976s-.464.976-.976.976zM125.68 76v-.544l.912-.32v-4.048c-.064-1.12-.4-1.744-1.472-1.744-.944 0-1.712.656-1.952.912v4.88l1.04.336V76h-3.312v-.544l.912-.32v-4.048c-.064-1.12-.4-1.744-1.472-1.744-1.04 0-1.952.88-1.952.912v4.88l1.056.32V76h-3.424v-.544l1.008-.336v-5.392l-1.072-.256v-.432l1.968-.768h.08l.352 1.456h.016c.272-.32 1.28-1.456 2.624-1.456 1.392 0 1.888.576 2.032 1.584h.032c.16-.208 1.248-1.584 2.736-1.584 1.472 0 2.16.64 2.16 2.688v4.176l1.04.336V76h-3.312zm7.792.256c-2.656 0-3.504-2.352-3.504-3.728 0-2.384 1.536-4.256 3.776-4.256 1.776 0 2.816 1.2 2.816 3.392h-5.296v.16c0 1.984 1.136 3.216 2.8 3.216 1.36 0 2.224-1.2 2.224-1.2l.32.192s-.752 2.224-3.136 2.224zm-.08-7.28c-1.008 0-1.808.88-2.048 2.064h3.616c-.016-1.088-.512-2.064-1.568-2.064zM137.936 76v-.544l1.008-.352v-5.376l-1.072-.208v-.48l2.176-.768h.08l.096 2h.032l.512-.688c.768-1.04 1.168-1.344 1.696-1.344.512 0 .784.32.784.8 0 .416-.24.768-.512 1.104l-1.232-.416c-.352.288-.736.608-1.216 1.216v4.224l1.408.272V76h-3.76zm7.52-4.176c0 1.76.736 3.728 2.448 3.728 1.28 0 2.064-1.296 2.064-2.928 0-2.352-.992-3.696-2.432-3.696-1.312 0-2.08 1.264-2.08 2.896zm2.256 4.432c-2.416 0-3.712-1.808-3.712-3.872 0-2.288 1.632-4.144 3.712-4.144 2.272 0 3.712 1.424 3.712 3.84 0 2.32-1.6 4.176-3.712 4.176zm-97.86 29.84H65.44l2.412-.288.36 6.516h-1.296l-1.944-4.608h-5.58v20.268l3.384.828V130H52.48v-1.188l3.42-.828v-20.268h-5.58l-1.944 4.608H47.08l.324-6.516 2.448.288zM81.208 130v-1.224l2.052-.72v-9.108c-.144-2.52-.9-3.924-3.312-3.924-2.34 0-4.392 1.98-4.392 2.052v10.98l2.376.72V130h-7.704v-1.224l2.268-.792v-21.996l-2.412-.936v-.972l5.472-.936v12.744c.612-.756 2.88-3.276 5.868-3.276 3.348 0 4.896 1.44 4.896 6.048v9.396l2.34.756V130h-7.452zm17.568.576c-5.976 0-7.884-5.292-7.884-8.388 0-5.364 3.456-9.576 8.496-9.576 3.996 0 6.336 2.7 6.336 7.632H93.808v.36c0 4.464 2.556 7.236 6.3 7.236 3.06 0 5.004-2.7 5.004-2.7l.72.432s-1.692 5.004-7.056 5.004zm-.18-16.38c-2.268 0-4.068 1.98-4.608 4.644h8.136c-.036-2.448-1.152-4.644-3.528-4.644zm18 14.616l-.468-6.372h1.368l1.98 5.184c.756.612 2.052 1.44 4.176 1.44 2.772 0 4.824-1.728 4.824-4.464 0-1.836-.864-3.492-3.456-4.572l-3.672-1.548c-3.168-1.368-4.896-3.168-4.896-6.192 0-3.888 3.528-6.912 8.46-6.912 2.268 0 4.464.792 5.58 1.476l.216 5.94h-1.224l-1.872-4.896c-.216-.144-1.332-1.008-3.168-1.008-2.808 0-4.608 1.944-4.608 4.032 0 2.124 1.152 3.24 3.06 4.104l4.284 1.944c3.528 1.584 4.788 3.6 4.788 6.264 0 4.5-4.572 7.452-8.604 7.452-2.34 0-5.076-.756-6.768-1.872zM145.288 130v-1.224l2.052-.72v-9.108c-.144-2.52-.9-3.924-3.312-3.924-2.34 0-4.392 1.98-4.392 2.052v10.98l2.376.72V130h-7.704v-1.224l2.268-.792v-21.996l-2.412-.936v-.972l5.472-.936v12.744c.612-.756 2.88-3.276 5.868-3.276 3.348 0 4.896 1.44 4.896 6.048v9.396l2.34.756V130h-7.452zm14.472.54c-1.908 0-4.32-1.332-4.32-4.212s2.088-4.176 5.796-5.148l3.708-.972v-1.872c-.072-2.772-1.512-4.212-3.42-4.212-1.08 0-1.98.468-2.268.648l-.144 3.564s-.9.108-1.44.108c-1.152 0-1.728-.576-1.728-1.548 0-1.656 3.168-4.284 6.876-4.284 3.636 0 5.22 1.656 5.22 5.22v9.72c0 .72.18.972 1.188.972h1.8v1.008s-2.088.9-3.42.9c-1.836 0-2.592-1.26-2.592-2.808h-.108c-2.016 1.908-2.88 2.916-5.148 2.916zm1.908-2.448c1.728 0 2.844-1.296 3.276-1.944v-4.752l-3.456 1.152c-1.692.576-2.772 1.26-2.772 2.772 0 1.836 1.404 2.772 2.952 2.772zm10.656 10.548v-1.224l2.268-.792v-20.736l-2.412-.576v-.972l4.428-1.728h.18l.684 2.88c.72-.9 2.592-2.88 5.4-2.88 3.564 0 6.732 2.304 6.732 8.172 0 5.58-4.752 9.792-9.612 9.792-.828 0-1.62-.144-2.34-.36v6.336l3.276.972v1.116h-8.604zm8.964-23.688c-1.656 0-2.952.9-3.636 1.512v11.268c.324.324 1.404 1.26 3.528 1.26 2.628 0 5.328-2.448 5.328-7.2 0-4.14-2.124-6.84-5.22-6.84zm18.792 15.624c-5.976 0-7.884-5.292-7.884-8.388 0-5.364 3.456-9.576 8.496-9.576 3.996 0 6.336 2.7 6.336 7.632h-11.916v.36c0 4.464 2.556 7.236 6.3 7.236 3.06 0 5.004-2.7 5.004-2.7l.72.432s-1.692 5.004-7.056 5.004zm-.18-16.38c-2.268 0-4.068 1.98-4.608 4.644h8.136c-.036-2.448-1.152-4.644-3.528-4.644zM50.572 156.604c0 3.96 1.656 8.388 5.508 8.388 2.88 0 4.644-2.916 4.644-6.588 0-5.292-2.232-8.316-5.472-8.316-2.952 0-4.68 2.844-4.68 6.516zm5.076 9.972c-5.436 0-8.352-4.068-8.352-8.712 0-5.148 3.672-9.324 8.352-9.324 5.112 0 8.352 3.204 8.352 8.64 0 5.22-3.6 9.396-8.352 9.396zM66.484 166v-1.224l2.268-.756v-13.14H66.16v-1.476l2.556-.72v-.144c0-5.22 3.708-9.396 7.632-9.396 2.844 0 4.608 1.656 4.608 3.24 0 .936-.684 1.872-1.872 1.872-.468 0-.864-.144-.864-.144l-.864-2.988s-.648-.432-1.656-.432c-2.016 0-3.888 1.404-3.888 5.544v2.844h4.896v1.836h-4.896v13.104l3.24.756V166h-8.568zm26.604-22.572v19.224c.18 1.728 2.772 1.98 4.356 1.944 6.048-.144 9.396-4.68 9.396-10.08 0-8.784-6.408-11.484-13.752-11.088zM86.536 166v-1.188l3.06-.828v-19.8l-3.06-.936v-1.152l10.8-.144c8.64-.108 13.32 4.896 13.32 11.7 0 7.272-5.652 12.564-15.012 12.456L86.536 166zm35.244.576c-5.976 0-7.884-5.292-7.884-8.388 0-5.364 3.456-9.576 8.496-9.576 3.996 0 6.336 2.7 6.336 7.632h-11.916v.36c0 4.464 2.556 7.236 6.3 7.236 3.06 0 5.004-2.7 5.004-2.7l.72.432s-1.692 5.004-7.056 5.004zm-.18-16.38c-2.268 0-4.068 1.98-4.608 4.644h8.136c-.036-2.448-1.152-4.644-3.528-4.644zm15.948 16.488c-1.836 0-3.492-.684-4.68-1.404l-.576-5.04h1.188l1.836 3.96c.54.468 1.296 1.08 2.952 1.08 1.836 0 3.096-1.08 3.096-2.736 0-1.332-.756-2.412-3.492-3.636l-1.44-.648c-2.484-1.116-3.708-2.412-3.708-4.716 0-2.772 2.916-5.004 6.192-5.004 1.332 0 2.844.396 4.248 1.152l.18 4.284h-1.08l-1.476-3.132c-.432-.36-1.152-.9-2.412-.9-1.728 0-2.736 1.116-2.736 2.484 0 1.44.756 2.34 2.916 3.312l1.548.684c3.204 1.404 4.248 2.988 4.248 4.932 0 2.988-3.312 5.328-6.804 5.328zM146.8 166v-1.224l2.412-.792v-12.312l-2.124-.756v-1.26l5.112-1.044v15.408l2.7.756V166h-8.1zm3.672-22.464c-1.188 0-2.232-1.008-2.232-2.196 0-1.188 1.044-2.196 2.232-2.196 1.152 0 2.196 1.008 2.196 2.196 0 1.188-1.044 2.196-2.196 2.196zm23.184 7.632l-4.104-.216-.036.108c.9.756 1.836 2.088 1.836 3.996 0 3.924-3.564 6.444-7.164 6.444-.9 0-1.764-.144-2.592-.432-.828.648-1.26 1.26-1.26 1.8 0 .504.504 1.188 1.332 1.224l6.804.396c3.564.216 5.148 1.8 5.148 4.032 0 2.988-3.852 6.66-10.548 6.66-3.42 0-6.516-1.44-6.516-4.068 0-1.332.9-2.844 2.628-3.78l.864-.468v-.072l-2.556-2.448c.72-1.836 1.512-2.736 2.844-3.852-1.656-1.008-2.844-2.772-2.844-5.292 0-3.924 3.06-6.588 6.912-6.588 1.656 0 2.808.396 4.248.9l5.004-.54v2.196zm-9.036 8.784c1.908 0 3.456-1.692 3.456-4.428 0-3.852-1.728-5.508-3.888-5.508-2.124 0-3.384 1.584-3.384 4.32 0 3.528 1.476 5.616 3.816 5.616zm3.528 7.452l-6.804-.432c-.54.576-1.548 1.908-1.548 3.204 0 1.332 1.188 3.204 4.968 3.204 4.428 0 6.264-2.124 6.264-3.78 0-1.26-.828-2.052-2.88-2.196zm7.38-1.404v-1.224l2.268-.756v-12.132l-2.412-.576v-.972l4.428-1.728h.18l.792 3.276h.036c.612-.72 2.88-3.276 5.904-3.276 3.348 0 4.896 1.44 4.896 6.048v9.396l2.34.756V166h-7.452v-1.224l2.052-.72v-9.108c-.144-2.52-.9-3.924-3.312-3.924-2.34 0-4.392 1.98-4.392 2.052v10.98l2.376.72V166h-7.704z" fill="#333"/>
    <path fill="url(#d)" d="M305.418 167L256.62 335.895l41.55-163.708.193-.762-1.526-.38-41.94 169.363 29.709-151.172.151-.769-1.544-.299-29.295 154.361L270 214.773l.099-.78-1.565-.19-15.326 129.943 4.77-110.391.033-.785-1.575-.059-3.853 113.082-4.454-64.387-.056-.783-1.575.121 5.279 62.331-12.799-84.707-.118-.776-1.558.245 14.178 87.071-16.737-66.454-.191-.762-1.531.397 17.542 65.647-25.217-73.547-.254-.744-1.491.522 26.831 75.16-30.275-66.57-.325-.715-1.433.664 32.516 69.009-55.195-84.301-.432-.657-1.314.871 55.838 83.406-76.418-91.663-.503-.604-1.206 1.014 76.633 90.327-94.666-95.475-.552-.557-1.113 1.112 95.7 95.066-116.948-100.161-1.02 1.199 116.163 98.15-122.322-91.838-.628-.47-.942 1.261 126.651 93.784-134.299-79.381-.677-.4-.797 1.358 135.411 78.828-140.809-63.883-.715-.325-.646 1.435 139.982 62.382-142.43-51.792-.738-.269-.533 1.481 144.143 51.318-145.747-39.421-.759-.206-.405 1.523 146.517 38.563-148.698-27.47-.773-.142-.28 1.548 146.604 26.058-148.721-18.657-.189 1.562 143.714 17.049L94.082 336.75l-.783-.066-.128 1.569 148.38 11.579-148.294-4.903-.047 1.572 151.375 3.987-147.549 5.25-.784.03.06 1.569 146.282-6.21-139.547 12.867-.782.073.151 1.566 140.16-13.929-137.734 20.567.24 1.556 139.192-21.809-131.522 28.583-.765.168.34 1.536 131.819-29.679-128.31 36.666-.755.217.437 1.51 129.618-38.094-122.431 44.544-.738.269.545 1.477 119.676-44.593-133.092 56.435-.723.307.621 1.447 125.555-54.259-141.313 65.335-.713.328.665 1.429 142.435-66.911-155.729 78.235-.703.352.71 1.403 151.648-77.236-185.858 99.62-.691.372.747 1.383 193.915-105.079L54.883 466.065l-.677.396.798 1.354 183.468-108.666L63.908 469.763l-.665.419.846 1.328 176.543-113.056L74.944 472.798l-.645.447.896 1.293L237.994 360.99 86.313 473.148l-.63.468.938 1.26 158.092-118.172-143.684 118.815-.605.502 1.007 1.207 140.593-117.552-131.972 118.548-.585.524 1.054 1.167 132.406-120.278L120.752 479.25l-.558.549 1.101 1.122 121.376-120.217-112.896 119.913-.537.572 1.148 1.075 110.287-118.556-102.872 116.928-.519.588 1.185 1.038 104.45-120.208-94.745 116.593-.495.61 1.224.987 96.339-120.131-85.362 115.883-.467.632 1.27.929 83.31-114.731-72.068 106.492-.439.65 1.306.877 75.264-113.014-95.991 163.818 1.358.792 89.689-154.974-92.167 169.105-.377.691 1.383.749 93.975-174.511-90.974 183.658-.349.703 1.41.696 91.983-187.987-85.522 196.677-.312.718 1.442.626 86.057-200.5-75.907 211.504 1.481.527 74.525-210.695-64.197 217.515-.222.751 1.508.443 64.337-221.673-47.038 230.094-.155.768 1.54.312 45.497-227.727-33.823 230.713-.113.775 1.557.225 31.857-224.176-25.26 224.711-.087.78 1.562.173 25.111-232.59-13.517 232.683-.044.784 1.57.088 12.347-230.036-3.822 224.17-.012.784 1.57.024 2.904-231.36 12.631 222.064.044.782 1.571-.09-13.83-224.694 32.832 209.001.123.775 1.552-.248-33.515-206.7 43.062 191.365.173.766 1.532-.35-44.167-191.59 54.386 185.635.221.755 1.507-.447-56.505-189.161 70.222 174.18.294.729 1.455-.594-70.177-171.33 78.667 164.708.337.708 1.418-.681-81.095-167.386 88.925 150.827.399.676 1.353-.803-88.14-147.499 92.694 139.119.436.652 1.306-.875-97.031-143.743 89.56 106.336.506.599 1.201-1.017-88.541-103.553 78.578 81.387.547.565 1.128-1.101-79.565-80.969 63.6 57.665.584.526 1.054-1.173-65.877-58.383 47.955 36.952.622.478.955-1.259-48.746-36.352 61.887 40.252.658.429.855-1.331-63.378-40.048 83.631 45.296.69.372.744-1.387-85.463-45.144 110.41 48.14.72.314.624-1.447-110.991-47.287 121.538 42.176.741.258.51-1.491-.744-.252v.001l-123.444-41.754 115.701 27.944.764.183.362-1.531-116.405-27.06 107.346 15.544.778.112.217-1.559-107.814-14.586 106.188 5.941.786.046.08-1.576-107.321-4.984 104.806-3.772.784-.03-.065-1.575-106.123 4.845 102.992-14.162-.223-1.561-101.36 14.955 94.082-20.837.768-.171-.35-1.536-96.046 22.316 93.607-30.873-.499-1.496-92.147 31.452 86.047-36.695.721-.309-.624-1.447-88.274 38.761 78.512-45.052.683-.39-.793-1.365-77.963 45.907 71.181-51.157.64-.459-.93-1.276-71.533 52.666 65.976-59.339.581-.525-1.061-1.167-66.156 60.881 52.597-59.844-1.193-1.036-52.404 61.185 37.064-56.822.431-.659-1.332-.853-36.405 57.674 29.065-60.834-1.431-.671-27.713 60.326 61.599-176.299.257-.741-1.487-.515-58.868 171.549 50.554-171.338.22-.752z"/>
  </g>
</svg>
