<?xml version="1.0" encoding="UTF-8"?>
<svg width="88px" height="165px" viewBox="0 0 88 165" version="1.1" xmlns="http://www.w3.org/2000/svg" xmlns:xlink="http://www.w3.org/1999/xlink">
    <!-- Generator: Sketch 59.1 (86144) - https://sketch.com -->
    <title>ce_logo-745536bb1028b2573e434822b488ce7118a6cc014939b934661e7867b7559da1</title>
    <desc>Created with Sketch.</desc>
    <g id="Page-1" stroke="none" stroke-width="1" fill="none" fill-rule="evenodd">
        <g id="ce_logo-745536bb1028b2573e434822b488ce7118a6cc014939b934661e7867b7559da1" fill="#8ABC00" fill-rule="nonzero">
            <path d="M88,59.1823308 C88,26.4943609 58.4088633,0 44,0 C29.5911367,0 0,26.4943609 0,59.1823308 C0,74.9765038 4.60296154,89.3092105 12.1026952,99.9201128 C14.64323,105.267857 18.6087142,110.911654 22.710131,116.743421 C27.4302759,123.458647 32.2441675,130.357143 34.9721956,136.964286 C32.4504101,137.946429 30.4582934,139.957707 29.4645787,142.471805 C31.8223074,143.012218 34.4144029,143.463346 37.170555,143.764098 C44.576542,144.586466 51.166933,144.224624 54.9402365,143.007519 C52.5543837,144.957707 45.3921381,146.024436 37.015873,145.460526 C34.0816022,145.263158 31.3395121,144.887218 28.9114733,144.384398 C28.8130393,144.915414 28.7614786,145.460526 28.7614786,146.019737 L28.7614786,158.181391 C28.7614786,163.56203 33.1160115,165 38.4783211,165 L51.9872164,165 C57.3448386,165 61.6993715,163.557331 61.6993715,158.181391 L61.6993715,146.019737 C61.6993715,141.395677 58.474486,137.546992 54.1715138,136.555451 C55.8589539,132.617481 57.827634,128.764098 59.754128,124.981203 L61.6571855,121.226504 L63.0258869,118.472744 C64.0992862,116.329887 65.8617237,112.772556 67.6944711,109.172932 L67.5210397,109.172932 C79.8252903,98.6889098 88,80.2255639 88,59.1823308 Z M60.6119101,117.269737 L59.2432087,120.009398 L57.3401513,123.754699 C55.2636625,127.824248 53.1403004,131.99718 51.3450517,136.282895 L45.3593267,136.282895 L45.3593267,118.359962 L42.6453606,118.359962 L42.6453606,136.282895 L38.4736337,136.282895 C38.1923937,136.282895 37.9299031,136.348684 37.6533504,136.37218 C34.8315756,129.337406 29.8255034,122.166353 24.9131778,115.183271 C23.6382231,113.355263 22.3632683,111.546053 21.135187,109.765038 C27.8005753,115.220865 35.6284223,118.364662 43.9953127,118.364662 C50.773197,118.364662 57.1901566,116.292293 62.9274529,112.612782 C62.2102908,114.046053 61.4462555,115.592105 60.6119101,117.269737 Z M60.0353681,112.659774 C60.0353681,112.659774 73.7833174,97.6409774 77.9128582,76.325188 C72.7614786,82.612782 63.8180462,86.7857143 53.6277831,86.7857143 C37.6720997,86.7857143 24.7256845,76.5742481 24.7256845,63.9755639 C24.7256845,51.3721805 37.6720997,41.156015 53.6277831,41.156015 C63.5414936,41.156015 72.2927453,45.1033835 77.4956855,51.1090226 C69.1241078,16.3016917 31.3723234,7.58458647 31.3723234,7.58458647 C31.3723234,7.58458647 33.7253649,4.55357143 38.8439331,3.08740602 C43.184404,1.84210526 45.3077661,2.15695489 48.0732929,2.97932331 C51.2044317,3.90507519 84.5266858,22.5093985 84.5266858,58.068609 C84.5313732,93.6231203 60.0353681,112.659774 60.0353681,112.659774 Z" id="Shape"></path>
            <path d="M64.0718057,57.7644577 C61.4950973,57.7644577 59.2130035,56.4023554 55.9301554,56.4023554 C50.0705989,56.4023554 47.2881279,59.9476182 47.2881279,63.540341 C47.2881279,66.9954298 50.3511842,70.5834066 55.9301554,70.5834066 C58.5068638,70.5834066 62.3508825,69.1311303 63.5714286,69.1311303 C66.0078443,69.1311303 68,70.5359466 68,72.1923009 C68,75.7850237 59.1381807,77 55.4297782,77 C44.351335,77 37,70.8349446 37,63.545087 C37,56.4545614 44.5711269,50 55.4297782,50 C59.4935888,50 68,51.0108982 68,54.418527 C68,55.8755493 66.5128979,57.7644577 64.0718057,57.7644577 Z" id="Path"></path>
        </g>
    </g>
</svg>