<?xml version="1.0" encoding="UTF-8"?>
<svg width="92px" height="92px" viewBox="0 0 92 92" version="1.1" xmlns="http://www.w3.org/2000/svg" xmlns:xlink="http://www.w3.org/1999/xlink">
    <title>Creative Bloq</title>
    <g id="Page-1" stroke="none" stroke-width="1" fill="none" fill-rule="evenodd">
        <g id="Creative-Bloq">
            <path d="M78.264631,85.6878173 L10.6513995,85.6878173 C0.231552163,85.6878173 0,75.7563452 0,75.2944162 L0,10.393401 C0,0.230964467 9.956743,0.230964467 10.4198473,0 L75.2544529,0 C85.4427481,0 85.4427481,9.93147208 85.4427481,10.393401 L85.4427481,78.5279188 L91,84.071066 L83.821883,91 L78.4961832,85.6878173 L78.264631,85.6878173 Z" id="Path" fill="#E94E1B" fill-rule="nonzero"></path>
            <path d="M75.3984962,1.15 C84.8521303,1.15 85.0827068,10.35 85.0827068,10.81 L85.0827068,78.89 L85.3132832,79.35 L90.3859649,83.95 L83.9298246,90.39 L79.3182957,85.56 L78.8571429,85.1 L10.8370927,85.1 C1.38345865,85.1 1.15288221,75.9 1.15288221,75.44 L1.15288221,10.81 C1.15288221,1.38 10.3759398,1.15 10.8370927,1.15 L75.3984962,1.15 M75.3984962,0 L10.8370927,0 C10.8370927,0 0,0 0,10.81 L0,75.44 C0,75.44 0,86.25 10.8370927,86.25 L78.39599,86.25 L83.9298246,92 L92,84.18 L86.235589,78.43 L86.235589,10.81 C86.235589,10.81 86.235589,0 75.3984962,0 L75.3984962,0 Z" id="Shape" fill="#E3441B" fill-rule="nonzero"></path>
            <path d="M42,59.5244444 L42,45.8888889 L31.9082569,45.8888889 L31.9082569,58.1377778 C31.9082569,59.2933333 31.4495413,59.9866667 30.0733945,59.9866667 L28.9266055,59.9866667 C27.5504587,59.9866667 27.0917431,59.2933333 27.0917431,58.1377778 L27.0917431,27.4 C27.0917431,26.2444444 27.5504587,25.7822222 28.9266055,25.7822222 L30.0733945,25.7822222 C31.2201835,25.7822222 31.9082569,26.4755556 31.9082569,27.4 L31.9082569,38.2622222 L41.7706422,38.2622222 L41.7706422,26.4755556 C41.7706422,20.0044444 38.7889908,17 32.5963303,17 L26.4036697,17 C20.2110092,17 17,20.0044444 17,26.2444444 L17,59.7555556 C17,65.9955556 20.2110092,69 26.4036697,69 L32.5963303,69 C38.7889908,69 42,65.9955556 42,59.7555556" id="Path" fill="#FFFFFF" fill-rule="nonzero"></path>
            <path d="M42,59.5244444 L42,45.8888889 L31.9082569,45.8888889 L31.9082569,58.1377778 C31.9082569,59.2933333 31.4495413,59.9866667 30.0733945,59.9866667 L28.9266055,59.9866667 C27.5504587,59.9866667 27.0917431,59.2933333 27.0917431,58.1377778 L27.0917431,27.4 C27.0917431,26.2444444 27.5504587,25.7822222 28.9266055,25.7822222 L30.0733945,25.7822222 C31.2201835,25.7822222 31.9082569,26.4755556 31.9082569,27.6311111 L31.9082569,38.2622222 L41.7706422,38.2622222 L41.7706422,26.4755556 C41.7706422,20.2355556 38.7889908,17 32.5963303,17 L26.4036697,17 C20.2110092,17 17,20.2355556 17,26.2444444 L17,59.7555556 C17,65.9955556 20.2110092,69 26.4036697,69 L32.5963303,69 C38.7889908,69 42,65.9955556 42,59.7555556" id="Path" stroke="#DD4531" stroke-width="0.5"></path>
            <path d="M60.5833333,58.1377778 C60.5833333,59.2933333 59.8888889,59.9866667 58.7314815,59.9866667 L56.1851852,59.9866667 L56.1851852,46.8133333 L58.5,46.8133333 C59.8888889,46.8133333 60.5833333,47.5066667 60.5833333,48.6622222 L60.5833333,57.9066667 L60.5833333,58.1377778 Z M60.5833333,36.4133333 C60.5833333,37.5688889 59.8888889,38.2622222 58.5,38.2622222 L56.1851852,38.2622222 L56.1851852,26.0133333 L58.5,26.0133333 C59.8888889,26.0133333 60.3518519,26.7066667 60.3518519,27.8622222 L60.3518519,36.4133333 L60.5833333,36.4133333 Z M70.7685185,59.0622222 L70.7685185,48.6622222 C70.7685185,44.9644444 69.3796296,42.8844444 66.3703704,41.96 C69.1481481,41.2666667 70.7685185,38.9555556 70.7685185,34.3333333 L70.7685185,26.7066667 C70.7685185,20.2355556 67.5277778,17 61.0462963,17 L46,17 L46,69 L61.5092593,69 C67.9907407,69 71,65.7644444 71,59.2933333" id="Shape" fill="#FFFFFF" fill-rule="nonzero"></path>
            <path d="M60.5833333,58.1377778 C60.5833333,59.2933333 59.8888889,59.9866667 58.7314815,59.9866667 L56.1851852,59.9866667 L56.1851852,46.8133333 L58.5,46.8133333 C59.8888889,46.8133333 60.5833333,47.5066667 60.5833333,48.6622222 L60.5833333,57.9066667 L60.5833333,58.1377778 Z M60.5833333,36.4133333 C60.5833333,37.5688889 59.8888889,38.2622222 58.5,38.2622222 L56.1851852,38.2622222 L56.1851852,26.0133333 L58.5,26.0133333 C59.8888889,26.0133333 60.3518519,26.7066667 60.3518519,27.8622222 L60.3518519,36.4133333 L60.5833333,36.4133333 Z M70.7685185,59.0622222 L70.7685185,48.6622222 C70.7685185,44.9644444 69.3796296,42.8844444 66.3703704,41.96 C69.1481481,41.2666667 70.7685185,38.9555556 70.7685185,34.3333333 L70.7685185,26.7066667 C70.7685185,20.2355556 67.5277778,17 61.0462963,17 L46,17 L46,69 L61.5092593,69 C67.9907407,69 71,65.7644444 71,59.2933333" id="Shape" stroke="#DD4531" stroke-width="0.5"></path>
        </g>
    </g>
</svg>