<?xml version="1.0" encoding="UTF-8"?>
<svg width="200px" height="200px" viewBox="0 0 200 200" version="1.1" xmlns="http://www.w3.org/2000/svg" xmlns:xlink="http://www.w3.org/1999/xlink">
    <title>DesignCode-Logo</title>
    <defs>
        <linearGradient x1="0%" y1="50%" x2="121.093075%" y2="50%" id="linearGradient-1">
            <stop stop-color="#4899F7" offset="0%"></stop>
            <stop stop-color="#2457F5" offset="100%"></stop>
        </linearGradient>
        <linearGradient x1="23.4913618%" y1="0%" x2="90.6676248%" y2="48.0353739%" id="linearGradient-2">
            <stop stop-color="#9DE1E5" offset="0%"></stop>
            <stop stop-color="#B8DFB2" offset="100%"></stop>
        </linearGradient>
    </defs>
    <g id="Page-1" stroke="none" stroke-width="1" fill="none" fill-rule="evenodd">
        <g id="DesignCode-Logo" fill-rule="nonzero">
            <path d="M0,0 L100,0 C155.228,0 155.228,200 100,200 L0,200 L0,0 Z" id="Path" fill="#000000"></path>
            <path d="M0,100 L100,0 C125.068,0 147.983,9.224 165.533,24.464 C165.531,24.488 140.353,49.667 90,100 C140.355,150.333 165.533,175.513 165.53,175.539 C147.979,190.777 125.067,200 100,200 L0,100 Z" id="Path" fill="url(#linearGradient-1)"></path>
            <path d="M165.535,24.466 C186.649,42.8 200,69.84 200,100 C200,130.161 186.648,157.203 165.531,175.538 C165.534,175.513 140.357,150.333 90,100 L165.535,24.466 Z" id="Path" fill="url(#linearGradient-2)"></path>
        </g>
    </g>
</svg>