<svg clip-rule="evenodd" fill-rule="evenodd" stroke-linejoin="round" stroke-miterlimit="1.414" viewBox="0 0 758 798" xmlns="http://www.w3.org/2000/svg" xmlns:xlink="http://www.w3.org/1999/xlink"><clipPath id="a"><path clip-rule="evenodd" d="m0 0h758v797.762h-758z"/></clipPath><path d="m0 0h758v797.762h-758z" fill="none"/><g clip-path="url(#a)"><path d="m359.686 304.77c.503-10.868 9.634-19.68 21.011-19.154 9.616 1.342 17.005 9.294 17.461 19.154v84.498c.006.095.011.189.016.284.041.441.072.885.093 1.331.156 2.925.481 5.838.973 8.726.374 2.195.841 4.375 1.407 6.529.42 1.599.894 3.185 1.427 4.75.431 1.265.899 2.517 1.411 3.752 4.079 9.842 11.78 19.147 22.78 21.6 5.098 1.137 10.392 1.025 15.581.353 0 0 13.485.041 18.968 9.183 6.732 11.225-1.406 27.492-15.463 29.151-16.351 1.929-33.082-.984-47.193-9.254v266.158c2.338 2.316 4.665 4.666 7.102 6.685 14.996 12.429 33.598 20.406 53.132 22.444 49.939 5.21 102.525-23.777 123.822-64.722 5.565-10.698 8.873-22.87 7.108-34.755 0 0-.944-8.335 3.046-14.194 2.967-4.355 7.767-7.379 12.961-8.182 2.505-.387 3.117-.214 3.929-.2 4.022.346 4.669.734 6.376 1.442 11.938 4.949 14.003 21.512 12.184 37.158 4.39-.919 8.888-2.012 13.06-4.299 35.266-19.334 47.416-70.512 39.76-105.855-4.331-19.995-17.392-38.923-39.219-44.953 0 0-7.905-2.433-11.628-7.604-7.566-10.507-1.006-28.591 13.28-30.334 2.32-.283 2.874-.125 3.619-.099 3.526.349 3.681.602 4.843.919 1.318.359 2.629.745 3.931 1.159 18.881 6.007 34.908 18.788 46.338 35.171 26.714-34.507 20.687-93.988 7.839-128.031-3.252-8.617-7.555-16.957-12.912-24.524 4.649-10.79 8.074-22.155 10.903-33.191.828-3.229 1.637-6.468 2.42-9.715 35.702 32.856 49.33 86.052 47.486 132.026-1.486 37.018-11.079 76.21-37.078 99.822 0 0-.821.556-2.207 1.29.123.563.242 1.128.355 1.694 13.029 64.927-19.843 143.727-85.787 155.338-3.353.59-8.114 1.029-8.114 1.029-3.152.158-6.184-.583-8.904-1.972-17.249 32.665-49.782 57.921-83.7 71.848-49.382 20.278-109.444 16.221-153.139-20.615-25.475 21.415-58.288 33.887-92.673 33.374-50.985-.762-101.397-26.749-131.871-66.151-4.387-5.672-8.373-11.723-11.8-18.07-9.205 3.996-21.444.568-32.399-3.507-38.726-14.406-63.211-56.318-70.646-95.026-3.609-18.784-3.406-38.578.753-57.062-11.974-7.51-19.978-22.271-26.176-36.834-16.4-38.539-17.814-83.654-8.01-123.29 6.865-27.753 20.371-54.311 41.791-73.909.784 3.252 1.594 6.496 2.424 9.73 2.806 10.949 6.199 22.221 10.792 32.934-21.829 30.117-25.813 71.291-20.473 106.777 2.462 16.361 7.118 33.641 15.841 46.051 11.567-17.233 28.363-30.536 50.599-36.524 0 0-.004-.93 6.597-.751 13.728 1.239 23.016 18.595 14.484 30.443-7.912 10.988-24.902 9.365-36.926 23.139-17.722 20.299-18.687 50.152-13.368 74.727 6.374 29.45 23.268 59.545 52.439 65.49-.856-7.346-.819-14.844.281-22.404 0 0 4.375-15.232 16.798-16.728 2.517-.303 3.122-.11 3.934-.069 4.008.48 4.641.89 6.324 1.654 8.34 3.79 11.682 13.451 10.698 23.231-2.092 22.82 12.19 43.693 26.906 58.179 36.469 35.898 95.238 52.587 141.104 27.605 8.545-4.654 16.344-10.626 23.299-17.413v-266.133c-2.301 1.361-4.715 2.599-7.243 3.702-13.744 5.996-29.941 8.424-44.058 4.389-14.738-4.213-18.191-28.85-2.771-35.963 2.179-1.004 4.543-1.596 6.939-1.736 9.558-.557 19.946 1.758 28.94-4.413 12.931-8.872 17.442-25.408 18.193-40.184zm102.844 237.39c3.107.306 3.953.627 5.592 1.267 14.12 5.516 10.923 27.663 25.518 37.048 12.393 7.969 29.03 6.83 41.554 2.235 3.442-1.227 1.106-.993 6.912-2.117 13.927-2.697 28.264 14.193 20.473 28.224-3.181 5.728-9.483 8.715-16.354 10.866-17.097 5.199-33.113 20.511-30.947 38.852.596 5.053 2.397 9.881 4.663 14.464 0 0 2.511 6.166 1.806 11.195-1.617 11.537-15.451 19.916-26.779 14.945-7.49-3.287-11.187-11.543-14.107-19.914-6.783-19.447-5.033-41.626 6.089-59.43 0 0-21.898-8.407-33.567-26.411-9.506-14.666-16.668-35.07-5.713-45.789 3.678-3.599 7.296-5.471 13.902-5.481.319.015.639.031.958.046zm-165.108-.043c3.922.211 5.196.708 7.426 1.725 9.758 4.45 12.794 16.079 8.903 29.302-6.168 20.962-21.468 38.882-42.566 46.539 0 0 5.106 8.987 7.378 16.404 5.354 17.481 2.465 36.667-5.731 53.363-4.77 9.718-24.728 16.034-33.569 2.71-8.499-12.807 7.413-28.809 2.514-44.806-4.199-13.712-17.369-22.446-29.763-27.576 0 0-14.647-3.614-18.11-14.439-4.337-13.56 10.36-28.526 25.192-23.878 20.485 6.42 43.286 7.004 53.546-9.506 2.735-4.402 4.336-9.409 5.386-14.497 0 0 4.656-13.77 16.523-15.209 1.848-.225 2.282-.135 2.871-.132zm277.851-104.18c13.046.674 22.695 16.259 16.335 28.243-6.497 12.24-26.555 10.026-28.225 34.081-.29 4.168 1.196 9.767 1.196 9.767 4.923 14.244-11.514 31.177-26.482 23.897-17.578-8.549-15.081-38.865-8.945-56.313 6.685-19.012 21.834-36.538 42.773-39.497 1.108-.156 2.23-.196 3.348-.178zm-391.215.001c23.155 1.231 42.579 25.511 47.545 49.647 2.462 11.968 2.297 24.646-2.181 35.98 0 0-14.03 18.929-28.718 8.997-7.346-4.966-9.957-14.962-6.868-23.644 4.704-13.308-3.859-30.484-15.132-33.095 0 0-15.412-7.399-14.52-20.017.66-9.344 8.944-17.541 18.531-17.869.448-.015.895-.007 1.343.001zm-78.923-269.199c9.472-9.921 19.865-18.777 30.838-26.246 12.37-8.421 26.02-15.131 40.545-18.906-.38-1.927-.483-3.981-.253-6.135.159-1.491.338-2.98.536-4.466 7.147-53.644 43.339-107.018 102.366-112.525 3.672-.343 7.354-.479 11.052-.457 31.733.406 63.309 12.363 83.717 36.097 1.817 2.113 3.558 4.297 5.212 6.547 19.892-26.238 52.777-41.985 87.715-42.632.798-.01 1.595-.016 2.392-.016 31.596.229 62.22 15.44 82.525 40.945 17.482 21.958 27.119 49.628 30.021 77.257 0 0 .031 2.254-.528 5.272 26.987 6.852 51.356 23.901 71.048 45.226-21.306-1.587-42.692-2.361-64.071-2.298-19.626-9.988-41.275-12.041-62.264 1.405 0 0-20.821 6.968-27.82-8.09-4.131-8.89-.24-19.831 8.879-25.447 11.125-6.851 23.565-11.353 36.455-13.159-1.029-5.127-1.585-10.697-2.833-15.896-.771-3.21-1.672-6.388-2.705-9.523-7.105-21.562-21.138-42.105-42.643-51.698-35.382-15.783-83.708 1.536-95.17 41.3-1.368 4.746-1.718 9.525-1.718 9.525-.074.446-.166.886-.273 1.319v86.119c-.39 16.623-26.191 26.735-35.97 9.488-1.187-2.094-1.975-4.408-2.312-6.791-.127-.893-.169-1.794-.19-2.697v-87.181c-1.478-5.731-2.229-12.235-5.094-18.495-16.822-36.759-71.304-52.234-106.738-23.416-20.172 16.405-30.422 42.482-33.263 67.736 15.014 1.605 29.76 6.271 40.889 16.624 10.321 9.6 5.411 30.767-10.258 33.109-13.495 2.016-24.028-11.647-42.353-11.936-11.633-.183-22.749 2.668-33.16 7.704-21.546-.062-43.1.725-64.574 2.337z" fill-rule="nonzero"/><path d="m378.994 223.392c32.867-1.33 38.858-17.65 62.585-23.203 38.78-9.078 81.747-11.248 127.421-12.469 57.988-1.551 128.768 8.902 148.812 12.09 3.187.529 5.523 3.284 5.523 6.514 0 6.534 0 17.244-.008 23.592 0 2.896-1.89 5.453-4.658 6.303-6.469 2.009-17.55 7.285-19.14 20.092-2.175 17.525-4.288 48.238-15.083 86.802-12.843 45.883-37.315 58.382-60.769 64.968-23.802 6.684-54.351 9.543-93.933 7.453-79.222-4.183-103.028-84.23-118.791-135.727-4.764-15.564-15.796-18.713-20.902-19.085-2.69-.196-6.817-.217-11.057-.256-4.239.039-8.367.06-11.056.256-5.107.372-16.139 3.521-20.903 19.085-15.762 51.497-39.568 131.544-118.791 135.727-39.581 2.09-70.13-.769-93.933-7.453-23.453-6.586-47.925-19.085-60.769-64.968-10.795-38.564-12.908-69.277-15.083-86.802-1.589-12.807-12.67-18.083-19.139-20.092-2.769-.85-4.658-3.407-4.658-6.303-.009-6.348-.009-17.058-.009-23.592 0-3.23 2.337-5.985 5.523-6.514 20.045-3.188 90.825-13.641 148.813-12.09 45.673 1.221 88.641 3.391 127.421 12.469 23.726 5.553 29.717 21.873 62.584 23.203zm115.025 6.43c-26.437 6.794-33.978 19.103-36.825 28.705-4.371 14.737-1.165 41.018 3.95 55.162 12.392 34.261 20.202 43.802 29.644 52.75 8.807 8.348 25.584 18.351 47.315 20.176 18.73 1.572 50.122-.008 74.114-8.21 17.337-5.927 25.132-16.261 30.746-28.482 14.339-31.217 16.194-60.964 17.737-77.309 2.801-29.685-6.592-44.913-33.846-48.457-28.322-3.683-84.4-6.781-132.835 5.665zm-230.049 0c26.436 6.794 33.977 19.103 36.825 28.705 4.37 14.737 1.164 41.018-3.951 55.162-12.391 34.261-20.201 43.802-29.643 52.75-8.808 8.348-25.585 18.351-47.316 20.176-18.729 1.572-50.121-.008-74.113-8.21-17.337-5.927-25.132-16.261-30.746-28.482-14.339-31.217-16.195-60.964-17.737-77.309-2.802-29.685 6.592-44.913 33.845-48.457 28.322-3.683 84.401-6.781 132.836 5.665z"/></g></svg>