<?xml version="1.0" encoding="UTF-8"?>
<svg width="90px" height="90px" viewBox="0 0 90 90" version="1.1" xmlns="http://www.w3.org/2000/svg" xmlns:xlink="http://www.w3.org/1999/xlink">
    <!-- Generator: Sketch 64 (93537) - https://sketch.com -->
    <title>designcouncil</title>
    <desc>Created with Sketch.</desc>
    <g id="Page-1" stroke="none" stroke-width="1" fill="none" fill-rule="evenodd">
        <g id="designcouncil" fill-rule="nonzero">
            <rect id="Rectangle" fill="#FF0000" x="0" y="0" width="90" height="90"></rect>
            <path d="M51.2,35.2 C52.4,35.2 53.5,36.3 53.5,37.7 L53.5,37.9 C53.4,39.2 52.5,40.2 51.3,40.2 C50,40.2 49,39.1 49,37.8 C49,36.3 50,35.2 51.2,35.2 Z M53.3,41.8 L53.3,54.8 L49.2,54.8 L49.2,41.8 L53.3,41.8 Z M20.2,73.9 C19.2,75 18.6,75.5 17.7,76 C16.6,76.6 15.4,76.9 14.2,76.9 C12.6,76.9 11,76.3 9.8,75.3 C9.1,74.7 8.5,73.9 8.1,73 C7.4,71.3 7,69.4 7,67.4 C7,64 8.2,61.1 10.2,59.5 C11.4,58.5 13.1,58 14.8,58 C15.8,58 16.7,58.2 17.5,58.5 C18,58.7 18.4,59 18.9,59.3 C19.4,59.7 19.6,59.9 20.2,60.4 L18.7,61.7 C18.4,61.3 18.2,61.2 17.7,60.9 C16.8,60.4 16,60.1 15,60.1 C13.7,60.1 12.6,60.5 11.8,61.3 C11.3,61.7 11,62.3 10.7,62.8 C10.1,64.1 9.9,65.7 9.9,67.5 C9.9,69.6 10.3,71.3 11,72.6 C11.7,73.9 13.1,74.7 14.6,74.7 C16.1,74.7 17.7,73.9 19.2,72.3 L20.4,73.6 L20.2,73.9 Z M45.7,76.8 L43.9,76.8 L43.7,73.9 C43.4,74.4 43.3,74.6 42.9,75.1 C42.6,75.5 42.2,75.9 41.8,76.1 C41.1,76.6 40.2,76.9 39.3,76.9 C38.9,76.9 38.5,76.8 38.1,76.7 C37.2,76.5 36.5,76 36.1,75.3 C35.9,74.9 35.8,74.4 35.7,74 C35.5,73.2 35.6,72.7 35.6,70.9 L35.6,63.5 L37.8,63.5 L37.8,71 C37.8,72.7 37.8,73.3 38,73.9 C38.2,74.7 38.9,75.1 39.8,75.1 C40.9,75.1 41.9,74.4 42.5,73.1 C42.8,72.5 42.9,71.9 43,71.3 C43.2,70.2 43.2,68.7 43.2,67 L43.2,63.6 L45.7,63.6 L45.7,76.8 L45.7,76.8 Z M46,53.9 C45.1,54.6 44,54.9 42.7,54.9 C41.6,54.9 40.6,54.7 39.3,54.2 C38.6,53.9 38.4,53.8 37.8,53.5 L38.8,51.3 C39.3,51.6 39.5,51.6 40.1,51.9 C41.1,52.2 41.7,52.4 42.3,52.4 C43.3,52.4 44,51.9 44,51.2 C44,51 43.9,50.8 43.8,50.6 C43.5,50.2 43.1,50 42,49.5 C40.6,48.9 40.3,48.8 39.6,48.3 C38.7,47.6 38.2,46.6 38.2,45.4 C38.2,44.2 38.7,43.1 39.6,42.4 C40.4,41.7 41.7,41.4 43.1,41.4 C44,41.4 45,41.6 45.8,41.9 C46.4,42.1 46.6,42.2 47.2,42.6 L46.2,44.6 C45.6,44.2 45.3,44.1 44.7,43.9 C44.3,43.8 43.8,43.7 43.4,43.7 C43.1,43.7 42.8,43.7 42.6,43.8 C42.2,43.9 41.9,44.4 41.9,44.8 C41.9,45.3 42.3,45.7 43.3,46.2 C45.3,47.1 45.7,47.3 46.3,47.8 C47.2,48.5 47.7,49.6 47.7,50.7 C47.7,51.9 47.1,53.1 46,53.9 Z M59,76.8 L56.7,76.8 L56.7,68.6 C56.7,67.6 56.6,66.7 56.5,66.2 C56.3,65.4 55.7,64.9 54.8,64.9 C54.5,64.9 54.2,65 53.9,65.1 C53.2,65.4 52.4,66.1 52,67 C51.7,67.5 51.5,68.1 51.4,68.8 C51.1,70 51,71.2 51,73 L51,76.8 L48.7,76.8 L48.7,63.5 L50.5,63.5 L50.8,66.5 C51.1,65.8 51.3,65.5 51.7,65 C52.1,64.5 52.4,64.2 52.7,63.9 C53.4,63.4 54.4,63 55.3,63 C55.6,63 56,63 56.4,63.1 C57.4,63.3 58,63.8 58.4,64.6 C58.6,65 58.8,65.5 58.9,65.9 C59.1,66.7 59.1,67.2 59.1,69 L59,76.8 L59,76.8 Z M70.8,75.3 C69.6,76.4 68.4,76.9 66.9,76.9 C63.6,76.9 61.4,74.2 61.4,70.1 C61.4,68.3 61.8,66.8 62.7,65.5 C63.1,64.9 63.5,64.5 64,64.1 C64.9,63.5 66,63.1 67.2,63.1 C68.2,63.1 69.1,63.3 70.2,63.9 C70.8,64.2 71.1,64.4 71.5,64.9 L70.3,66.4 C70,66 69.8,65.9 69.4,65.6 C68.7,65.2 68.2,65 67.4,65 C66.9,65 66.5,65.1 66.1,65.2 C64.9,65.8 64,67.6 64,70 C64,73.1 65.2,75 67.3,75 C68,75 68.8,74.7 69.5,74.2 C69.9,73.8 70.1,73.7 70.6,73.1 L71.9,74.1 C71.5,74.6 71.3,74.8 70.8,75.3 Z M76,76.8 L73.7,76.8 L73.7,63.5 L76,63.5 L76,76.8 Z M76.2,60.6 C75.9,61.2 75.5,61.4 74.9,61.4 C74.6,61.4 74.3,61.3 74.1,61.2 C73.7,60.9 73.4,60.4 73.4,59.8 C73.4,58.9 74.1,58.2 74.9,58.2 C75.7,58.2 76.3,58.9 76.3,59.7 C76.4,60 76.3,60.3 76.2,60.6 Z M81.5,76.8 L79.2,76.8 L79.2,58.3 L81.5,58.3 L81.5,76.8 Z M81.5,54.8 L77.7,54.8 L77.7,48.1 C77.7,47 77.6,46 77.5,45.6 C77.3,44.9 76.8,44.5 76,44.5 C75.3,44.5 74.6,44.9 74.3,45.5 C74.1,45.9 73.9,46.3 73.9,46.7 C73.9,47.2 73.8,48.4 73.8,49.1 L73.8,54.7 L69.8,54.7 L69.8,41.7 L72.6,41.7 L73,43.9 C73.3,43.3 73.5,43 74.2,42.5 C75.1,41.7 76.2,41.3 77.4,41.3 C78.8,41.3 80.1,41.9 80.8,43 C81.1,43.4 81.3,43.9 81.4,44.3 C81.6,45 81.6,45.7 81.6,47.1 L81.5,54.8 L81.5,54.8 Z M36,45 C35.8,44.2 35.4,43.5 34.9,43 C34,41.9 32.5,41.3 30.9,41.3 C28.9,41.3 27.2,42.2 26.2,43.8 C25.4,45 25,46.6 25,48.2 C25,50.6 25.9,52.7 27.4,53.9 C28.4,54.7 29.7,55.1 31.1,55.1 C32.3,55.1 33.4,54.8 34.8,54.1 C35.6,53.7 35.8,53.6 36.4,53.2 L35.4,51.2 C34,51.9 33,52.2 32.1,52.2 C30.9,52.2 30.1,51.5 29.7,50.5 C29.5,50 29.6,49.7 29.6,49 L29.6,49 L36.5,49 C36.5,49 36.5,48.7 36.5,48.4 C36.4,47.4 36.2,46 36,45 Z M32.5,46.4 L32.5,47 L29.5,47 L29.5,46.5 C29.5,45.8 29.5,45.1 29.8,44.6 C30.1,44.1 30.5,43.8 31.1,43.8 C31.7,43.8 32.1,44.1 32.3,44.6 C32.5,45.1 32.5,45.5 32.5,46.4 Z M18.4,37.5 C17.1,36.9 16,37 13.1,37 L8.5,37 L8.5,55 L12.2,55 C15,55 16.1,54.8 17.5,54.2 C18.5,53.9 19.4,53.3 20.2,52.6 C22.1,50.9 23.2,48.4 23.2,45.6 C23.2,41.9 21.4,38.8 18.4,37.5 Z M17.7,49.8 C17.3,50.4 16.9,50.9 16.3,51.3 C15.4,51.8 14.6,52 13,52 L12.5,52 L12.5,39 L13,39 C14.6,39 15.5,39.3 16.3,39.7 C16.9,40 17.4,40.5 17.8,41.1 C18.5,42.2 18.9,43.6 18.9,45.3 C18.8,47.1 18.5,48.6 17.7,49.8 Z M64.6,42 L64.2,44 C64,43.4 63.9,43.2 63.5,42.7 C63.3,42.4 63,42.1 62.8,42 C62.2,41.6 61.4,41.4 60.5,41.4 C59.4,41.4 58.4,41.7 57.5,42.3 C57,42.7 56.5,43.2 56.2,43.7 C55.4,44.9 55,46.4 55,48.2 C55,50.7 55.8,52.7 57.3,53.9 C58.1,54.5 59,54.8 60,54.8 C60.8,54.8 61.6,54.6 62.2,54.2 C62.4,54.1 62.5,54 62.7,53.8 C63,53.6 63,53.5 63.2,53.2 L63.2,53.6 C63.1,55.1 63.1,55.3 62.9,56 C62.7,56.4 62.6,56.8 62.3,57.1 C61.5,58.1 59.8,58.8 58.1,58.8 C57.7,58.8 57.2,58.8 56.7,58.7 L56.4,58.7 L56.2,61 C56.7,61.1 56.9,61.1 57.4,61.1 C57.7,61.1 58,61.1 58.3,61.1 C59.3,61.1 60.2,61 61.1,60.7 C62.6,60.3 63.7,59.7 64.7,58.8 C65.9,57.6 66.8,56.3 67.1,54.4 C67.3,53.2 67.5,52.7 67.5,50.3 L67.5,42 L64.6,42 Z M63.5,48 C63.5,48.9 63.3,49.8 63,50.6 C62.7,51.4 62.1,51.8 61.3,51.8 C60.6,51.8 60.1,51.4 59.7,50.7 C59.4,50 59.2,49.2 59.2,48 C59.2,46.7 59.4,45.9 59.8,45.2 C60.2,44.6 60.8,44.2 61.4,44.2 C62,44.2 62.6,44.6 62.9,45.2 C63.2,45.8 63.4,46.8 63.4,47.8 L63.4,48 L63.5,48 Z M31.8,65.4 C31.5,64.9 31,64.4 30.4,64 C29.5,63.4 28.5,63.1 27.2,63.1 C25.4,63.1 23.9,63.8 23,65.1 C22,66.4 21.5,68.1 21.5,70 C21.5,71.9 22,73.5 22.8,74.8 C23.1,75.3 23.6,75.7 24.1,76.1 C25,76.7 26,77 27.1,77 C28.8,77 30.6,76.1 31.6,74.7 C32.4,73.5 32.9,71.7 32.9,69.9 C33.1,68.3 32.6,66.6 31.8,65.4 Z M29.9,73.2 C29.7,73.6 29.5,74.1 29.1,74.4 C28.6,74.9 28,75.2 27.3,75.2 C26.5,75.2 25.8,74.9 25.2,74.3 C24.9,74 24.7,73.6 24.5,73.2 C24.2,72.3 24,71 24,69.9 C24,68.8 24.2,67.7 24.6,66.8 C24.8,66.3 25.1,65.9 25.4,65.5 C25.9,65 26.5,64.7 27.2,64.7 C27.9,64.7 28.6,65 29.1,65.5 C29.4,65.8 29.6,66.1 29.7,66.5 C30.1,67.5 30.3,68.7 30.3,69.9 C30.5,71.1 30.3,72.3 29.9,73.2 Z" id="Shape" fill="#FFFFFF"></path>
        </g>
    </g>
</svg>