<svg viewBox="0 0 97 92" xmlns="http://www.w3.org/2000/svg"><g fill="#5623EE" fill-rule="evenodd"><g transform="translate(46 1)"><rect width="13" height="12" rx="6"/><rect y="19.75" width="16" height="12" rx="6"/><rect x="21" y="19.75" width="25" height="12" rx="6"/><rect y="39.5" width="30" height="12" rx="6"/><rect x="35" y="39.5" width="16" height="12" rx="6"/><rect x="28" y="59.25" width="18" height="12" rx="6"/><rect y="59.25" width="23" height="12" rx="6"/><rect y="79" width="17" height="12" rx="6"/><rect x="22" y="75" width="12" height="12" rx="6"/><rect x="18" y="4" width="13" height="12" rx="6"/></g><path d="M21.706 46.316c1.403.941 2.623 2.068 3.556 3.454 2.72 4.037 2.64 7.07 2.32 11.553-.059.835-1.02 5.89-1.468 7.699-.903 3.635-1.148 4.826-1.148 6.508 0 1.682.296 2.96 1.597 3.7 1.19.679 4.032.636 7.441.651 5.885.028 6.58 4.123 6.58 6.359 0 2.236-2.063 5.242-5.36 5.58-13.407 1.37-22.03-5.187-22.03-15.29 0-2.535 1.97-11.053 2.08-11.798.716-4.825-.462-7.927-1.729-9.564-1.268-1.637-1.802-2.121-7.028-2.535-3.307-.262-6-2.686-6-6 0-.106.003-.212.009-.317A6.098 6.098 0 0 1 .517 46c0-3.314 2.693-5.738 6-6 5.226-.414 5.76-.898 7.028-2.535 1.267-1.637 2.445-4.739 1.729-9.564-.11-.745-2.08-9.263-2.08-11.798C13.194 6 21.817-.557 35.224.813c3.297.338 5.36 3.344 5.36 5.58s-.695 6.331-6.58 6.358c-3.409.016-6.25-.027-7.441.651-1.3.741-1.597 2.02-1.597 3.7 0 1.683.245 2.874 1.148 6.509.449 1.809 1.41 6.864 1.468 7.699.32 4.483.4 7.516-2.32 11.553-.933 1.386-2.153 2.513-3.556 3.453z" fill-rule="nonzero"/></g></svg>