<svg width="120" height="120" fill="none" xmlns="http://www.w3.org/2000/svg"><path fill="#161616" d="M0 0h120v120H0z"/><path fill="url(#paint0_linear)" fill-opacity=".05" d="M0 0h120v120H0z"/><rect x="21.797" y="21.797" width="50.859" height="50.859" rx="7.031" fill="#4F4F4F"/><rect x="47.227" y="47.227" width="50.859" height="50.859" rx="7.031" fill="#4F4F4F"/><path d="M72.656 47.227v14.18c0 3.937 0 5.906-.766 7.41a7.031 7.031 0 01-3.073 3.073c-1.504.766-3.473.766-7.41.766h-14.18v-14.18c0-3.937 0-5.906.766-7.41a7.031 7.031 0 013.073-3.073c1.504-.766 3.473-.766 7.41-.766h14.18z" fill="#fff"/><defs><linearGradient id="paint0_linear" x1="60" y1="0" x2="60" y2="120" gradientUnits="userSpaceOnUse"><stop stop-color="#fff"/><stop offset="1" stop-color="#fff" stop-opacity="0"/></linearGradient></defs></svg>