<?xml version="1.0" encoding="UTF-8"?>
<svg width="822px" height="822px" viewBox="0 0 822 822" version="1.1" xmlns="http://www.w3.org/2000/svg" xmlns:xlink="http://www.w3.org/1999/xlink">
    <title>General Assembly</title>
    <defs>
        <polygon id="path-1" points="0 0 821.998 0 821.998 821.551 0 821.551"></polygon>
    </defs>
    <g id="Page-1" stroke="none" stroke-width="1" fill="none" fill-rule="evenodd">
        <g id="General-Assembly">
            <g id="Group-3">
                <mask id="mask-2" fill="white">
                    <use xlink:href="#path-1"></use>
                </mask>
                <g id="Clip-2"></g>
                <path d="M540.209,650.319 L525.378,533.47 L485.828,533.47 L470.997,650.319 L402.235,650.319 L465.605,169.883 L545.152,169.883 L608.971,650.319 L540.209,650.319 Z M363.585,629.647 C348.754,645.825 327.631,654.364 298.868,654.364 C270.554,654.364 250.33,646.275 235.049,630.096 C219.769,613.916 211.679,592.344 211.679,565.379 L211.679,255.723 C211.679,228.757 218.87,207.185 234.15,191.005 C248.981,174.377 270.105,166.287 298.418,166.287 C327.182,166.287 347.406,174.377 362.686,191.005 C377.517,207.185 386.056,228.757 386.056,255.723 L386.056,329.88 L320.89,329.88 L320.89,250.33 C320.89,238.195 310.553,229.207 298.418,229.207 C286.284,229.207 277.295,238.645 277.295,250.779 L277.295,569.873 C277.295,581.558 286.284,590.996 298.418,590.996 C310.553,590.996 320.44,581.558 320.44,569.423 L320.44,481.785 L298.418,481.785 L298.418,423.36 L386.056,423.36 L386.056,564.929 C386.056,591.895 378.865,613.467 363.585,629.647 Z M772.112,410.327 C772.112,382.912 794.584,360.89 821.998,360.89 L809.414,299.317 C784.247,309.656 755.034,297.969 744.697,272.352 C733.911,246.734 746.046,217.971 771.663,207.185 L736.607,155.052 C717.282,174.377 685.822,174.377 666.497,155.052 C646.723,135.726 646.723,104.267 666.497,84.941 L614.364,49.886 C603.578,75.503 574.365,87.189 549.197,76.852 C523.58,66.515 511.896,37.302 522.232,11.685 L460.661,-0.449 C460.661,26.965 438.639,49.437 410.774,49.437 C383.359,49.437 361.338,26.965 361.338,-0.449 L299.767,11.685 C310.104,37.302 297.969,66.515 272.801,76.852 C247.184,87.189 217.971,75.503 207.634,49.886 L155.501,84.941 C174.826,104.267 174.826,135.726 155.501,155.052 C136.176,174.377 104.716,174.377 84.941,155.052 L50.335,207.185 C75.503,217.971 87.638,246.734 77.301,272.352 C66.964,297.969 37.752,309.656 12.134,299.317 L0,360.89 C27.415,360.89 49.886,382.912 49.886,410.327 C49.886,438.191 27.415,460.213 0,460.213 L12.134,521.784 C37.752,511.447 66.964,523.582 77.301,548.75 C87.638,574.367 75.503,603.13 50.335,613.916 L84.941,666.05 C104.716,646.725 136.176,646.725 155.501,666.05 C174.826,685.375 174.826,716.835 155.501,736.16 L207.634,771.215 C217.971,745.598 247.184,733.464 272.801,744.25 C297.969,754.586 310.104,783.799 299.767,809.416 L361.338,821.551 C361.338,794.136 383.359,771.664 410.774,771.664 C438.639,771.664 460.661,794.136 460.661,821.551 L522.232,809.416 C511.896,783.799 523.58,754.586 549.197,744.25 C574.365,733.464 603.578,745.598 614.364,771.215 L666.497,736.16 C646.723,716.835 646.723,685.375 666.497,666.05 C685.822,646.725 717.282,646.725 736.607,666.05 L771.663,613.916 C746.046,603.13 733.911,574.367 744.697,548.75 C755.034,523.582 784.247,511.447 809.864,521.784 L821.998,460.213 C794.584,460.213 772.112,438.191 772.112,410.327 L772.112,410.327 Z" id="Fill-1" fill="#D0232B" mask="url(#mask-2)"></path>
            </g>
            <path d="M506.053,406.731 C485.828,406.731 469.649,423.36 469.649,443.584 C469.649,463.809 485.828,480.438 506.053,480.438 C525.827,480.438 542.007,463.809 542.007,443.584 C542.007,423.36 525.827,406.731 506.053,406.731" id="Fill-4" fill="#D0232B"></path>
        </g>
    </g>
</svg>