<?xml version="1.0" encoding="UTF-8"?>
<svg width="48px" height="67px" viewBox="0 0 48 67" version="1.1" xmlns="http://www.w3.org/2000/svg" xmlns:xlink="http://www.w3.org/1999/xlink">
    <!-- Generator: Sketch 61 (89581) - https://sketch.com -->
    <title>geri reid</title>
    <desc>Created with Sketch.</desc>
    <g id="geri-reid" stroke="none" stroke-width="1" fill="none" fill-rule="evenodd">
        <path d="M9.08210678,43.7071068 L23.2928932,57.9178932 C23.6834175,58.3084175 24.3165825,58.3084175 24.7071068,57.9178932 L38.9178932,43.7071068 C39.3084175,43.3165825 39.3084175,42.6834175 38.9178932,42.2928932 L34.8633568,38.2383568 C34.4728325,37.8478325 33.8396675,37.8478325 33.4491432,38.2383568 L26.1213203,45.5661797 C24.9497475,46.7377525 23.0502525,46.7377525 21.8786797,45.5661797 L21.4338203,45.1213203 C20.2622475,43.9497475 20.2622475,42.0502525 21.4338203,40.8786797 L32.0349297,30.2775703 C33.2065025,29.1059975 35.1059975,29.1059975 36.2775703,30.2775703 L46.8786797,40.8786797 C48.0502525,42.0502525 48.0502525,43.9497475 46.8786797,45.1213203 L26.1213203,65.8786797 C24.9497475,67.0502525 23.0502525,67.0502525 21.8786797,65.8786797 L1.12132034,45.1213203 C-0.0502525317,43.9497475 -0.0502525317,42.0502525 1.12132034,40.8786797 L21.8786797,20.1213203 C23.0502525,18.9497475 24.9497475,18.9497475 26.1213203,20.1213203 L26.5661797,20.5661797 C27.7377525,21.7377525 27.7377525,23.6372475 26.5661797,24.8088203 L9.08210678,42.2928932 C8.69158249,42.6834175 8.69158249,43.3165825 9.08210678,43.7071068 Z" id="Path" fill="#20068C" fill-rule="nonzero"></path>
        <path d="M1.55510249,26.8451562 L1.08820394,26.3733429 C-0.0685993855,25.2043627 -0.0685993855,23.3219531 1.08820394,22.1529729 L21.8676025,1.1548438 C23.0330255,-0.0228468272 24.9324944,-0.0327916906 26.110185,1.13263132 C26.1176279,1.13999666 26.1250322,1.14740092 26.1323975,1.1548438 L46.9117961,22.1529729 C48.0685994,23.3219531 48.0685994,25.2043627 46.9117961,26.3733429 L46.4448975,26.8451562 C45.2794745,28.0228468 43.3800056,28.0327917 42.202315,26.8673687 C42.1948721,26.8600033 42.1874678,26.8525991 42.1801025,26.8451562 L24.7107992,9.19196548 C24.3223248,8.79940193 23.6891685,8.79608698 23.296605,9.18456132 C23.294124,9.18701643 23.2916559,9.18948452 23.2892008,9.19196548 L5.81989751,26.8451562 C4.65447449,28.0228468 2.75500559,28.0327917 1.57731497,26.8673687 C1.56987209,26.8600033 1.56246784,26.8525991 1.55510249,26.8451562 Z" id="Path" fill="#20068C" fill-rule="nonzero"></path>
    </g>
</svg>