<?xml version="1.0" encoding="UTF-8"?>
<svg width="68px" height="69px" viewBox="0 0 68 69" version="1.1" xmlns="http://www.w3.org/2000/svg" xmlns:xlink="http://www.w3.org/1999/xlink">
    <title>interaction design foundation</title>
    <g id="Page-1" stroke="none" stroke-width="1" fill="none" fill-rule="evenodd">
        <g id="interaction-design-foundation" fill="#2B2B2B" fill-rule="nonzero">
            <path d="M-0.000493834725,34.8 C-0.1,16.1 15,1 33.7,0.899506165 C52.4,0.8 67.5,15.9 67.6004938,34.6 C67.7,53.3 52.6,68.4 33.9,68.5 L33.8,68.5 C15.2,68.5 0.1,53.4 -0.000493834725,34.8 M1,34.8 C1,52.9 15.7,67.6 33.8,67.6 C51.9,67.6 66.6,52.9 66.6,34.8 C66.6,16.7 52,2.1 33.9,2 L33.8,2 C15.7,2 1,16.7 1,34.8 Z" id="Shape"></path>
            <path d="M24,24.4 C25,24 26,23.4 26.8,22.6 C27.1,24 27.7,25.3 28.6,26.5 C27.8,26.8 27,27.2 26.4,27.8 C26,26.5 25.1,25.3 24,24.4 M35.4,18.4 C34.2,18.3 33,18.5 31.8,18.9 C31.6,17 30.9,15.2 29.8,13.7 C29.9,13.6 32.7,12.5 34.5,12.8 C36.3,13.1 35.5,16.9 35.4,18.4 L35.4,18.4 L35.4,18.4 Z M37.1,52 L38.2,52.7 L29,52.7 C29.9,52.2 30.7,51.8 30.8,51.4 C31.2,49.7 31.2,47.8 30.8,46.1 C30,44.5 28.6,43.3 26.9,42.7 C26.3,42.8 25.7,43.1 25.1,43.4 L26.1,44.1 C25.2,44.7 24.4,45.5 23.9,46.5 C23.4,45.9 22.8,45.4 22.2,44.9 C22.7,43.9 23.5,43.1 24.5,42.5 L25,43 C25.4,42.7 25.8,42.4 26.3,42.3 C24.6,41.7 22.8,41.2 21,41 L21,42.8 C19,42.6 17.1,42.8 15.2,43.5 C15.2,43.3 14.6,40.5 15.3,38.8 C16,37.1 19.8,38.9 21.4,39.2 C21.3,39.6 21.2,40.1 21.1,40.5 C22.4,40.3 23.6,40.2 24.9,40.3 C24.3,39.4 23.4,38.7 22.4,38.3 C21.3,37.8 20.4,37.2 19.5,36.4 L18,37.2 C17.7,35.3 16.7,33.4 15.4,32 C16.9,31.7 18.3,31.1 19.6,30.4 C19.8,31.8 20.1,34.7 21.1,36 C20.5,36 20,36.2 19.5,36.5 C20.5,37.2 21.7,37.7 22.9,38 C22.8,37.5 22.8,37 22.9,36.5 L22.2,36.5 C22.1,35.6 22.1,34.8 22.3,33.9 C23,33.8 23.7,33.9 24.3,34.1 C23.9,34.9 23.7,35.7 23.7,36.6 L22.9,36.6 C22.9,37.2 23,37.7 23.3,38.2 C24.6,38.6 25.8,39.5 26.5,40.7 L29.2,41.4 C29.2,40.9 29.1,40.4 28.9,40 L28.2,40.2 C28,39.3 27.6,38.5 27,37.9 C27.6,37.6 28.3,37.3 29,37.2 C29.4,38 29.6,38.8 29.7,39.7 L28.9,39.7 C29.2,40.2 29.4,40.7 29.5,41.3 L31.1,42 C31.3,39.6 30.5,37.3 29,35.5 L27.4,36.8 C26.9,34.7 23.8,32 23.8,32 C25,31.4 26.1,30.6 27.1,29.6 C29,30.6 30.4,33.5 30.7,34.3 L29.2,35.1 L31,36.6 L31.7,37.6 C32.1,37.3 32.4,36.9 32.7,36.4 L31.7,36.1 C32.4,35.1 32.8,34 33,32.8 C33.7,33.3 34.5,33.6 35.3,33.7 C35.2,34.9 34.8,36.1 34.1,37.1 L33.1,36.6 C32.9,37.2 32.6,37.8 32.1,38.3 C32.7,39.6 33.1,41.1 33.7,42.5 C37.3,39.5 36.3,33.8 35.6,31.2 L33.9,32.5 C32.7,30.6 31.1,29.1 29.2,28 C29.3,27.9 31.4,25.3 33.4,24.8 C35.4,24.3 36.4,28.7 37.3,30.4 L36,31.1 C36.9,32.5 37.6,34 37.9,35.6 L39.5,34.3 L38.8,34 C39.3,33 40.1,32.2 41.1,31.6 C41.6,32.2 42.2,32.7 42.8,33.1 C41.9,33.7 41.1,34.5 40.6,35.5 L39.7,34.6 C39,35.5 38.4,36.6 38,37.7 C38.1,38.9 38,40.2 37.7,41.4 C38.7,40.8 39.8,40.5 41,40.4 C41.3,39.2 42,38.3 43.1,37.7 L42,36.4 C43.2,35.2 45.5,33 46.8,32.7 C48,33.8 48.9,35.1 49.5,36.6 C47.6,37 45.8,37.9 44.3,39.2 L43.4,37.9 C42.8,38.6 42.4,39.4 42.3,40.3 C43.8,40.2 45.4,40.3 46.9,40.5 C47,39.9 47.1,39.4 47,38.8 C47.8,38.7 51,38.8 52.8,40.1 C52.4,41.4 52.1,42.8 52.1,44.2 C52.1,44.2 48.4,42.6 46.3,43 C46.5,42.4 46.7,41.7 46.8,41.1 C44.7,40.9 42.6,41.2 40.6,42 L42.6,42.4 C42.7,42.2 42.8,41.9 42.8,41.7 C43.9,41.9 44.9,42.5 45.7,43.3 C45.1,43.8 44.7,44.5 44.5,45.2 C43.7,44.5 42.7,44 41.6,43.7 L42.3,42.6 C41.4,42.5 40.5,42.4 39.6,42.5 L38,43.6 C37.4,44.2 36.9,44.9 36.6,45.7 C36.9,46.1 37,46.6 37,47.1 C37.1,47.9 36.7,48.6 36,49 C36,50.1 36.4,51.2 37.1,52 L37.1,52 Z M36.1,46.9 C36.2,46.5 36,46.1 35.6,45.9 C35.2,46 35,46.4 35,46.8 C34.9,47.2 35.1,47.6 35.5,47.8 C35.9,47.7 36.2,47.3 36.1,46.9 L36.1,46.9 Z M35.4,45.1 C34.7,45.3 34.4,46.1 34.6,47.2 C34.5,46.5 34.8,45.8 35.3,45.3 C35.6,45.1 35.4,45 35.4,45 L35.4,45 L35.4,45.1 L35.4,45.1 Z M29.3,24 C28.4,22.2 27.1,20.6 25.5,19.4 C25.6,19.3 27.8,17.3 29.6,16.9 C31.4,16.5 32,20.8 32.5,22.3 L30.8,23 C31,23.6 31,24.2 30.8,24.8 C30.7,24.3 30.6,23.7 30.4,23.2 L29.3,24 Z M15.8,34.1 C15.4,34.6 15.3,36.8 15.4,38.3 C13.5,37.7 11.5,37.5 9.5,37.6 C9.9,36.2 10.1,34.8 9.9,33.4 C10.8,34.1 14.4,34.2 15.8,34.1 Z M24.9,29.3 C23.5,29.4 22.2,29.9 21,30.6 C20.9,28.7 19.1,26 18.2,24.6 C20,24.5 23.2,22.9 23.2,22.9 C22.8,24.7 23.8,27.5 24.9,29.3 C24.8,29.3 24.9,29.3 24.9,29.3 Z M39.9,20.5 C38.9,20.3 37.9,20.3 36.9,20.5 C36.7,19.2 36.5,16.5 37,15.4 C38.3,15.2 39.6,15.3 40.9,15.7 C40.2,17.2 39.8,18.8 39.9,20.5 L39.9,20.5 Z M23.2,22.1 C23.2,22.1 21.5,19.6 20.1,19.1 C20.9,18.5 21.6,17.7 22.1,16.9 C23.4,17.6 24.4,18.6 25.1,19.9 C24.3,20.5 23.7,21.3 23.2,22.1 Z M42.7,29 C44.6,28 46.5,24.4 46.5,24.4 C47.4,25.5 48.4,26.4 49.6,27.2 C49,29.3 46.6,31.4 45.9,31.8 C45.6,31.4 45.3,31 44.9,30.7 C44.1,31.5 43.5,32.6 43.2,33.7 C43.4,32.5 43.9,31.4 44.5,30.4 L42.7,29 Z M51.7,39.3 C51.9,38.6 51,36.3 50.2,34.7 C52.5,34.5 54.7,33.8 56.7,32.6 C56.9,34.2 57.4,35.8 58.2,37.2 C57,37 53.1,38.5 51.7,39.3 L51.7,39.3 Z M48.6,30.8 C50.2,29.8 52.4,27.7 52.9,26 C53.9,27.4 55.1,28.6 56.5,29.6 C55.1,30.4 52.3,32.1 51.4,33.6 C50.7,32.4 49.8,31.5 48.6,30.8 L48.6,30.8 Z M40.6,22.8 C41.2,21.6 42.5,18.2 42.4,17.2 C43.6,17.9 45,18.3 46.4,18.5 C45.5,20.2 44.9,22.1 44.7,24 C43.4,23.3 41.3,22.5 40.7,22.7 L40.7,22.7 L40.6,22.8 Z M39.3,28.8 C39,30.1 38.4,31.4 37.6,32.5 C38.2,31.3 38.5,30 38.6,28.6 L37,28.2 C38,26.9 38.2,24 38.3,22.6 C39.7,23.3 41.1,23.8 42.6,24 C41.4,25 40.6,27.6 40.4,29.4 L39.3,28.8 Z M33.4,20.9 C34.4,20.9 35.3,20.7 36.2,20.3 C36.2,21.7 36.5,23 37,24.3 C36,24.3 35.1,24.5 34.2,24.9 C34.2,23.5 33.9,22.2 33.4,20.9 L33.4,20.9 Z M52.5,21.8 C51.5,22.6 50.6,23.6 50.1,24.8 C49.4,24.3 48.7,24 47.9,23.8 C48.3,22.8 49,20.8 49.7,20.2 C50.7,20.5 51.7,21 52.5,21.7 C52.5,21.7 52.5,21.8 52.5,21.8 Z M15.8,29.5 C15.2,27.9 12.7,26 12.7,26 C13.6,25.4 14.4,24.8 15.1,24 C16.5,24.8 17.6,25.9 18.3,27.3 C17.4,27.9 16.5,28.6 15.8,29.5 Z" id="Shape"></path>
            <polygon id="Path" points="16.5 52.3 51 52.3 51 52.8 16.5 52.8"></polygon>
            <path d="M14.5,55.7 L14.3,55.7 C9.2,51 6.1,44.6 5.4,37.7 C5.5,37.5 5.6,37.5 5.8,37.5 C5.8,37.5 5.9,37.6 5.9,37.6 C6.6,44.3 9.7,50.6 14.7,55.2 C14.8,55.3 14.8,55.5 14.7,55.6 L14.5,55.6 C14.5,55.6 14.5,55.7 14.5,55.7 Z" id="Path"></path>
            <path d="M53,55.7 L52.8,55.7 C52.7,55.6 52.7,55.4 52.8,55.3 C57.8,50.7 60.9,44.4 61.6,37.6 C61.5,37.4 61.6,37.3 61.8,37.2 C62,37.1 62.1,37.2 62.2,37.4 C62.2,37.5 62.2,37.6 62.1,37.7 C61.4,44.6 58.2,51 53.2,55.7 C53.2,55.7 53,55.7 53,55.7 Z" id="Path"></path>
            <text id="Est.-2002" font-family="Helvetica" font-size="6.6" font-weight="normal">
                <tspan x="19.8" y="60.5">Est. 2002</tspan>
            </text>
            <text id="I" transform="translate(5.381100, 34.728800) rotate(-91.100164) translate(-5.381100, -34.728800) " font-family="Helvetica" font-size="4" font-weight="normal">
                <tspan x="4.38111566" y="36.2288392">I</tspan>
            </text>
            <text id="N" transform="translate(5.556494, 31.957606) rotate(-84.301618) translate(-5.556494, -31.957606) " font-family="Helvetica" font-size="4.0002" font-weight="normal">
                <tspan x="4.05643095" y="33.4575017">N</tspan>
            </text>
            <text id="T" transform="translate(6.163300, 28.308800) rotate(-77.402208) translate(-6.163300, -28.308800) " font-family="Helvetica" font-size="4" font-weight="normal">
                <tspan x="4.66333869" y="29.8088645">T</tspan>
            </text>
            <text id="E" transform="translate(7.042000, 25.267300) rotate(-70.659121) translate(-7.042000, -25.267300) " font-family="Helvetica" font-size="3.9848" font-weight="normal">
                <tspan x="5.5419442" y="26.767207">E</tspan>
            </text>
            <text id="R" transform="translate(8.310700, 22.232600) rotate(-63.947420) translate(-8.310700, -22.232600) " font-family="Helvetica" font-size="4.0072" font-weight="normal">
                <tspan x="6.8106856" y="23.732576">R</tspan>
            </text>
            <text id="A" transform="translate(10.055500, 19.226500) rotate(-57.098153) translate(-10.055500, -19.226500) " font-family="Helvetica" font-size="4" font-weight="normal">
                <tspan x="8.5555042" y="20.726507">A</tspan>
            </text>
            <text id="C" transform="translate(12.024700, 16.549100) rotate(-50.266324) translate(-12.024700, -16.549100) " font-family="Helvetica" font-size="4.0049" font-weight="normal">
                <tspan x="10.5247468" y="18.049178">C</tspan>
            </text>
            <text id="T" transform="translate(14.230050, 14.189450) rotate(-44.193755) translate(-14.230050, -14.189450) " font-family="Helvetica" font-size="4.0368" font-weight="normal">
                <tspan x="12.7300219" y="15.6894032">T</tspan>
            </text>
            <text id="I" transform="translate(16.239200, 12.463400) rotate(-38.479048) translate(-16.239200, -12.463400) " font-family="Helvetica" font-size="3.9754" font-weight="normal">
                <tspan x="15.2392457" y="13.9635142">I</tspan>
            </text>
            <text id="O" transform="translate(18.868650, 10.655600) rotate(-32.798568) translate(-18.868650, -10.655600) " font-family="Helvetica" font-size="4" font-weight="normal">
                <tspan x="16.8686028" y="12.1555409">O</tspan>
            </text>
            <text id="N" transform="translate(21.614550, 9.102150) rotate(-25.301755) translate(-21.614550, -9.102150) " font-family="Helvetica" font-size="4.0001" font-weight="normal">
                <tspan x="20.1144993" y="10.6020655">N</tspan>
            </text>
            <text id="D" transform="translate(26.597700, 7.312800) rotate(-14.453115) translate(-26.597700, -7.312800) " font-family="Helvetica" font-size="4.007" font-weight="normal">
                <tspan x="25.097626" y="8.8126766">D</tspan>
            </text>
            <text id="E" transform="translate(30.191650, 6.617550) rotate(-7.498848) translate(-30.191650, -6.617550) " font-family="Helvetica" font-size="3.9898" font-weight="normal">
                <tspan x="28.6917218" y="8.11766974">E</tspan>
            </text>
            <text id="S" transform="translate(33.460400, 6.400700) rotate(-1.145992) translate(-33.460400, -6.400700) " font-family="Helvetica" font-size="4.0008" font-weight="normal">
                <tspan x="31.9604" y="7.90069995">S</tspan>
            </text>
            <text id="I" transform="translate(35.794650, 6.467550) rotate(3.698210) translate(-35.794650, -6.467550) " font-family="Helvetica" font-size="4" font-weight="normal">
                <tspan x="34.7946677" y="7.96759418">I</tspan>
            </text>
            <text id="G" transform="translate(39.024150, 6.858450) rotate(9.700633) translate(-39.024150, -6.858450) " font-family="Helvetica" font-size="4.02" font-weight="normal">
                <tspan x="37.0241533" y="8.35845408">G</tspan>
            </text>
            <text id="N" transform="translate(42.072950, 7.604250) rotate(17.001630) translate(-42.072950, -7.604250) " font-family="Helvetica" font-size="4" font-weight="normal">
                <tspan x="40.5729444" y="9.10424069">N</tspan>
            </text>
            <text id="F" transform="translate(46.920400, 9.654300) rotate(27.297930) translate(-46.920400, -9.654300) " font-family="Helvetica" font-size="4.0098" font-weight="normal">
                <tspan x="45.4204571" y="11.1543951">F</tspan>
            </text>
            <text id="O" transform="translate(49.996400, 11.474700) rotate(34.001541) translate(-49.996400, -11.474700) " font-family="Helvetica" font-size="4" font-weight="normal">
                <tspan x="47.9964544" y="12.974768">O</tspan>
            </text>
            <text id="U" transform="translate(52.457250, 13.434150) rotate(41.347089) translate(-52.457250, -13.434150) " font-family="Helvetica" font-size="3.9962" font-weight="normal">
                <tspan x="50.9572929" y="14.9342214">U</tspan>
            </text>
            <text id="N" transform="translate(55.116450, 16.040650) rotate(48.798983) translate(-55.116450, -16.040650) " font-family="Helvetica" font-size="4" font-weight="normal">
                <tspan x="53.6164564" y="17.5406607">N</tspan>
            </text>
            <text id="D" transform="translate(57.383100, 19.004600) rotate(55.998459) translate(-57.383100, -19.004600) " font-family="Helvetica" font-size="4" font-weight="normal">
                <tspan x="55.8831408" y="20.504668">D</tspan>
            </text>
            <text id="A" transform="translate(59.213450, 22.166050) rotate(63.301709) translate(-59.213450, -22.166050) " font-family="Helvetica" font-size="4" font-weight="normal">
                <tspan x="57.7134245" y="23.6660074">A</tspan>
            </text>
            <text id="T" transform="translate(60.480850, 25.260250) rotate(70.117242) translate(-60.480850, -25.260250) " font-family="Helvetica" font-size="3.9984" font-weight="normal">
                <tspan x="58.9808349" y="26.7602248">T</tspan>
            </text>
            <text id="I" transform="translate(61.204650, 27.786700) rotate(75.298138) translate(-61.204650, -27.786700) " font-family="Helvetica" font-size="4.0002" font-weight="normal">
                <tspan x="60.2046081" y="29.2865953">I</tspan>
            </text>
            <text id="O" transform="translate(61.884650, 30.950150) rotate(81.297834) translate(-61.884650, -30.950150) " font-family="Helvetica" font-size="4" font-weight="normal">
                <tspan x="59.8846261" y="32.4501201">O</tspan>
            </text>
            <text id="N" transform="translate(62.133501, 34.065599) rotate(88.699164) translate(-62.133501, -34.065599) " font-family="Helvetica" font-size="3.9998" font-weight="normal">
                <tspan x="60.6335649" y="35.5657043">N</tspan>
            </text>
        </g>
    </g>
</svg>