<?xml version="1.0" encoding="UTF-8"?>
<svg width="470px" height="506px" viewBox="0 0 470 506" version="1.1" xmlns="http://www.w3.org/2000/svg" xmlns:xlink="http://www.w3.org/1999/xlink">
    <title>Iron Hack</title>
    <g id="Page-1" stroke="none" stroke-width="1" fill="none" fill-rule="evenodd">
        <g id="Iron-Hack" fill-rule="nonzero">
            <path d="M219.546794,3.53062738 L15.4254912,115.55781 C6.89941341,120.265721 0,131.921648 0,141.616824 L0,364.38344 C0,374.078616 6.89941341,385.790413 15.4254912,390.442453 L219.546794,502.469858 C228.072134,507.176714 241.927656,507.176714 250.45405,502.469858 L454.574298,390.442453 C463.100692,385.734543 470,374.078616 470,364.38344 L470,141.616824 C470,131.921648 463.100692,120.20985 454.574298,115.55781 L250.45405,3.53062738 C246.190326,1.17687228 240.580884,0 235.028348,0 C229.418906,0 223.809464,1.17687228 219.546794,3.53062738 Z" id="Path" fill="#2DC5FA"></path>
            <path d="M109,240.157643 L125.646905,240.157643 L125.646905,157.898373 L109,157.898373 L109,240.157643 Z M159.890497,195.488418 L159.890497,170.76519 C163.298169,170.316003 167.097299,170.090882 170.337054,170.090882 C182.291719,170.090882 186.368962,173.743561 186.368962,182.845666 C186.368962,193.296388 180.279859,195.937605 170.00122,195.937605 C166.761464,195.937605 163.577332,195.881588 160.337577,195.544434 C160.281954,195.544434 160.281954,195.544434 160.225282,195.544434 L160.16966,195.544434 C160.16966,195.544434 160.114037,195.544434 160.058414,195.544434 L160.114037,195.544434 L160.058414,195.544434 L160.002792,195.544434 C160.002792,195.544434 160.002792,195.544434 160.058414,195.544434 L160.002792,195.544434 C160.002792,195.488418 159.94612,195.488418 159.890497,195.488418 C159.94612,195.488418 159.890497,195.488418 159.890497,195.488418 Z M143.355887,159.303006 L143.355887,240.157643 L159.890497,240.157643 L159.890497,208.748405 C162.795467,208.916454 166.537925,209.085559 169.889974,209.085559 L186.648124,240.10057 L205.753969,240.10057 L187.095204,207.174667 C196.704274,204.253369 202.792327,197.398254 202.792327,182.845666 C202.792327,160.595606 187.989364,157 169.945597,157 C160.16966,157.056016 150.450394,158.011462 143.355887,159.303006 Z M232.846381,199.028008 C232.846381,182.227374 233.182216,170.76519 248.711421,170.76519 C264.185004,170.76519 264.576461,182.227374 264.576461,199.028008 C264.576461,215.771569 264.185004,227.233753 248.711421,227.233753 C233.237839,227.233753 232.846381,215.771569 232.846381,199.028008 Z M216.032609,199.028008 C216.032609,228.807491 223.293984,241 248.767044,241 C274.184481,241 281.446906,228.807491 281.446906,199.028008 C281.446906,169.248525 274.184481,157.056016 248.767044,157.056016 C223.293984,157.056016 216.032609,169.248525 216.032609,199.028008 Z M296.976111,169.529663 L296.976111,240.10057 L311.891368,240.10057 L311.891368,179.587214 L337.86818,230.156108 C342.057717,238.358783 345.91142,241 352.000523,241 C358.368788,241 362,237.179272 362,228.470337 L362,157.898373 L347.084743,157.898373 L347.084743,218.187664 L321.10898,167.843892 C316.975065,159.921298 312.674283,157.056016 307.031211,157.056016 C300.77524,157.056016 296.976111,160.764712 296.976111,169.529663 Z" id="Shape" fill="#FFFFFF"></path>
            <path d="M157.522931,269.789003 L157.522931,305.19444 L113.553712,305.19444 L113.553712,269.789003 L107,269.789003 L107,348.210997 L113.553712,348.210997 L113.553712,310.944404 L157.522931,310.944404 L157.522931,348.210997 L164.076643,348.210997 L164.076643,269.789003 L157.522931,269.789003 Z M356.589299,269.789003 L320.5744,306.095855 L320.5744,269.789003 L314.020688,269.789003 L314.020688,348.210997 L320.5744,348.210997 L320.5744,309.704694 L357.261717,348.210997 L366,348.210997 L327.183884,307.674921 L364.935074,269.789003 L356.589299,269.789003 Z M211.462674,277.794623 L226.921984,319.401792 L195.947592,319.401792 L211.462674,277.794623 Z M206.813621,273.454048 L178.471027,348.153731 L185.193107,348.153731 L193.874565,324.869666 L228.993958,324.869666 L237.620697,348.153731 L244.621636,348.153731 L216.615777,273.454048 C215.49508,270.5218 213.982928,269 211.686813,269 C209.389647,269 207.934319,270.465594 206.813621,273.454048 Z M251.23112,308.971897 C251.23112,336.766216 257.280781,349 282.262335,349 C288.703451,349 294.416377,348.323409 299.289569,347.364728 L298.672922,342.065472 C294.360605,342.685857 290.047236,343.248976 285.678094,343.248976 C261.089047,343.248976 257.896375,332.030078 257.896375,309.028103 C257.896375,286.082334 260.584996,274.749964 285.678094,274.749964 C289.87992,274.749964 294.640516,275.370349 298.61715,275.990734 L299.233797,270.5218 C294.360605,269.563119 288.479312,269 282.205511,269 C257.280781,269 251.23112,281.121373 251.23112,308.971897 Z" id="Shape" fill="#FFFFFF"></path>
        </g>
    </g>
</svg>