<?xml version="1.0" encoding="UTF-8"?>
<svg width="141px" height="141px" viewBox="0 0 141 141" version="1.1" xmlns="http://www.w3.org/2000/svg" xmlns:xlink="http://www.w3.org/1999/xlink">
    <!-- Generator: Sketch 56.2 (81672) - https://sketch.com -->
    <title>Group 2</title>
    <desc>Created with Sketch.</desc>
    <defs>
        <rect id="path-1" x="0" y="0" width="141" height="141" rx="32"></rect>
    </defs>
    <g id="Page-15" stroke="none" stroke-width="1" fill="none" fill-rule="evenodd">
        <g id="Artboard" transform="translate(-1127.000000, -197.000000)">
            <g id="Group-2" transform="translate(1127.000000, 197.000000)">
                <mask id="mask-2" fill="white">
                    <use xlink:href="#path-1"></use>
                </mask>
                <use id="Rectangle-Copy-2" fill="#00D2DD" xlink:href="#path-1"></use>
                <path d="M101.250161,85.5269473 C105.649725,89.2368599 115.226413,95.8481639 106.365066,107.072039 C97.50372,118.295913 72.5742757,111.202277 57.305166,105.23726 C42.0360563,99.2722437 39.3451706,86.6266103 36.7517511,70.6499954 C34.1583316,54.6733805 31.9407116,40.1183536 37.2300357,30.5295581 C42.5193599,20.9407625 58.528088,19.0265886 70.1717611,26.8871253 C81.8154342,34.7476621 78.0680904,52.3492676 81.8609933,62.735253 C85.6538962,73.1212383 96.8505961,81.8170347 101.250161,85.5269473 Z" id="Path-19" fill="#FFF4E5" mask="url(#mask-2)"></path>
                <path d="M96.2501606,95.5269473 C100.649725,99.2368599 110.226413,105.848164 101.365066,117.072039 C92.50372,128.295913 67.5742757,121.202277 52.305166,115.23726 C37.0360563,109.272244 34.3451706,96.6266103 31.7517511,80.6499954 C29.1583316,64.6733805 26.9407116,50.1183536 32.2300357,40.5295581 C37.5193599,30.9407625 53.528088,29.0265886 65.1717611,36.8871253 C76.8154342,44.7476621 73.0680904,62.3492676 76.8609933,72.735253 C80.6538962,83.1212383 91.8505961,91.8170347 96.2501606,95.5269473 Z" id="Path-19-Copy" fill="#FFC6C6" opacity="0.606375558" mask="url(#mask-2)"></path>
            </g>
        </g>
    </g>
</svg>