<?xml version="1.0" encoding="UTF-8"?>
<svg width="271px" height="273px" viewBox="0 0 271 273" version="1.1" xmlns="http://www.w3.org/2000/svg" xmlns:xlink="http://www.w3.org/1999/xlink">
    <!-- Generator: Sketch 59.1 (86144) - https://sketch.com -->
    <title>Loceye</title>
    <desc>Created with Sketch.</desc>
    <g id="Page-1" stroke="none" stroke-width="1" fill="none" fill-rule="evenodd">
        <g id="Loceye" fill="#2A2B2A" fill-rule="nonzero">
            <g id="XMLID_2194_">
                <g id="XMLID_2203_">
                    <path d="M230.2,106.1 C251.1,171.5 219.6,241.1 159.1,269.6 C164.9,268.6 170.7,267.1 176.5,265.3 C247.7,242.6 287,166.4 264.2,95.2 C241.5,24 165.4,-15.3 94.2,7.4 C88.4,9.2 82.8,11.5 77.5,14 C143.3,2.2 209.3,40.7 230.2,106.1 Z" id="XMLID_2211_"></path>
                    <path d="M48.4,88 C81.8,28 154,3.3 216.2,27.9 C211.5,24.4 206.4,21.1 201.1,18.2 C135.8,-18.2 53.4,5.3 17.1,70.6 C-19.2,135.9 4.2,218.3 69.5,254.6 C74.8,257.6 80.2,260.1 85.7,262.3 C32.1,222.4 15,148 48.4,88 Z" id="XMLID_2210_"></path>
                    <path d="M153.7,234.6 C86.2,247.2 21.1,207.3 0.4,143.8 C0.7,149.7 1.4,155.6 2.5,161.6 C16.2,235.1 86.9,283.5 160.4,269.8 C233.9,256.1 282.3,185.4 268.6,112 C267.5,106 266,100.2 264.2,94.6 C267.6,161.3 221.3,222 153.7,234.6 Z" id="XMLID_2209_"></path>
                </g>
                <g id="XMLID_2195_" transform="translate(102.000000, 53.000000)">
                    <g id="XMLID_2199_" transform="translate(73.000000, 26.000000)">
                        <path d="M26.4,4.6 C28.8,8.6 27.8,13.8 24.1,16 C20.4,18.2 15.4,16.8 12.9,12.7 C10.5,8.6 11.5,3.5 15.2,1.3 C19,-0.9 24,0.6 26.4,4.6 Z" id="XMLID_2202_"></path>
                        <path d="M9.8,11.4 C11.3,13.9 10.7,17.1 8.3,18.5 C6,19.9 2.8,19 1.3,16.5 C-0.2,14 0.4,10.8 2.8,9.4 C5.2,7.9 8.3,8.9 9.8,11.4 Z" id="XMLID_2201_"></path>
                        <path d="M22.2,21.1 C23.1,22.5 22.7,24.3 21.4,25.1 C20.1,25.9 18.3,25.4 17.5,23.9 C16.6,22.5 17,20.7 18.3,19.9 C19.6,19.1 21.3,19.6 22.2,21.1 Z" id="XMLID_2200_"></path>
                    </g>
                    <path d="M65.2,1.1 C31.8,-1.2 2.8,24.8 0.5,59.1 C-1.8,93.4 23.4,123 56.8,125.3 C90.2,127.6 119.2,101.6 121.5,67.3 C123.9,33 98.6,3.4 65.2,1.1 Z M95.4,82.7 C79.2,89.8 59.7,80.8 51.8,62.7 C43.9,44.6 50.5,24.1 66.7,17.1 C82.9,10 102.4,19 110.3,37.1 C118.3,55.2 111.6,75.6 95.4,82.7 Z" id="XMLID_2196_"></path>
                </g>
            </g>
        </g>
    </g>
</svg>