<?xml version="1.0" encoding="UTF-8" standalone="no"?>
<!-- Created with Inkscape (http://www.inkscape.org/) -->

<svg
   xmlns:dc="http://purl.org/dc/elements/1.1/"
   xmlns:cc="http://creativecommons.org/ns#"
   xmlns:rdf="http://www.w3.org/1999/02/22-rdf-syntax-ns#"
   xmlns:svg="http://www.w3.org/2000/svg"
   xmlns="http://www.w3.org/2000/svg"
   version="1.1"
   width="16"
   height="16"
   id="svg9207">
  <defs
     id="defs9209" />
  <metadata
     id="metadata9212">
    <rdf:RDF>
      <cc:Work
         rdf:about="">
        <dc:format>image/svg+xml</dc:format>
        <dc:type
           rdf:resource="http://purl.org/dc/dcmitype/StillImage" />
        <dc:title></dc:title>
      </cc:Work>
    </rdf:RDF>
  </metadata>
  <g
     transform="translate(-0.68222925,-1035.4285)"
     id="layer1">
    <g
       transform="matrix(0.45635098,0,0,0.45635098,-0.78756612,572.60083)"
       id="layer1-4">
      <path
         d="m 17.899045,1039.6522 2.072922,0 c 0,0 1.927274,-7.2415 0.862859,-13.3502 -1.669715,-7.7218 -4.207994,-10.2615 -4.207994,-10.2615 l -2.275971,-0.8068 c 0,0 3.965428,5.2177 4.174116,12.3137 0.208846,7.0961 -0.625932,12.1048 -0.625932,12.1048 m 4.591232,-2.922 c 0,0 13.565993,2.5047 13.774475,0.4173 0.208907,-2.0867 -3.547895,-7.0961 -6.678539,-10.2264 -3.130364,-3.1304 -8.790461,-7.9375 -8.790461,-7.9375 0,0 2.957078,3.7634 3.16585,10.0248 0.208763,6.2608 -1.25123,7.7218 -1.25123,7.7218 m -6.898553,-0.2089 c 0,0 0.618598,-4.5141 0.409896,-9.3144 -0.20884,-4.8005 -1.85675,-7.8059 -1.85675,-7.8059 0,0 -9.8231602,12.1115 -9.4056193,14.1988 0.4171758,2.0867 10.8524733,2.9215 10.8524733,2.9215 m 2.660318,4.4302 c -11.4491759,-1.6357 -14.9930799,-2.998 -14.9930799,-2.998 -1.3630833,0.8172 2.9984973,8.1775 13.3575139,10.3581 10.358583,2.1808 21.535056,-3.5434 20.444812,-4.9064 -1.090509,-1.3633 -7.360222,-0.8178 -18.809246,-2.4537 z"
         id="path8381" />
    </g>
  </g>
</svg>
