<?xml version="1.0" encoding="UTF-8"?>
<svg width="567px" height="267px" viewBox="0 0 567 267" version="1.1" xmlns="http://www.w3.org/2000/svg" xmlns:xlink="http://www.w3.org/1999/xlink">
    <!-- Generator: Sketch 58 (84663) - https://sketch.com -->
    <title>Shape</title>
    <desc>Created with Sketch.</desc>
    <g id="Page-1" stroke="none" stroke-width="1" fill="none" fill-rule="evenodd">
        <path d="M433.969637,0 C403.115536,0 365.106861,18.7839196 317.037066,57.4698492 C304.292981,67.9798995 292.666798,77.8190955 282.829259,86.7638191 C273.43888,78.0427136 261.812697,67.9798995 248.621451,57.4698492 C201.222397,18.7839196 162.542981,0 132.359621,0 C59.4723975,0 0,60.1532663 0,133.5 C0,207.517588 59.4723975,267 132.359621,267 C163.213722,267 201.222397,248.21608 249.292192,209.530151 C262.036278,199.020101 273.662461,189.180905 283.5,180.236181 C292.890379,188.957286 304.516562,199.020101 317.707808,209.530151 C365.777603,248.21608 403.786278,267 434.640379,267 C507.527603,267 567,206.846734 567,133.5 C566.329259,60.1532663 506.633281,0 433.969637,0 Z M206.02027,157.158348 C156.074324,196.986231 135.114865,199 131.77027,199 C96.5405405,199 68,169.688468 68,133.888124 C68,98.0877797 96.7635135,69 131.77027,69 C135.560811,69 156.074324,71.2375215 206.02027,110.841652 C215.831081,118.672978 225.195946,126.951807 233,134.111876 C224.75,141.271945 216.054054,148.879518 206.02027,157.158348 Z M301.734104,163 L258.33815,157.171091 L255,113.678466 L282.595376,87 L288.381503,130.492625 L332,133.855457 L301.734104,163 Z M433.634718,199 C429.829013,199 409.233431,196.766323 359.087667,157.230241 C349.237606,149.412371 339.835276,141.147766 332,134 C339.835276,126.852234 349.013741,119.034364 358.416072,111.439863 C408.561836,71.233677 429.605148,69 432.963123,69 C468.333796,69 496.988518,98.2611684 496.988518,134 C497.660113,169.738832 468.781526,199 433.634718,199 Z" id="Shape" fill="#FF606A" fill-rule="nonzero"></path>
    </g>
</svg>