<?xml version="1.0" encoding="UTF-8"?>
<svg width="138px" height="124px" viewBox="0 0 138 124" version="1.1" xmlns="http://www.w3.org/2000/svg" xmlns:xlink="http://www.w3.org/1999/xlink">
    <!-- Generator: Sketch 64 (93537) - https://sketch.com -->
    <title>Monzo</title>
    <desc>Created with Sketch.</desc>
    <g id="Page-1" stroke="none" stroke-width="1" fill="none" fill-rule="evenodd">
        <g id="Monzo" transform="translate(0.000000, -1.000000)" fill-rule="nonzero">
            <g id="g10" transform="translate(69.000000, 62.510130) scale(-1, 1) rotate(-180.000000) translate(-69.000000, -62.510130) translate(0.000000, 0.010130)">
                <g id="g12" transform="translate(-0.000000, -0.000000)">
                    <path d="M137.21535,34.4026825 C137.21535,32.7275875 136.549712,31.12089 135.364987,29.9361713 L107.07465,1.64583 C105.483212,0.05439875 102.761425,1.18171375 102.761425,3.43267875 L102.761425,66.824275 L136.822075,100.694388 L137.21535,100.694388 L137.21535,34.4026825" id="path14" fill="#E83860"></path>
                    <path d="M114.639137,123.269988 C113.652275,124.25685 112.052912,124.25685 111.06605,123.269988 L69,81.20455 L68.41558,81.20455 L68.41558,33.7260488 L69,32.4790413 L102.761425,66.2404625 L137.21535,100.694388 L114.639137,123.269988" id="path16" fill="#DFC586"></path>
                    <path d="M0.78465,34.4026825 C0.78465,32.7275875 1.45023,31.12089 2.63482625,29.9361712 L30.92474,1.64583 C32.5167812,0.05439875 35.23858,1.18171375 35.23858,3.43267875 L35.23858,66.824275 L1.1773175,100.694387 L0.78465,100.694387 L0.78465,34.4026825" id="path18" fill="#327787"></path>
                    <path d="M26.9339487,123.269988 C25.9470912,124.25685 24.347355,124.25685 23.3604962,123.269988 L0.78465,100.694388 L35.23858,66.2404625 L69,32.4790412 L69,81.20455 L26.9339487,123.269987" id="path20" fill="#8ABB9C"></path>
                </g>
            </g>
        </g>
    </g>
</svg>