<?xml version="1.0" encoding="UTF-8"?>
<svg width="112px" height="113px" viewBox="0 0 112 113" version="1.1" xmlns="http://www.w3.org/2000/svg" xmlns:xlink="http://www.w3.org/1999/xlink">
    <!-- Generator: Sketch 59.1 (86144) - https://sketch.com -->
    <title>optimizely_logo_full_color</title>
    <desc>Created with Sketch.</desc>
    <g id="Page-1" stroke="none" stroke-width="1" fill="none" fill-rule="evenodd">
        <g id="optimizely_logo_full_color" fill="#0037FF" fill-rule="nonzero">
            <g id="Group">
                <path d="M41.3,12.75 C36.05,18 32.55,24.3 30.8,31.3 C23.8,33.05 17.5,36.55 12.25,41.8 C4.2,49.85 0,60.35 0,70.85 L29.4,41.45 C29.4,43.9 29.75,46.7 30.1,49.15 L0.7,78.55 C1.4,82.75 2.8,86.95 4.9,90.8 L23.8,71.9 C23.45,67 25.2,62.1 29.05,58.6 C30.1,57.55 30.8,56.85 31.85,56.15 L31.85,56.15 C33.95,61.75 37.1,66.65 41.3,71.2 C45.5,75.4 50.75,78.9 56.35,80.65 L56.35,80.65 C55.65,81.7 54.95,82.75 53.9,83.45 C50.05,87.3 45.15,88.7 40.6,88.7 L21.7,107.6 C25.55,109.7 29.75,111.1 33.95,111.8 L63.35,82.4 C65.8,82.75 68.6,83.1 71.05,83.1 L41.65,112.5 C52.15,112.5 62.65,108.3 70.35,100.25 C75.6,95 79.1,88.35 81.2,81.7 C87.85,79.95 94.5,76.45 99.75,70.85 C115.85,54.75 115.85,28.5 99.75,12.4 C83.65,-3.7 57.4,-3.7 41.3,12.75 Z M83.3,54.4 C76.3,61.4 65.1,61.4 58.45,54.4 C51.8,47.4 51.45,36.2 58.45,29.55 C65.45,22.55 76.65,22.55 83.3,29.55 C89.95,36.55 89.95,47.4 83.3,54.4 Z" id="Shape"></path>
                <path d="M28.7,83.8 C27.3,82.4 26.25,80.65 25.2,78.9 L8.05,96.05 C9.1,97.45 10.5,99.2 11.9,100.6 C13.3,102 14.7,103.4 16.45,104.45 L33.6,87.3 C31.85,86.25 30.45,85.2 28.7,83.8 Z" id="Path"></path>
            </g>
        </g>
    </g>
</svg>