<?xml version="1.0" encoding="UTF-8"?>
<svg width="200px" height="112px" viewBox="0 0 200 112" version="1.1" xmlns="http://www.w3.org/2000/svg" xmlns:xlink="http://www.w3.org/1999/xlink">
    <!-- Generator: Sketch 64 (93537) - https://sketch.com -->
    <title>optimalworkshop</title>
    <desc>Created with Sketch.</desc>
    <g id="Page-1" stroke="none" stroke-width="1" fill="none" fill-rule="evenodd">
        <g id="optimalworkshop" fill="#000000" fill-rule="nonzero">
            <path d="M144.444444,0 L55.5555556,0 C24.8148148,0 0,24.7910686 0,55.5023923 C0,86.2137161 24.8148148,111.004785 55.5555556,111.004785 L144.444444,111.004785 C175.185185,111.004785 200,86.2137161 200,55.5023923 C200,24.7910686 175.185185,0 144.444444,0 L144.444444,0 Z M144.444444,7.40031898 C171.111111,7.40031898 192.592593,28.861244 192.592593,55.5023923 C192.592593,82.1435407 171.111111,103.604466 144.444444,103.604466 L55.5555556,103.604466 C28.8888889,103.604466 7.40740741,82.1435407 7.40740741,55.5023923 C7.40740741,28.861244 28.8888889,7.40031898 55.5555556,7.40031898 L144.444444,7.40031898 L144.444444,7.40031898 Z M90.7407407,36.261563 C90.3703704,35.891547 90.3703704,35.1515152 90.3703704,34.4114833 C90.3703704,31.8213716 92.5925926,29.9712919 94.8148148,29.9712919 C96.6666667,29.9712919 98.5185185,31.4513557 99.2592593,33.3014354 L110.740741,67.7129187 L121.851852,33.3014354 C122.222222,31.4513557 124.074074,29.9712919 126.296296,29.9712919 L127.037037,29.9712919 C129.259259,29.9712919 131.111111,31.4513557 131.481481,33.3014354 L142.592593,67.3429027 L154.444444,33.3014354 C155.185185,31.4513557 156.666667,30.3413078 158.888889,29.9712919 C161.111111,29.9712919 163.333333,31.8213716 163.333333,34.0414673 C163.333333,34.7814992 163.333333,35.1515152 162.962963,35.891547 L148.148148,77.3333333 C147.777778,79.553429 145.555556,81.0334928 143.703704,81.0334928 L142.962963,81.0334928 C140.740741,81.0334928 138.888889,79.553429 138.518519,77.3333333 L127.407407,44.7719298 L116.296296,77.3333333 C115.925926,79.553429 114.074074,81.0334928 111.851852,81.0334928 L111.111111,81.0334928 C108.888889,81.0334928 107.037037,79.553429 106.666667,77.3333333 L90.7407407,36.261563 Z M77.4074074,55.5023923 L77.4074074,55.5023923 C77.7777778,45.8819777 70.3703704,38.1116427 61.1111111,37.7416268 L60.3703704,37.7416268 C51.1111111,37.7416268 43.3333333,45.1419458 43.3333333,54.7623604 L43.3333333,55.5023923 C42.962963,64.7527911 50.3703704,72.8931419 59.6296296,73.2631579 L60.3703704,73.2631579 C69.6296296,73.2631579 77.4074074,65.8628389 77.4074074,56.6124402 L77.4074074,55.5023923 Z M34.4444444,55.5023923 L34.4444444,55.5023923 C34.4444444,41.4417863 45.5555556,29.6012759 59.6296296,29.6012759 L60.3703704,29.6012759 C74.4444444,29.23126 85.9259259,40.3317384 86.2962963,54.3923445 L86.2962963,55.5023923 C86.2962963,69.5629984 75.1851852,81.4035088 61.1111111,81.4035088 L60,81.4035088 C45.9259259,81.7735247 34.4444444,70.6730463 34.0740741,56.6124402 C34.4444444,56.2424242 34.4444444,55.8724083 34.4444444,55.5023923 L34.4444444,55.5023923 Z" id="ow-logo30"></path>
        </g>
    </g>
</svg>