<svg height="109" viewBox="0 0 367 109" width="367" xmlns="http://www.w3.org/2000/svg"><g fill="#f2f2f2" fill-rule="nonzero"><path d="m132.676296 44.3379501c2.001268 0 3.709771.2973193 5.125562.8919668s2.730434 1.5609351 3.943969 2.898892l-3.097692 3.567867c-.702573-1.0618705-1.527552-1.8423336-2.47496-2.3414127-.947409-.4990792-2.081089-.748615-3.401075-.748615-1.107084 0-1.958675.1911338-2.554797.5734072s-.894179.8919636-.894179 1.5290859c0 .5309352.314024.9609863.942081 1.2901662.583197.305667 1.547292.5884403 2.892313.8483271l.317152.0595676c2.916741.5309353 4.997816 1.3060891 6.243286 2.3254848 1.245464 1.0193957 1.868196 2.4528993 1.868196 4.300554 0 1.3379568-.383216 2.4953783-1.149659 3.4722992-.766443.9769208-1.825609 1.720219-3.177529 2.2299169-1.351921.5096978-2.879462.7645429-4.582668.7645429-2.38449 0-4.321859-.29201-5.812165-.8760388s-2.778337-1.4812959-3.864131-2.6918282l2.810277-3.8227147c.830314 1.1468201 1.767063 1.9538296 2.810278 2.4210526 1.043214.467223 2.29931.700831 3.768326.700831 1.170955 0 2.049157-.1645874 2.634635-.4937673.585477-.3291798.878211-.8017051.878211-1.41759 0-.4884604-.314024-.8866559-.942081-1.1945983-.628058-.3079425-1.676579-.5999525-3.145595-.8760388-1.809657-.361036-3.305263-.7910871-4.486863-1.2901662-1.181599-.4990792-2.097059-1.1733568-2.746407-2.0228532s-.974017-1.9325881-.974017-3.2493075.356604-2.495378 1.069822-3.5360111 1.756416-1.8529518 3.129627-2.4369806c1.37321-.5840288 2.996555-.8760388 4.870083-.8760388zm19.959355 14.8130194-2.586732 2.867036v3.6634349h-5.428945v-22.6814404h5.428945v13.4432133l6.099579-6.6897507h6.003774l-5.876035 6.2437673 6.227319 9.6842105h-6.003774zm27.400203-1.6565097c0 .722072-.053224 1.3167105-.159675 1.7839336h-10.889824c.170321.9981582.537569 1.7308379 1.101756 2.1980609.564188.467223 1.314652.700831 2.251416.700831.787733 0 1.431748-.1486596 1.932065-.4459834.500317-.2973237.835631-.7326841 1.005952-1.3060941l4.407026 1.401662c-.447092 1.3591942-1.31465 2.3945025-2.6027 3.1059557-1.288051.7114532-2.868816 1.0671745-4.742343 1.0671745-2.789001 0-4.923301-.7220611-6.402961-2.166205-1.479661-1.4441439-2.219481-3.4829046-2.219481-6.1163435 0-2.6334388.723852-4.6721996 2.171578-6.1163435 1.447726-1.4441438 3.502188-2.166205 6.163449-2.166205 2.5761 0 4.550726.7061333 5.923937 2.1184211 1.37321 1.4122878 2.059805 3.3926465 2.059805 5.9411357zm-8.015677-4.268698c-1.724497 0-2.746406 1.0406175-3.065757 3.1218836h6.003774c-.255481-2.0812661-1.23481-3.1218836-2.938017-3.1218836zm22.641893 11.5637119c-.532252.361036-1.208202.653046-2.027871.8760388-.819668.2229928-1.644646.3344875-2.47496.3344875-1.894817 0-3.342521-.4035047-4.343155-1.2105263s-1.511589-2.1024842-1.532879-3.8864266v-7.2950139h-2.746407v-3.8545706h2.746407v-3.567867l5.428945-1.4972299v5.0650969h4.790245v3.8545706h-4.790245v6.4030471c0 1.4229065.702562 2.1343491 2.107708 2.1343491.872893 0 1.639325-.233608 2.299317-.7008311zm9.931775-15.3545707c2.40578 0 4.21541.4565975 5.428945 1.3698061 1.213535.9132087 1.969322 2.1024858 2.267383 3.5678671l-5.045725 1.6565097c-.212901-1.8264173-1.032557-2.7396122-2.458993-2.7396122-2.107718 0-3.161562 1.4972149-3.161562 4.4916897 0 2.9095252 1.053844 4.364266 3.161562 4.364266 1.511596 0 2.395121-.8601022 2.650602-2.5803324l4.886051 1.5609418c-.234191 1.4441439-1.005945 2.6174932-2.315286 3.5200831-1.30934.9025899-3.039133 1.3538781-5.189432 1.3538781-2.767711 0-4.896688-.7220611-6.386994-2.166205s-2.235448-3.4829046-2.235448-6.1163435c0-2.6122014.73982-4.6456529 2.219481-6.1004155s3.539446-2.182133 6.179416-2.182133zm21.07708 0c1.681916 0 3.023172.4884531 4.023806 1.465374s1.500943 2.3679504 1.500943 4.1731302v10.6080332h-5.428944v-9.1108033c0-2.0175539-.755787-3.0263158-2.267383-3.0263158-.851604 0-1.543521.3079379-2.075773.9238227-.532252.6158849-.798374 1.5609355-.798374 2.8351801v8.3781163h-5.428945v-22.6814404h5.428945v9.6523546c.468381-1.0618705 1.133687-1.8635707 1.995935-2.4051247.862249-.5415539 1.878835-.8123269 3.04979-.8123269zm9.293076 12.7423823c3.555444-2.2086906 6.126183-4.1678123 7.712295-5.8774238 1.586111-1.7096115 2.379155-3.3183212 2.379155-4.8261773 0-.8494964-.244833-1.5343926-.734505-2.0547091-.489672-.5203166-1.192234-.7804709-2.107708-.7804709-1.000634 0-1.783032.3663398-2.34722 1.0990304-.564187.7326907-.856921 1.7998545-.878211 3.2015236l-4.694441-1.433518c.04258-2.2724029.824979-4.0350815 2.34722-5.2880887 1.522242-1.2530072 3.496867-1.8795014 5.923937-1.8795014 1.767077 0 3.246716.3238657 4.438961.9716067s2.07577 1.4812968 2.650602 2.5006925c.574833 1.0193957.862244 2.1131059.862244 3.2811634 0 1.9750792-.739819 3.7908505-2.21948 5.4473685-1.479661 1.6565179-3.720409 3.3448667-6.722311 5.0650969v.031856c1.405146-.0849497 2.820915-.1274239 4.247351-.1274239h4.94992v4.1731302h-15.807809zm28.134707-4.1731302h-3.289302v7.6772853h-5.397009v-21.0249307h10.059515c2.55481 0 4.518791.5734015 5.892001 1.7202216 1.373211 1.1468201 2.059806 2.8033133 2.059806 4.9695291 0 1.5290935-.351281 2.803319-1.053854 3.8227147-.702573 1.0193956-1.724482 1.7733124-3.065757 2.2617728l5.365075 8.2506925h-6.067644zm-3.289302-3.8864266h3.736392c1.170954 0 2.022545-.2123709 2.554797-.6371191s.798374-1.1043351.798374-2.0387811c0-.9132087-.266122-1.5821771-.798374-2.0069253s-1.383843-.6371191-2.554797-.6371191h-3.736392zm31.775294 3.3767313c0 .722072-.053224 1.3167105-.159675 1.7839336h-10.889824c.170321.9981582.537569 1.7308379 1.101756 2.1980609.564188.467223 1.314652.700831 2.251416.700831.787733 0 1.431748-.1486596 1.932065-.4459834.500317-.2973237.835631-.7326841 1.005952-1.3060941l4.407026 1.401662c-.447092 1.3591942-1.31465 2.3945025-2.6027 3.1059557-1.288051.7114532-2.868816 1.0671745-4.742343 1.0671745-2.789001 0-4.923301-.7220611-6.402961-2.166205-1.479661-1.4441439-2.219481-3.4829046-2.219481-6.1163435 0-2.6334388.723852-4.6721996 2.171578-6.1163435 1.447726-1.4441438 3.502188-2.166205 6.163449-2.166205 2.5761 0 4.550726.7061333 5.923937 2.1184211 1.37321 1.4122878 2.059805 3.3926465 2.059805 5.9411357zm-8.015677-4.268698c-1.724497 0-2.746406 1.0406175-3.065757 3.1218836h6.003774c-.255481-2.0812661-1.23481-3.1218836-2.938017-3.1218836zm26.474089 9.3656509c.404512 0 .734503-.0424741.989984-.1274238l-.415154 3.0263158c-.617413.3397986-1.341265.5096953-2.171578.5096953-2.299329 0-3.672519-.817628-4.119611-2.4529086-.958054 1.6352806-2.852843 2.4529086-5.684425 2.4529086-1.596756 0-2.820918-.3397935-3.672521-1.0193906s-1.277399-1.6671219-1.277399-2.9626039c0-1.3591942.484342-2.4582137 1.453041-3.2970914s2.560109-1.4812997 4.774278-1.9272853l3.608652-.700831v-.5734072c0-.722072-.202253-1.2954734-.606765-1.7202216-.404511-.4247482-.958045-.6371191-1.660618-.6371191-.809023 0-1.469006.1911338-1.979968.5734072-.510962.3822733-.840954 1.0087675-.989984 1.8795013l-4.407026-1.2742382c.276771-1.5503309 1.043203-2.7555358 2.299318-3.6156509 1.256115-.8601152 2.948651-1.2901663 5.07766-1.2901663 2.49094 0 4.385729.5096902 5.684424 1.5290859s1.948033 2.5484663 1.948033 4.5872576v5.797784c0 .828259.383216 1.2423822 1.149659 1.2423822zm-9.420816-.0955678c.745153 0 1.415781-.2070617 2.011903-.6211912.596123-.4141295.89418-.9609846.89418-1.6405817v-1.3698061l-2.586733.6052632c-.681283.1698993-1.165625.3769609-1.453041.6211911s-.431122.589333-.431122 1.0353186.138383.7857791.415155 1.0193906c.276771.2336115.659986.3504155 1.149658.3504155zm20.182901-13.0609419c2.405779 0 4.21541.4565975 5.428944 1.3698061 1.213535.9132087 1.969322 2.1024858 2.267383 3.5678671l-5.045725 1.6565097c-.212901-1.8264173-1.032557-2.7396122-2.458992-2.7396122-2.107719 0-3.161562 1.4972149-3.161562 4.4916897 0 2.9095252 1.053843 4.364266 3.161562 4.364266 1.511596 0 2.395121-.8601022 2.650602-2.5803324l4.88605 1.5609418c-.234191 1.4441439-1.005945 2.6174932-2.315285 3.5200831s-3.039134 1.3538781-5.189433 1.3538781c-2.767711 0-4.896687-.7220611-6.386993-2.166205s-2.235448-3.4829046-2.235448-6.1163435c0-2.6122014.739819-4.6456529 2.21948-6.1004155s3.539446-2.182133 6.179417-2.182133zm22.194803 15.3545707c-.532252.361036-1.208202.653046-2.027871.8760388-.819668.2229928-1.644646.3344875-2.47496.3344875-1.894817 0-3.342521-.4035047-4.343155-1.2105263s-1.511589-2.1024842-1.532879-3.8864266v-7.2950139h-2.746407v-3.8545706h2.746407v-3.567867l5.428945-1.4972299v5.0650969h4.790245v3.8545706h-4.790245v6.4030471c0 1.4229065.702562 2.1343491 2.107708 2.1343491.872893 0 1.639325-.233608 2.299318-.7008311z"/><g transform="translate(16 16)"><path d="m88.873374 39.5c0-5.875286-7.3623984-11.4432494-18.6502033-14.8961098 2.6048781-11.4974829 1.4471545-20.6448513-3.654065-23.57345542-1.175813-.68695652-2.5506098-1.01235698-4.0520325-1.01235698v4.03135012c.8321138 0 1.5014227.16270023 2.0621951.47002288 2.4601626 1.41006865 3.527439 6.7791762 2.6953252 13.684897-.1989837 1.6993135-.5245935 3.489016-.922561 5.3148742-3.5455284-.8677346-7.4166666-1.5366133-11.4867886-1.9704806-2.4420732-3.3443936-4.9745935-6.3814645-7.5252032-9.0389016 5.8971544-5.47757435 11.4325203-8.47848969 15.1951219-8.47848969v-4.03135011c-4.9745935 0-11.4867886 3.54324943-18.0713415 9.68970252-6.5845528-6.11029749-13.0967479-9.61739131-18.0713414-9.61739131v4.03135012c3.7445122 0 9.2979675 2.98283753 15.1951219 8.42425627-2.5325203 2.6574371-5.0650406 5.6764302-7.4709349 9.0208238-4.0882114.4338673-7.9593496 1.102746-11.5048781 1.9885584-.4160569-1.8077803-.7235772-3.5613273-.9406504-5.242563-.8502032-6.9057208.1989838-12.27482833 2.6410569-13.70297479.5426829-.32540045 1.2481708-.47002288 2.0802846-.47002288v-4.03135011c-1.5195122 0-2.894309.32540045-4.0882114 1.01235698-5.0831301 2.92860411-6.2227642 12.0578947-3.5997968 23.519222-11.25162597 3.4709382-18.57784548 9.0208238-18.57784548 14.878032 0 5.875286 7.36239837 11.4432494 18.65020328 14.8961098-2.6048781 11.4974829-1.4471545 20.6448513 3.654065 23.5734554 1.175813.6869565 2.5506098 1.012357 4.070122 1.012357 4.9745935 0 11.4867886-3.5432494 18.0713414-9.6897025 6.5845529 6.1102975 13.096748 9.6173913 18.0713415 9.6173913 1.5195122 0 2.8943089-.3254005 4.0882114-1.012357 5.0831301-2.9286041 6.2227642-12.0578947 3.5997967-23.519222 11.2154472-3.4528604 18.5416667-9.0208238 18.5416667-14.878032zm-23.552439-12.0578947c-.669309 2.3320366-1.5014228 4.7363844-2.4420732 7.1407322-.7416667-1.4462242-1.5195122-2.8924485-2.3697155-4.3386727-.8321138-1.4462243-1.7184959-2.8562929-2.604878-4.230206 2.5686992.3796339 5.0469512.8496568 7.4166667 1.4281465zm-8.2849594 19.2528604c-1.4109756 2.4405034-2.8581301 4.7544622-4.3595528 6.9057208-2.6953252.2350114-5.4268293.3615561-8.1764228.3615561-2.7315041 0-5.4630081-.1265447-8.1402439-.3434783-1.5014228-2.1512586-2.9666667-4.4471396-4.3776423-6.8695652-1.3747967-2.3681922-2.6229675-4.7725401-3.7626016-7.1949657 1.1215447-2.4224256 2.3878049-4.8448512 3.7445122-7.2130435 1.4109756-2.4405034 2.8581301-4.7544622 4.3595528-6.9057208 2.6953252-.2350114 5.4268293-.3615561 8.1764228-.3615561 2.7315041 0 5.4630081.1265447 8.1402439.3434783 1.5014228 2.1512586 2.9666667 4.4471396 4.3776423 6.8695652 1.3747967 2.3681922 2.6229675 4.7725401 3.7626016 7.1949657-1.1396341 2.4224256-2.3878049 4.8448513-3.7445122 7.2130435zm5.8428862-2.3501144c.9768293 2.4224256 1.8089431 4.8448512 2.4963415 7.1949656-2.3697155.5784897-4.866057 1.0665904-7.4528456 1.4462243.8863821-1.3919909 1.7727643-2.8201373 2.6048781-4.2844394.8321138-1.4462242 1.6099593-2.9105263 2.351626-4.3567505zm-18.3426829 19.289016c-1.6823171-1.7354691-3.3646342-3.6697941-5.0288618-5.784897 1.6280488.0723112 3.2922764.1265446 4.9745935.1265446 1.7004065 0 3.3827235-.0361556 5.0288618-.1265446-1.6280488 2.1151029-3.3103659 4.0494279-4.9745935 5.784897zm-13.4585366-10.6478261c-2.5686992-.3796339-5.0469512-.8496568-7.4166667-1.4281465.669309-2.3320366 1.5014228-4.7363844 2.4420732-7.1407322.7416666 1.4462242 1.5195122 2.8924485 2.3697154 4.3386727.8502033 1.4462243 1.718496 2.8562929 2.6048781 4.230206zm13.3680894-37.6199085c1.6823171 1.7354691 3.3646342 3.6697941 5.0288618 5.784897-1.6280488-.0723112-3.2922764-.1265446-4.9745935-.1265446-1.7004065 0-3.3827236.0361556-5.0288618.1265446 1.6280488-2.1151029 3.3103659-4.0494279 4.9745935-5.784897zm-13.3861789 10.6478261c-.8863821 1.3919909-1.7727642 2.8201373-2.604878 4.2844394-.8321138 1.4462242-1.6099594 2.8924485-2.351626 4.3386727-.9768293-2.4224256-1.8089431-4.8448512-2.4963415-7.1949656 2.3697155-.5604119 4.8660569-1.0485126 7.4528455-1.4281465zm-16.3709349 22.6334096c-6.40365855-2.7297483-10.54613823-6.3091533-10.54613823-9.1473684s4.14247968-6.4356979 10.54613823-9.1473684c1.555691-.6688787 3.2560975-1.2654462 5.0107723-1.8258581 1.0310976 3.5432494 2.3878049 7.2311212 4.070122 11.0093821-1.6642276 3.7601831-3.0028455 7.4299771-4.0158537 10.9551487-1.7908536-.5604119-3.4912601-1.1750572-5.0650406-1.8439359zm9.7321138 25.8331808c-2.4601626-1.4100687-3.527439-6.7791762-2.6953252-13.684897.1989837-1.6993135.5245935-3.489016.922561-5.3148742 3.5455284.8677346 7.4166666 1.5366133 11.4867886 1.9704806 2.4420732 3.3443936 4.9745935 6.3814645 7.5252032 9.0389016-5.8971544 5.4775744-11.4325203 8.4784897-15.1951219 8.4784897-.8140244-.0180778-1.5014228-.180778-2.0441057-.4881007zm42.9081301-13.775286c.8502032 6.9057208-.1989838 12.2748283-2.6410569 13.7029748-.5426829.3254004-1.2481708.4700229-2.0802846.4700229-3.7445122 0-9.2979675-2.9828376-15.1951219-8.4242563 2.5325203-2.6574371 5.0650406-5.6764302 7.4709349-9.0208238 4.0882114-.4338673 7.9593496-1.102746 11.5048781-1.9885584.4160569 1.8258581.7416666 3.5794051.9406504 5.2606408zm6.9644309-12.0578948c-1.5556911.6688787-3.2560976 1.2654462-5.0107724 1.8258581-1.0310975-3.5432494-2.3878049-7.2311212-4.0701219-11.0093821 1.6642276-3.7601831 3.0028455-7.4299771 4.0158536-10.9551487 1.7908537.5604119 3.4912602 1.1750572 5.0831301 1.8439359 6.4036586 2.7297483 10.5461382 6.3091533 10.5461382 9.1473684-.0180894 2.8382151-4.1605691 6.4356979-10.5642276 9.1473684z"/><path d="m10.6727642 0 10.6727643 12.3033913-4.6234777 6.2160526-6.0492866.6430275-6.04928656-.6430275-4.62347764-6.2160526z" opacity=".5" transform="matrix(-1 0 0 -1 55.172764 49.171625)"/><path d="m10.6727642 0 10.6727643 12.3033913-4.6234777 6.2160526-6.0492866.6430275-6.04928656-.6430275-4.62347764-6.2160526z" transform="matrix(-1 0 0 -1 55.172764 49.171625)"/><path d="m10.6727642 6.86956522 10.6727643 12.29290618h-21.3455285z" transform="matrix(-1 0 0 -1 55.172764 56.041189)"/><path d="m10.6727642 6.86956522 6.3313008 12.29290618h-12.66260159z" transform="matrix(-1 0 0 -1 55.172764 56.041189)"/><path d="m10.6727642 6.86956522 6.3313008-6.86956522h-12.66260159z" transform="matrix(-1 0 0 -1 55.172764 36.878719)"/><path d="m0 6.68878719 2.41747154-3.09437758 2.28578049-3.05207551h-4.43950813z" transform="matrix(-1 0 0 -1 38.530488 37.240275)"/><path d="m16.6422764 6.68878719 2.4174716-3.09437758 2.2857805-3.05207551h-4.4395082z" transform="matrix(1 0 0 -1 33.827236 37.240275)"/><path d="m10.3712134 6.22563387.3015508-6.22563387-6.33130079 6.86956522z" transform="matrix(-1 0 0 -1 48.841464 36.878719)"/><path d="m16.5216199 6.22563387.3015508-6.22563387-6.3313008 6.86956522z" transform="matrix(1 0 0 -1 33.827236 36.878719)"/></g></g></svg>