<svg version="1" xmlns="http://www.w3.org/2000/svg" viewBox="0 0 16 16"><path d="M7.287.01c-.25.04-.408.072-.546.12C5.66.495 4.77 1.71 4.235 3.553l-.1.342-.444.136c-1.218.377-1.314.412-1.39.497a.404.404 0 0 0-.093.226c-.014.082-.206 1.537-.426 3.23-.217 1.695-.49 3.804-.606 4.687-.113.883-.206 1.607-.204 1.61.002.002 2.057.39 4.57.86l4.565.855 2.45-.53c1.348-.29 2.454-.532 2.46-.536.004-.003-.385-2.67-.868-5.928-.665-4.503-.883-5.935-.914-5.97-.035-.045-.096-.054-.71-.1l-.674-.052-.496-.492-.497-.495h-.14c-.09 0-.223.028-.39.08-.23.072-.257.077-.27.042a4.612 4.612 0 0 0-.252-.56C9.485.85 8.988.49 8.475.49c-.136 0-.136 0-.26-.137A1.04 1.04 0 0 0 7.287.01zm.358.587l.068.038-.16.09c-.688.404-1.178 1.172-1.447 2.28l-.075.303-.618.192c-.407.127-.623.183-.628.164-.01-.044.225-.705.37-1.03.55-1.24 1.252-1.95 2.05-2.072.172-.026.347-.012.44.035zM8.85 1.1c.145.07.38.33.494.554.1.197.215.475.215.53 0 .027-.666.25-.74.25-.017 0-.03-.122-.04-.37a3.468 3.468 0 0 0-.125-.88.84.84 0 0 1-.033-.14c0-.027.103-.002.228.057zm-.743.18c.075.24.136.636.154 1.002l.018.33-.794.246c-.7.216-.795.24-.802.204-.01-.06.148-.51.265-.757.25-.52.576-.893.98-1.115.065-.038.124-.068.126-.068.002 0 .028.07.054.157zm-.36 4.235c.22.035.49.11.6.166l.06.034-.303.912-.304.91-.167-.07c-.53-.222-1.227-.27-1.6-.112-.35.15-.532.6-.36.89.09.153.306.35.747.68.766.577 1.08.958 1.256 1.535.06.196.065.238.065.643.004.44-.01.546-.107.88-.208.723-.742 1.287-1.424 1.505a2.083 2.083 0 0 1-.763.106c-.83-.003-1.61-.295-2.19-.823l-.15-.137.208-.693c.115-.385.218-.696.23-.696.012 0 .063.035.117.08.267.215.79.494 1.06.562.187.047.444.047.576.002.267-.096.424-.39.372-.705-.05-.3-.197-.492-.705-.914-.63-.523-.86-.833-.994-1.336-.06-.225-.07-.635-.024-.947.194-1.32 1.162-2.254 2.56-2.47.284-.044.973-.046 1.24-.002z" fill="#7ab55c"/></svg>