<?xml version="1.0" encoding="UTF-8"?>
<svg width="89px" height="79px" viewBox="0 0 89 79" version="1.1" xmlns="http://www.w3.org/2000/svg" xmlns:xlink="http://www.w3.org/1999/xlink">
    <title>Sketch2React</title>
    <g id="Page-1" stroke="none" stroke-width="1" fill="none" fill-rule="evenodd">
        <path d="M62.5351626,7.10542736e-15 L62.534626,0.018 L62.8612746,0.0238705963 C64.1148631,0.0664114444 65.2738053,0.343922593 66.2942649,0.87830805 L66.5691057,1.03043478 C71.6703252,3.9590389 72.8280488,13.1064073 70.2231707,24.6038902 C81.5109756,28.0567506 88.873374,33.624714 88.873374,39.5 C88.873374,45.3572082 81.5471545,50.9251716 70.3317073,54.378032 C72.9546748,65.8393593 71.8150407,74.9686499 66.7319106,77.897254 C65.5380081,78.5842105 64.1632114,78.909611 62.6436992,78.909611 C57.6691057,78.909611 51.1569106,75.4025172 44.5723577,69.2922197 C37.9878049,75.4386728 31.4756098,78.9819222 26.5010163,78.9819222 C24.9815041,78.9819222 23.6067073,78.6565217 22.4308943,77.9695652 C17.3296748,75.0409611 16.1719512,65.8935927 18.7768293,54.3961098 C7.48902439,50.9432494 0.12662602,45.375286 0.12662602,39.5 C0.12662602,33.6427918 7.45284553,28.0929062 18.7044715,24.621968 C16.0815041,13.1606407 17.2211382,4.03135011 22.3042683,1.102746 C23.4981707,0.41578947 24.8729675,0.09038902 26.3924797,0.09038902 L26.3924797,0.09038902 L26.3924797,0.07231121 C31.3670732,0.07231121 37.8792683,3.57940503 44.4638211,9.68970252 C51.048374,3.54324943 57.5605691,7.10542736e-15 62.5351626,7.10542736e-15 L62.5351626,7.10542736e-15 Z M22.6479675,55.480778 C22.25,57.3066362 21.9243902,59.0963387 21.7254065,60.7956522 C20.8932927,67.701373 21.9605691,73.0704805 24.4207317,74.4805492 C24.9634146,74.7878719 25.650813,74.9505721 26.4648374,74.9686499 C30.227439,74.9686499 35.7628049,71.9677346 41.6599593,66.4901602 C39.1093496,63.8327231 36.5768293,60.7956522 34.1347561,57.4512586 C30.0646341,57.0173913 26.1934959,56.3485126 22.6479675,55.480778 Z M66.3882114,55.4446224 C62.8426829,56.3304348 58.9715447,56.9993135 54.8833333,57.4331808 C52.477439,60.7775744 49.9449187,63.7965675 47.4123984,66.4540046 C53.3095528,71.8954233 58.8630081,74.8782609 62.6075203,74.8782609 C63.4396341,74.8782609 64.145122,74.7336384 64.6878049,74.408238 C67.129878,72.9800915 68.179065,67.610984 67.3288618,60.7052632 C67.129878,59.0240275 66.8042683,57.2704805 66.3882114,55.4446224 Z M49.5107724,57.8489703 C47.8646341,57.9393593 46.1823171,57.9755149 44.4819106,57.9755149 C42.7995935,57.9755149 41.1353659,57.9212815 39.5073171,57.8489703 C41.1715447,59.9640732 42.8538618,61.8983982 44.5361789,63.6338673 C46.2004065,61.8983982 47.8827236,59.9640732 49.5107724,57.8489703 Z M44.5,25.073913 C41.7504065,25.073913 39.0189024,25.2004577 36.3235772,25.4354691 C34.8221545,27.5867277 33.375,29.9006865 31.9640244,32.3411899 C30.6073171,34.7093822 29.3410569,37.1318078 28.2195122,39.5542334 C29.3591463,41.976659 30.6073171,44.3810069 31.9821138,46.7491991 C33.3930894,49.1716247 34.8583333,51.4675057 36.3597561,53.6187643 C39.0369919,53.8356979 41.7684959,53.9622426 44.5,53.9622426 C47.2495935,53.9622426 49.9810976,53.8356979 52.6764228,53.6006865 C54.1778455,51.4494279 55.625,49.1354691 57.0359756,46.6949657 C58.3926829,44.3267735 59.6408537,41.9043478 60.7804878,39.4819222 C59.6408537,37.0594966 58.3926829,34.6551487 57.0178862,32.2869565 C55.6069106,29.8645309 54.1416667,27.5686499 52.6402439,25.4173913 C49.9630081,25.2004577 47.2315041,25.073913 44.5,25.073913 Z M62.8788618,44.3448513 C62.1371951,45.7910755 61.3593496,47.2553776 60.5272358,48.7016018 C59.695122,50.1659039 58.8087398,51.5940503 57.9223577,52.9860412 C60.5091463,52.6064073 63.0054878,52.1183066 65.3752033,51.5398169 C64.6878049,49.1897025 63.8556911,46.7672769 62.8788618,44.3448513 Z M26.1030488,44.4171625 C25.1623984,46.8215103 24.3302846,49.2258581 23.6609756,51.5578947 C26.0306911,52.1363844 28.5089431,52.6064073 31.0776423,52.9860412 C30.1912602,51.6121281 29.3229675,50.2020595 28.4727642,48.7558352 C27.622561,47.309611 26.8447154,45.8633867 26.1030488,44.4171625 Z M19.6993902,28.5267735 C17.9447154,29.0871854 16.2443089,29.6837529 14.6886179,30.3526316 C8.28495935,33.0643021 4.14247967,36.6617849 4.14247967,39.5 C4.14247967,42.3382151 8.28495935,45.9176201 14.6886179,48.6473684 C16.2623984,49.3162471 17.9628049,49.9308924 19.7536585,50.4913043 C20.7666667,46.9661327 22.1052846,43.2963387 23.7695122,39.5361556 C22.0871951,35.7578947 20.7304878,32.0700229 19.6993902,28.5267735 Z M69.228252,28.5086957 C68.2152439,32.0338673 66.876626,35.7036613 65.2123984,39.4638444 C66.8947154,43.2421053 68.2514228,46.9299771 69.2825203,50.4732265 C71.0371951,49.9128146 72.7376016,49.3162471 74.2932927,48.6473684 C80.6969512,45.9356979 84.8394309,42.3382151 84.8575203,39.5 C84.8575203,36.6617849 80.7150407,33.0823799 74.3113821,30.3526316 C72.7195122,29.6837529 71.0191057,29.0691076 69.228252,28.5086957 Z M44.4999998,30.0091536 L50.472626,30.644 L50.4695124,30.5514878 L50.547626,30.652 L50.5492864,30.6521811 L50.569626,30.68 L52.886984,33.6458654 L55.1727645,36.6979409 L55.045626,36.697 L55.172764,36.8682337 L55.163626,36.878 L55.172764,36.8787176 L44.4999998,49.171625 L33.8272355,36.8787176 L33.835626,36.878 L33.8272355,36.8682337 L33.953626,36.697 L33.827236,36.6979409 L36.1130165,33.6458654 L38.530488,30.5514878 L38.525626,30.644 L44.334626,30.027 L44.3191059,30.0091538 L44.408626,30.019 L44.4999998,30.0091536 Z M31.0595528,26.0139588 C28.4727642,26.3935927 25.9764228,26.8816934 23.6067073,27.4421053 C24.2941057,29.7922197 25.1262195,32.2146453 26.1030488,34.6370709 C26.8447154,33.1908467 27.622561,31.7446224 28.4546748,30.2983982 C29.2867886,28.8340961 30.1731707,27.4059497 31.0595528,26.0139588 Z M57.9042683,26.0139588 C58.7906504,27.3878719 59.6770325,28.7979405 60.5091463,30.2441648 C61.3593496,31.690389 62.1371951,33.1366133 62.8788618,34.5828375 C63.8195122,32.1784897 64.651626,29.7741419 65.320935,27.4421053 C62.9512195,26.8636156 60.4729675,26.3935927 57.9042683,26.0139588 Z M26.3924797,4.10366133 L26.3924797,4.12173913 C25.5603659,4.12173913 24.854878,4.26636156 24.3121951,4.59176201 C21.870122,6.01990847 20.820935,11.389016 21.6711382,18.2947368 C21.8882114,19.9759725 22.1957317,21.7295195 22.6117886,23.5372998 C26.1573171,22.6514874 30.0284553,21.9826087 34.1166667,21.5487414 C36.522561,18.2043478 39.0550813,15.1853547 41.5876016,12.5279176 C35.6904472,7.08649886 30.1369919,4.10366133 26.3924797,4.10366133 L26.3924797,4.10366133 Z M62.516626,4.031 L62.2926026,4.03542055 C58.5368497,4.1601698 53.1117237,7.14880959 47.3400407,12.5098398 C49.8906504,15.1672769 52.4231707,18.2043478 54.8652439,21.5487414 C58.9353659,21.9826087 62.8065041,22.6514874 66.3520325,23.519222 C66.75,21.6933638 67.0756098,19.9036613 67.2745935,18.2043478 C68.1067073,11.298627 67.0394309,5.92951945 64.5792683,4.5194508 C64.0184959,4.21212815 63.349187,4.04942792 62.5170732,4.04942792 L62.5170732,4.04942792 L62.516626,4.031 Z M44.4457317,15.3661327 C42.7815041,17.1016018 41.099187,19.0359268 39.4711382,21.1510297 C41.1172764,21.0606407 42.7995935,21.0244851 44.5,21.0244851 C46.1823171,21.0244851 47.8465447,21.0787185 49.4745935,21.1510297 C47.8103659,19.0359268 46.1280488,17.1016018 44.4457317,15.3661327 Z" id="Sketch2React" fill="#0A0839" fill-rule="nonzero"></path>
    </g>
</svg>