<?xml version="1.0" encoding="UTF-8"?>
<svg width="79px" height="79px" viewBox="0 0 79 79" version="1.1" xmlns="http://www.w3.org/2000/svg" xmlns:xlink="http://www.w3.org/1999/xlink">
    <!-- Generator: Sketch 52.6 (67491) - http://www.bohemiancoding.com/sketch -->
    <title>Shape</title>
    <desc>Created with Sketch.</desc>
    <g id="Page-1" stroke="none" stroke-width="1" fill="none" fill-rule="evenodd">
        <g id="supernova" fill="#000000" fill-rule="nonzero">
            <path d="M38.7231667,0 L42.1465,0 C52.5876667,1.659 57.9465,12.4425 59.4606667,21.9225 C68.1506667,23.7395 77.6833333,29.072 79,38.7231667 L79,42.1465 C77.341,52.6271667 66.5443333,57.9201667 57.0775,59.487 C55.2868333,68.1901667 49.8885,77.6833333 40.2505,79 L36.8535,79 C26.386,77.341 21.0666667,66.5443333 19.5393333,57.0775 C10.8361667,55.2605 1.31666667,49.928 0,40.2768333 L0,36.8535 C1.659,26.3991667 12.4425,21.0666667 21.9093333,19.5393333 C23.7131667,10.823 29.0983333,1.32983333 38.7231667,2.33886984e-15 Z M33.607082,10.7799716 C28.7939819,16.7081475 28.2782926,24.8190287 29.6799097,32 C35.1012586,25.387307 43.3919557,21.4610206 52,20.9185731 C50.995067,15.7653222 48.8397502,9.99213125 43.6299661,7.62861013 C40.0333639,5.93669065 35.8549584,7.88691845 33.607082,10.7799716 Z M7.627317,35.4315487 C5.90986411,39.0261901 7.94933942,43.1758865 10.954882,45.4225374 C17.1269783,50.2065822 25.539814,50.7087748 33,49.334353 C26.076518,43.9423909 22.0244026,35.616567 21.4474458,27 C16.0938231,28.0176007 10.0693203,30.184958 7.627317,35.4315487 Z M46,29.6493641 C52.9254021,35.0452573 56.9440106,43.3771511 57.5066158,52 C62.8513652,51.0081079 68.8524873,48.8656209 71.3306292,43.6548809 C73.2729567,39.7005376 70.7010472,35.2171852 67.2986253,33.0085721 C61.1635496,28.6839224 53.1799139,28.3929674 46,29.6493641 Z M37.1300437,34.5189752 C33.4695877,36.0799372 32.8572932,41.5829895 36.158359,43.831833 C39.4860464,46.7421011 45.1564256,43.805376 44.9966966,39.5193449 C45.1164933,35.6830824 40.5642171,32.7728144 37.1300437,34.5189752 Z M27,57.5593411 C28.0051754,62.9304834 30.187464,68.9445555 35.4514087,71.3823308 C39.0224265,73.0700214 43.122484,71.0742603 45.3576766,68.1141045 C50.2116156,61.9393001 50.7274293,53.4874527 49.3122481,46 C43.9424955,52.9516779 35.6233466,56.9565945 27,57.5593411 Z" id="Shape"></path>
        </g>
    </g>
</svg>