<?xml version="1.0" encoding="UTF-8"?>
<svg width="255px" height="255px" viewBox="0 0 255 255" version="1.1" xmlns="http://www.w3.org/2000/svg" xmlns:xlink="http://www.w3.org/1999/xlink">
    <!-- Generator: Sketch 58 (84663) - https://sketch.com -->
    <title>Group 12</title>
    <desc>Created with Sketch.</desc>
    <g id="Page-1" stroke="none" stroke-width="1" fill="none" fill-rule="evenodd">
        <g id="Group-12" fill-rule="nonzero">
            <g id="gm6sj-link" transform="translate(33.000000, 0.000000)" fill="#00A79D">
                <path d="M184.899213,36.9135802 C161.480929,13.5086811 129.692679,0.356274458 96.5433071,0.356274458 C63.3939355,0.356274458 31.605685,13.5086811 8.18740157,36.9135802 C0.528401198,44.4284217 -1.79333241,55.827769 2.31861972,65.7283772 C6.43057185,75.6289854 16.1535906,82.0501822 26.896063,81.959612 C33.9309008,82.0181518 40.6973693,79.2692813 45.6897638,74.3246914 C59.2360576,60.7477283 77.681325,53.1675028 96.8834646,53.2862434 C125.92493,53.4783776 152.023999,71.0105827 163.122835,97.7829346 C174.221671,124.555287 168.159479,155.355568 147.737008,175.953968 C142.719685,181.043915 140.083465,187.660847 140.083465,194.617108 C140.038033,201.613366 142.79814,208.337425 147.74942,213.292591 C152.7007,218.247756 159.432236,221.022789 166.445669,221.000348 C173.4511,221.035902 180.182761,218.288742 185.154331,213.365079 C233.824578,164.526359 233.710482,85.6120443 184.899213,36.9135802 L184.899213,36.9135802 Z" id="gm6sj"></path>
            </g>
            <g id="gm6sk-link" transform="translate(0.000000, 32.000000)" fill="#223F82">
                <path d="M213.619577,148.822047 C208.660104,143.886375 201.944823,141.132514 194.956437,141.168504 C187.968052,141.132514 181.25277,143.886375 176.293298,148.822047 C162.773372,162.484442 144.336412,170.116284 125.13933,169.99685 C96.1396101,169.695479 70.1277817,152.047153 59.0706728,125.171042 C48.0135639,98.2949313 54.0526084,67.3961416 74.4095238,46.6897638 C81.460661,40.0680613 84.3521315,30.1209195 81.9530488,20.7387765 C79.5539662,11.3566334 72.2455701,4.03041116 62.8862558,1.62547681 C53.5269415,-0.779457541 43.6040032,2.11906562 36.9984127,9.18740157 C-11.7273221,57.985021 -11.7653023,137.139666 36.9135816,185.984251 C85.5924654,234.828835 164.554511,234.866909 213.280247,186.069291 C218.370194,180.966929 220.915168,174.333858 220.915168,167.275591 C221.256207,160.356843 218.596064,153.628248 213.619577,148.822047 L213.619577,148.822047 Z" id="gm6sk"></path>
            </g>
            <g id="gm6sl-link" transform="translate(169.000000, 34.000000)" fill="#00A79D">
                <path d="M7.37024119,37.57 C7.70849722,37.91 8.04675325,37.91 8.38500928,38.25 C22.300846,51.753196 30.1604939,70.360566 30.1604939,89.8025 C30.1604939,109.244434 22.300846,127.851804 8.38500928,141.355 C3.27411582,146.305623 0.386711504,153.13308 0.386711504,160.2675 C0.386711504,167.40192 3.27411582,174.229377 8.38500928,179.18 C13.5434137,184.28 20.4776623,187 27.834731,187 C35.0226716,187 41.9569202,184.28 47.1153247,179.18 C71.3046402,155.856215 84.980016,123.622299 84.980016,89.93 C84.980016,56.2377011 71.3046402,24.0037849 47.1153247,0.68 L46.4388126,0 L7.37024119,37.57 L7.37024119,37.57 Z" id="gm6sl"></path>
            </g>
        </g>
    </g>
</svg>