<?xml version="1.0" encoding="UTF-8"?>
<svg width="189px" height="95px" viewBox="0 0 189 95" version="1.1" xmlns="http://www.w3.org/2000/svg" xmlns:xlink="http://www.w3.org/1999/xlink">
    <!-- Generator: Sketch 64 (93537) - https://sketch.com -->
    <title>uxbooth</title>
    <desc>Created with Sketch.</desc>
    <g id="Page-1" stroke="none" stroke-width="1" fill="none" fill-rule="evenodd">
        <g id="uxbooth" fill="#F56B20" fill-rule="nonzero">
            <path d="M172.404,0 C162.598,0 152.164,5.842 142.775,21.702 L137.351,31.283 L126.708,2.471 L98.953,2.471 L93.947,22.471 L111.683,22.471 L123.367,50.466 L116.273,60.916 C110.849,68.845 105.84,73.443 102.293,73.652 C100.414,70.313 96.867,67.71 92.068,67.71 C85.182,67.71 79.548,73.294 79.548,80.179 C79.548,88.316 86.434,94.76 96.867,94.76 C107.3,94.76 117.734,88.905 126.498,73.882 L132.13,64.068 L137.349,77.211 C142.356,90.147 149.033,94.736 158.006,94.736 C168.649,94.736 173.375,90.148 174.249,86.138 C173.7,85.979 162.87,85.11 155.919,68.653 L146.322,45.282 L152.789,34.847 C157.171,27.545 163.222,21.703 165.935,21.284 C167.812,24.623 171.152,27.128 176.159,27.128 C183.045,27.128 188.68,21.492 188.68,14.607 C188.682,6.469 181.795,0 172.404,0 Z" id="Path"></path>
            <path d="M72.994,80.322 C72.994,80.052 73.019,79.378 73.02,79.348 C73.156,76.513 75.074,68.05 76.074,64.253 L92.022,2.471 L68.651,2.471 L55.296,55.488 C51.957,68.843 46.115,75.736 35.056,75.736 C27.961,75.736 23.787,71.045 23.787,62.7 C23.787,60.196 24.414,57.834 25.04,54.914 L38.185,2.471 L14.802,2.471 L10.016,21.267 L2.295,52.576 C0.834,58.835 0,64.787 0,69.585 C0,85.443 10.85,94.784 22.745,94.784 C34.43,94.784 45.698,86.83 53.21,74.519 C53.419,86.83 60.513,94.747 72.2,94.747 C74.411,94.747 76.406,94.456 78.704,93.814 C75.285,90.309 72.994,85.638 72.994,80.322 Z" id="Path"></path>
        </g>
    </g>
</svg>