<?xml version="1.0" encoding="UTF-8"?>
<svg width="65px" height="64px" viewBox="0 0 65 64" version="1.1" xmlns="http://www.w3.org/2000/svg" xmlns:xlink="http://www.w3.org/1999/xlink">
    <title>uxdi-logo</title>
    <g id="Page-1" stroke="none" stroke-width="1" fill="none" fill-rule="evenodd">
        <g id="uxdi-logo" fill="#2D333A">
            <path d="M54.07,21.2400047 C49.7727936,21.2440444 45.8966562,18.658048 44.2503177,14.6887195 C42.6039792,10.7193911 43.5119456,6.1491158 46.5505307,3.11053069 C49.5891158,0.0719455718 54.1593911,-0.836020845 58.1287195,0.810317672 C62.098048,2.45665619 64.6840444,6.33279362 64.6800047,10.63 C64.6744871,16.4874562 59.9274562,21.2344871 54.07,21.2400047 L54.07,21.2400047 Z" id="Fill-92"></path>
            <path d="M11.61,21.2400047 C7.31370136,21.2400047 3.44063285,18.6514348 1.79744629,14.681785 C0.154259723,10.7121351 1.06469619,6.14350022 4.10406872,3.10698962 C7.14344126,0.0704790163 11.7129318,-0.835653104 15.6810319,0.811272389 C19.649132,2.45819788 22.2340455,6.33370326 22.2300047,10.63 C22.2300047,13.4456804 21.1107926,16.145892 19.1188682,18.1359407 C17.1269439,20.1259894 14.4256792,21.2426538 11.61,21.2400047 Z" id="Fill-89"></path>
            <path d="M22.2300047,53.08 C22.2340455,57.3762967 19.649132,61.2518021 15.6810319,62.8987276 C11.7129318,64.5456531 7.14344126,63.639521 4.10406872,60.6030104 C1.06469619,57.5664998 0.154259723,52.9978649 1.79744629,49.028215 C3.44063285,45.0585652 7.31370136,42.47 11.61,42.47 C17.471361,42.47 22.2244808,47.2186416 22.2300047,53.08" id="Fill-95"></path>
            <path d="M43.45,31.85 C43.45,37.7097412 38.6997412,42.46 32.84,42.46 C26.9802588,42.46 22.23,37.7097412 22.23,31.85 C22.23,25.9902588 26.9802588,21.24 32.84,21.24 C38.6974562,21.2455129 43.4444871,25.9925438 43.45,31.85" id="Fill-97"></path>
            <path d="M64.6800047,53.08 C64.6840444,57.3772064 62.098048,61.2533438 58.1287195,62.8996823 C54.1593911,64.5460208 49.5891158,63.6380544 46.5505307,60.5994693 C43.5119456,57.5608842 42.6039792,52.9906089 44.2503177,49.0212805 C45.8966562,45.051952 49.7727936,42.4659556 54.07,42.4699953 C59.9297412,42.4699953 64.6800047,47.2202588 64.6800047,53.08" id="Fill-99"></path>
        </g>
    </g>
</svg>