<svg alt="" class="treehouse-icon nav-item-logo-icon" preserveAspectRatio="xMinYMin meet" viewBox="0 0 139 32"><path class="icon-treehouse" d="M42.8 21.1c-0.4 0.1-0.9 0.2-1.4 0.2 -1 0-1.4-0.6-1.4-1.6v-4.5h2.8c0.7 0 1.4-0.5 1.4-1.3s-0.6-1.3-1.4-1.3H40v-1.5c0-0.9-0.7-1.5-1.5-1.5S37 10.3 37 11.1v8.7c0 2.5 1.2 4.3 4 4.3 0.8 0 1.9-0.1 2.7-0.5 0.7-0.3 0.9-0.8 0.9-1.3C44.6 21.6 43.9 20.9 42.8 21.1zM52.8 12.2c-0.4-0.1-1.2-0.2-1.9-0.2 -2.5 0-3.9 1.5-3.9 3.8v6.8c0 0.8 0.7 1.5 1.5 1.5s1.5-0.7 1.5-1.5v-6.2c0-1 0.4-1.4 1.1-1.4s1.1 0.2 1.7 0.2c0.9 0 1.4-0.8 1.4-1.4C54.1 13 53.7 12.5 52.8 12.2zM61.1 12c-2.8 0-4.8 1.8-5.1 4.7 0 0.7-0.1 1.9 0 2.8 0.2 2.8 2.2 4.7 5.2 4.7 1.4 0 2.7-0.3 3.5-0.8 0.6-0.4 0.7-0.8 0.7-1.2 0-0.8-0.7-1.6-1.9-1.2 -0.7 0.3-1.5 0.5-2.3 0.5 -1.4 0-2.5-0.7-2.5-2.1v-0.3h5.7c1 0 1.5-0.6 1.5-1.5v-0.5C66 14 64 12 61.1 12zM63 17.1h-4.2c0-1.5 0.7-2.5 2.3-2.5 1.4 0 2.2 0.9 2.1 2.2C63.2 17 63.2 17.1 63 17.1zM73.1 12c-2.8 0-4.8 1.8-5.1 4.7 0 0.7-0.1 1.9 0 2.8 0.2 2.8 2.2 4.7 5.2 4.7 1.4 0 2.7-0.3 3.5-0.8 0.6-0.4 0.7-0.8 0.7-1.2 0-0.8-0.7-1.6-1.9-1.2 -0.7 0.3-1.5 0.5-2.3 0.5 -1.4 0-2.5-0.7-2.5-2.1v-0.3h5.7c1 0 1.5-0.6 1.5-1.5v-0.5C78 14 76 12 73.1 12zM75 17.1h-4.2c0-1.5 0.7-2.5 2.3-2.5 1.4 0 2.2 0.9 2.1 2.2C75.2 17 75.2 17.1 75 17.1zM123.6 17l-1.6-0.4c-1-0.2-1.3-0.5-1.3-1s0.5-0.9 1.6-0.9c0.6 0 1.3 0.2 1.9 0.5 0.7 0.4 1.5 0.3 1.9-0.2 0.5-0.5 0.5-1.4-0.1-2 -0.8-0.6-2.2-1-3.6-1 -2.6 0-4.5 1.3-4.5 3.7 0 1.9 1.4 2.9 3.2 3.4 0.9 0.2 0.8 0.2 1.6 0.4 0.9 0.2 1.3 0.6 1.3 1 0 0.6-0.5 1-1.7 1 -1 0-1.9-0.3-2.6-0.7 -0.7-0.5-1.5-0.3-1.9 0.3 -0.4 0.6-0.3 1.4 0.3 1.8 0.8 0.7 2.1 1.3 4.2 1.3 2.6 0 4.6-1.4 4.6-3.8C126.9 18.6 125.8 17.5 123.6 17zM137.5 19.1c1 0 1.5-0.6 1.5-1.5l0 0v-0.5c0-3.1-2-5.1-4.9-5.1 -2.8 0-4.8 1.8-5.1 4.7 0 0.7-0.1 1.9 0 2.8 0.2 2.8 2.2 4.7 5.2 4.7 1.4 0 2.7-0.3 3.5-0.8 0.6-0.4 0.7-0.8 0.7-1.2 0-0.8-0.7-1.6-1.9-1.2 -0.7 0.3-1.5 0.5-2.3 0.5 -1.4 0-2.5-0.7-2.5-2.1v-0.3H137.5zM134.1 14.6c1.4 0 2.2 0.9 2.1 2.2 0 0.2-0.1 0.3-0.2 0.3h-4.2C131.8 15.6 132.6 14.6 134.1 14.6zM97.5 12c-3 0-5.2 1.9-5.5 4.5 -0.1 0.9-0.1 2.3 0 3.2 0.2 2.6 2.5 4.5 5.5 4.5s5.2-1.9 5.4-4.5c0.1-0.9 0.1-2.2 0-3.1C102.7 13.9 100.5 12 97.5 12zM99.9 19.2c-0.1 1.3-1 2.1-2.4 2.1s-2.3-0.9-2.4-2.1c0-0.6 0-1.6 0-2.2 0.1-1.3 1-2.1 2.4-2.1s2.3 0.9 2.4 2.1C100 17.6 100 18.6 99.9 19.2zM85.6 12c-1.1 0-2.3 0.4-2.7 0.9l0 0V9.7c0-0.9-0.6-1.5-1.4-1.5s-1.4 0.7-1.4 1.5v12.9c0 0.8 0.7 1.5 1.5 1.5s1.4-0.7 1.4-1.5v-6.7c0.5-0.5 1.3-0.9 2.3-0.9 1.2 0 1.9 0.7 1.9 2.1v5.5c0 0.9 0.6 1.6 1.4 1.6 0.9 0 1.5-0.7 1.5-1.6v-5.7C90 13.7 88.4 12 85.6 12zM113.6 12.1c-0.8 0-1.5 0.7-1.5 1.5v7.1c-0.5 0.3-1.2 0.6-2.1 0.6 -1.2 0-2.1-0.7-2.1-2.1v-5.6c0-0.9-0.7-1.6-1.5-1.6 -0.9 0-1.4 0.7-1.4 1.6v5.7c0 3.1 1.8 4.8 4.9 4.8 2.3 0 3.9-0.8 4.6-1.3 0.4-0.2 0.5-0.5 0.5-1v-8.2C115 12.8 114.4 12.1 113.6 12.1z"></path><path class="icon-logo" d="M26 5.9c-1.1-0.6-2.8 0.4-3.8 2.2l-1.9 3.2c-0.7 1.3-0.6 2.9 0.3 4.2l0.1 0.1c0.9 1.2 2 2.4 2.4 2.8 0.2 0.2 0.4 0.5 0.5 0.9 0.3 1.1-0.3 2.3-1.5 2.6 -1.1 0.3-2.3-0.3-2.6-1.5 -0.1-0.3-0.1-0.6-0.1-0.8 0.1-0.5-0.1-1.2-0.8-2 -0.7-0.7-2 0.7-2.5 2.1v0.1c-0.4 1.4-0.7 2.7-0.6 2.8 0 0.1 0.1 0.1 0.1 0.2 0.6 1.2 0.2 2.6-1 3.2s-2.6 0.2-3.2-1 -0.2-2.6 1-3.2c0.1 0 0.1-0.1 0.2-0.1s0.3-0.6 0.6-1.4c0.2-0.7 0.3-1 0.4-1.3 0.1-0.4 0.3-1.4 0.2-1.8 -0.1-0.5-0.6-0.5-1.1-0.2 -0.3 0.2-0.9 0.7-1.1 0.9 -0.5 0.4-0.9 1-1.1 1.5 -0.1 0.2-0.3 0.5-0.5 0.7 -0.9 0.7-2.2 0.6-3-0.3 -0.7-0.9-0.6-2.2 0.3-3 0.3-0.2 0.6-0.4 0.9-0.4 0.5-0.1 2.3-1.2 3.4-2 0.2-0.1 0.5-0.4 0.6-0.5 0.3-0.4 0-0.7-0.3-0.7 -0.9 0.1-1.9 0.2-2.1 0.5 -0.1 0.1-0.2 0.3-0.4 0.4 -0.8 0.6-2 0.4-2.6-0.4s-0.4-2 0.4-2.6c0.3-0.3 0.8-0.4 1.1-0.4 0.7 0 2.5 0.4 3.9 0.1l0.4-0.1c1.5-0.3 3.3-1.6 4-2.9 0 0 0.7-1.2 1.5-2.7C19 3.6 18.9 1.9 18 1.4l-1.7-1c-0.9-0.5-2.2-0.5-3.1 0L1.6 7C0.7 7.5 0 8.7 0 9.7v12.8c0 1 0.7 2.2 1.6 2.7l11.6 6.6c0.9 0.5 2.3 0.5 3.1 0l11.6-6.6c0.9-0.5 1.6-1.7 1.6-2.7V9.7c0-1-0.7-2.2-1.6-2.7C27.9 7 27.1 6.5 26 5.9z"></path></svg>